<svg xmlns="http://www.w3.org/2000/svg" width="135.359" height="155.61" viewBox="0 0 135.359 155.61">
  <g id="clientIcon4" transform="translate(-1091.641 -2695.905)">
    <path id="path290" d="M532.428-951.633h.915v-5.2h1.646v-.813h-4.207v.813h1.646v5.2" transform="translate(560.859 3803.099)" fill="#fff"/>
    <path id="path292" d="M553.944-953.786l.87-2.627h.017l.87,2.627Zm2.482,2.153h.961l-2.185-6.012h-.763l-2.185,6.012h.965l.462-1.344h2.281l.466,1.344" transform="translate(550.584 3803.099)" fill="#fff"/>
    <path id="path294" d="M578.435-956.392a1.141,1.141,0,0,1,.379-.309,1.262,1.262,0,0,1,.553-.128,1.191,1.191,0,0,1,.742.251,1.327,1.327,0,0,1,.4.619h.965a2.272,2.272,0,0,0-.693-1.266,2.038,2.038,0,0,0-1.418-.515,2.067,2.067,0,0,0-1.183.338,2.076,2.076,0,0,0-.7.743,1.659,1.659,0,0,0-.2.573,10.07,10.07,0,0,0-.062,1.4,10.087,10.087,0,0,0,.062,1.393,1.739,1.739,0,0,0,.083.322c.035.082.075.169.12.259a2,2,0,0,0,.7.734,2.114,2.114,0,0,0,1.183.346,2.126,2.126,0,0,0,1.526-.622,2.128,2.128,0,0,0,.619-1.514v-1.224h-2.136v.861H580.6v.314a1.259,1.259,0,0,1-.355.912,1.161,1.161,0,0,1-.878.362,1.075,1.075,0,0,1-.553-.136,1.066,1.066,0,0,1-.379-.3,1,1,0,0,1-.235-.508,7.027,7.027,0,0,1-.066-1.2,7.2,7.2,0,0,1,.066-1.208.993.993,0,0,1,.235-.5" transform="translate(538.638 3803.144)" fill="#fff"/>
    <path id="path296" d="M603.243-957.646v6.012h3.839v-.862h-2.928v-5.15h-.911" transform="translate(526.185 3803.099)" fill="#fff"/>
    <path id="path298" d="M627.735-951.633v-6.012h-.911v6.012h.911" transform="translate(514.901 3803.099)" fill="#fff"/>
    <path id="path300" d="M645.573-957.646v6.012h.912v-4.272h.017l2.717,4.272h.862v-6.012h-.911v4.272h-.017l-2.721-4.272h-.858" transform="translate(505.929 3803.099)" fill="#fff"/>
    <path id="path302" d="M675.065-956.784v-.862h-3.839v6.012h3.839v-.862h-2.927v-1.765h2.5v-.808h-2.5v-1.715h2.927" transform="translate(493.653 3803.099)" fill="#fff"/>
    <path id="path304" d="M713.955-951.633v-6.012h-.912v2.578h-2.379v-2.578h-.911v6.012h.911v-2.627h2.379v2.627h.912" transform="translate(475.217 3803.099)" fill="#fff"/>
    <path id="path306" d="M738.661-956.784v-.862h-3.839v6.012h3.839v-.862h-2.928v-1.765h2.5v-.808h-2.5v-1.715h2.928" transform="translate(463.221 3803.099)" fill="#fff"/>
    <path id="path308" d="M759.314-956.833h1.427a1.044,1.044,0,0,1,.668.185.8.8,0,0,1,.3.681.928.928,0,0,1-.252.66.994.994,0,0,1-.767.3h-1.377Zm0,2.63h1.163l1.241,2.569H762.8l-1.393-2.668a1.672,1.672,0,0,0,1.162-1.666,1.594,1.594,0,0,0-.6-1.282,1.843,1.843,0,0,0-1.224-.4H758.4v6.012h.911V-954.2" transform="translate(451.937 3803.099)" fill="#fff"/>
    <path id="path310" d="M786.694-956.784v-.862h-3.839v6.012h3.839v-.862h-2.928v-1.765h2.5v-.808h-2.5v-1.715h2.928" transform="translate(440.236 3803.099)" fill="#fff"/>
    <path id="path312" d="M537.141-982.862a6.37,6.37,0,0,0,3.674-1.1,5.709,5.709,0,0,0,2.243-3.038h-3.6a2.373,2.373,0,0,1-2.261,1.36,3.154,3.154,0,0,1-2.446-.971,3.689,3.689,0,0,1-.892-2.6,3.69,3.69,0,0,1,.892-2.6,3.157,3.157,0,0,1,2.446-.971,2.373,2.373,0,0,1,2.261,1.36h3.6a5.709,5.709,0,0,0-2.243-3.038,6.371,6.371,0,0,0-3.674-1.1,6.233,6.233,0,0,0-4.512,1.792,6.069,6.069,0,0,0-1.846,4.548,6.069,6.069,0,0,0,1.846,4.548,6.23,6.23,0,0,0,4.512,1.792" transform="translate(560.859 3821.234)" fill="#fff"/>
    <path id="path314" d="M578.94-986.606a3.081,3.081,0,0,1-2.384.971,3.078,3.078,0,0,1-2.385-.971,3.689,3.689,0,0,1-.891-2.6,3.69,3.69,0,0,1,.891-2.6,3.081,3.081,0,0,1,2.385-.971,3.083,3.083,0,0,1,2.384.971,3.69,3.69,0,0,1,.892,2.6A3.689,3.689,0,0,1,578.94-986.606Zm3.965-2.6a6.1,6.1,0,0,0-1.827-4.548,6.187,6.187,0,0,0-4.5-1.792,6.246,6.246,0,0,0-4.522,1.792,6.071,6.071,0,0,0-1.845,4.548,6.1,6.1,0,0,0,1.845,4.557,6.217,6.217,0,0,0,4.513,1.8,6.189,6.189,0,0,0,4.5-1.8A6.115,6.115,0,0,0,582.9-989.2" transform="translate(541.993 3821.234)" fill="#fff"/>
    <path id="path316" d="M625.871-995.2H622.41l-3.55,8.548-3.568-8.548h-3.462v12.4h3.02V-989.8l2.879,6.994h2.243l2.879-6.994v6.994h3.02v-12.4" transform="translate(522.075 3821.072)" fill="#fff"/>
    <path id="path318" d="M660.4-992.908h1.872a1.423,1.423,0,0,1,1.078.424,1.506,1.506,0,0,1,.406,1.086,1.46,1.46,0,0,1-.4,1.069,1.45,1.45,0,0,1-1.086.406H660.4Zm0,5.281h1.872a5.983,5.983,0,0,0,2.235-.38,3.37,3.37,0,0,0,1.421-.98,3.908,3.908,0,0,0,.9-2.42,3.53,3.53,0,0,0-1.2-2.685,4.752,4.752,0,0,0-3.356-1.113h-4.892v12.4h3.02v-4.822" transform="translate(500.277 3821.072)" fill="#fff"/>
    <path id="path320" d="M694.966-987.219l1.466-4.415,1.466,4.415Zm-.353-8.054-4.31,12.434h3.214l.688-2.084h4.451l.688,2.084h3.232l-4.292-12.434h-3.673" transform="translate(484.524 3821.104)" fill="#fff"/>
    <path id="path322" d="M741.326-982.838v-12.434h-3.02v7.824l-5.051-7.824h-3.02v12.434h3.02v-7.824l5.051,7.824h3.02" transform="translate(465.416 3821.104)" fill="#fff"/>
    <path id="path324" d="M772.392-986.8v3.992h3.02V-986.8L779.7-995.2h-3.426l-2.367,5.6-2.384-5.6H768.1l4.292,8.407" transform="translate(447.297 3821.072)" fill="#fff"/>
    <path id="path430" d="M590.026-1170.684c.03-.3.059-.6.094-.895s.075-.6.115-.89.084-.591.134-.885.1-.587.15-.875c.218-1.169.482-2.317.8-3.445.074-.279.159-.562.244-.841v0c.065-.214.134-.432.2-.651a2.842,2.842,0,0,1,.089-.279c.08-.243.164-.487.249-.731.07-.213.144-.428.229-.636.05-.134.1-.263.149-.4.179-.472.369-.934.562-1.4.229-.542.467-1.079.726-1.605.12-.254.243-.5.368-.751.075-.159.159-.318.244-.472.094-.189.194-.377.293-.562.034-.065.07-.129.109-.194.134-.254.273-.5.417-.746.129-.223.259-.447.388-.666.119-.194.234-.383.353-.572.109-.174.218-.348.333-.522q.693-1.081,1.462-2.112c.169-.234.343-.457.517-.686.133-.174.268-.348.407-.516.4-.508.82-1.01,1.258-1.5.174-.2.357-.4.537-.6q.574-.634,1.183-1.238c.164-.164.328-.328.5-.487.258-.253.517-.5.78-.74.193-.179.388-.353.586-.527.353-.318.716-.621,1.079-.925.184-.149.373-.3.562-.452.816-.647,1.651-1.263,2.516-1.845q.365-.253.745-.492c.2-.129.4-.253.6-.377.149-.095.3-.189.457-.278.224-.14.447-.274.676-.4.284-.169.567-.323.85-.478s.576-.313.865-.458.582-.3.875-.437a.4.4,0,0,0,.049-.025c.517-.248,1.044-.487,1.576-.715.4-.169.8-.333,1.2-.487.263-.109.532-.208.8-.3.234-.09.473-.174.711-.254.119-.045.244-.084.368-.129.263-.085.527-.175.8-.254.313-.1.631-.194.949-.284s.637-.179.96-.263c.284-.07.567-.145.855-.209.214-.049.432-.1.647-.144.094-.025.193-.045.289-.065.163-.03.328-.065.492-.1.289-.055.577-.109.865-.159.209-.035.413-.07.622-.1s.437-.07.656-.1c.567-.079,1.138-.149,1.71-.2a27.183,27.183,0,0,0-5.667-7.7,48.886,48.886,0,0,0-38.289,38.408A27.254,27.254,0,0,0,590.026-1170.684Zm40.913-44.989a35.307,35.307,0,0,1,4.554,8.784,40.818,40.818,0,0,1,4.077.751l.666.164.164.045c.284.074.567.149.85.233a.016.016,0,0,1,.015.005c.273.074.547.154.816.238q.35.1.7.223c.238.08.477.159.715.244s.443.154.666.239.438.164.656.249a38.878,38.878,0,0,1,3.759,1.69c.293.149.581.3.865.457.487.264.964.537,1.436.82.2.12.4.243.6.368.095.055.189.114.284.174.214.134.422.274.631.413s.4.268.6.4a40.437,40.437,0,0,1,6.428,5.473c.229.229.448.467.661.706.179.194.353.393.527.592.284.323.562.651.83.984.169.194.328.393.483.6.213.273.428.547.631.82s.388.522.572.786.378.532.557.8c.363.537.711,1.078,1.049,1.635.174.279.339.557.5.84s.323.567.478.85c.333.617.656,1.243.954,1.875.124.248.239.5.353.755s.224.5.333.756c.1.224.194.448.284.677.084.208.168.417.248.626.2.527.4,1.064.582,1.606.109.313.213.626.308.944a.348.348,0,0,1,.015.04q.142.455.268.91c.249.87.468,1.755.656,2.644.05.224.095.453.139.681l.075.388c.03.174.064.348.09.522q.067.372.119.745c.04.248.079.5.109.756l.045.338c.019.184.044.373.064.562s.04.357.05.537q.045.41.074.821c.025.323.045.646.06.974s.035.691.04,1.034.015.691.015,1.039a40.425,40.425,0,0,1-40.377,40.376c-.348,0-.7,0-1.039-.015s-.691-.02-1.034-.04-.676-.035-1.014-.065h-.045c-.318-.024-.631-.054-.944-.084l-.811-.09c-.169-.02-.333-.045-.5-.065-.239-.03-.478-.065-.711-.1a.289.289,0,0,1-.064-.01c-.239-.035-.478-.074-.711-.115-.2-.035-.4-.069-.6-.109-.293-.055-.587-.109-.875-.174a39.319,39.319,0,0,1-4.629-1.272c-.3-.1-.592-.2-.885-.314s-.572-.209-.859-.323c-.388-.154-.771-.313-1.153-.477-.239-.1-.483-.2-.721-.318-.259-.114-.522-.238-.78-.363-.328-.159-.656-.318-.984-.487-.268-.139-.537-.279-.805-.423-.3-.169-.612-.338-.91-.512-.283-.159-.562-.323-.84-.5,0-.006-.015-.006-.019-.01-.512-.308-1.014-.631-1.507-.964-.04-.024-.08-.054-.114-.079-.269-.179-.533-.363-.8-.552s-.527-.373-.786-.572-.517-.388-.77-.592c-.209-.159-.413-.323-.617-.5-.328-.263-.651-.537-.969-.815-.214-.184-.423-.374-.631-.562,0,0,0-.006,0-.006-.238-.213-.478-.432-.706-.661s-.467-.442-.7-.676c-.447-.442-.884-.9-1.307-1.367-.224-.249-.452-.5-.671-.761q-.634-.723-1.223-1.476c-.238-.308-.477-.617-.711-.935-.139-.184-.274-.367-.4-.556-.044-.06-.089-.12-.134-.184-.163-.229-.328-.462-.482-.7s-.308-.458-.458-.691c-.214-.328-.423-.656-.626-.994q-.492-.8-.939-1.64c-.587-1.069-1.119-2.173-1.605-3.3-.11-.258-.224-.521-.328-.785a.271.271,0,0,1-.015-.04c-.079-.2-.159-.392-.234-.591-.07-.179-.139-.363-.209-.547s-.139-.383-.2-.576c-.1-.273-.194-.547-.284-.825s-.179-.557-.264-.84a.245.245,0,0,1-.024-.085c-.085-.268-.165-.547-.239-.82-.084-.293-.163-.586-.238-.884-.224-.89-.423-1.79-.587-2.7-.054-.3-.1-.606-.154-.914s-.094-.612-.134-.92a35.321,35.321,0,0,1-8.8-4.533,48.817,48.817,0,0,0,48.812,47.962,48.827,48.827,0,0,0,48.827-48.827,48.819,48.819,0,0,0-48.1-48.813" transform="translate(536.636 3926.572)" fill="#fff"/>
    <path id="path432" d="M588.081-1244.425a35.587,35.587,0,0,0-35.584,35.59,35.456,35.456,0,0,0,10.191,24.925,53.7,53.7,0,0,1,1.9-11.349,26.99,26.99,0,0,1-3.644-13.576,27.166,27.166,0,0,1,27.133-27.138,26.971,26.971,0,0,1,13.517,3.609,53.661,53.661,0,0,1,11.339-1.939,35.444,35.444,0,0,0-24.856-10.121Zm34.987,29.042a35.337,35.337,0,0,0-6.687-.636c-.711,0-1.416.02-2.112.065a26.964,26.964,0,0,1,.949,7.119,27.169,27.169,0,0,1-27.138,27.137,26.97,26.97,0,0,1-7.04-.93h0c-.035.666-.054,1.332-.054,2.009a35.15,35.15,0,0,0,.656,6.79,35.67,35.67,0,0,0,6.443.582,35.588,35.588,0,0,0,35.589-35.589,35.951,35.951,0,0,0-.6-6.548" transform="translate(550.468 3940.33)" fill="#fff"/>
  </g>
</svg>
