<svg xmlns="http://www.w3.org/2000/svg" width="108.313" height="111.339" viewBox="0 0 108.313 111.339">
  <g id="clientIcon3" transform="translate(-783 -2711.069)">
    <path id="path332" d="M431.268-771.079c-.072-.043.107-.124.431-.227-.591.171-.861.272-.431.227" transform="translate(446.368 3592.331)" fill="#efc5cd"/>
    <path id="path334" d="M431.7-771.306c.151-.044.319-.091.5-.141h-.011c-.192.051-.353.1-.493.143" transform="translate(446.368 3592.331)" fill="#efc5cd"/>
    <path id="path336" d="M431.792-772.284c.089-.032.192-.067.312-.107a.427.427,0,0,1-.1-.049c-.125.061-.187.111-.208.156" transform="translate(446.368 3592.331)" fill="#efc5cd"/>
    <path id="path338" d="M432.45-772.5c-.124.04-.24.079-.345.115a10.385,10.385,0,0,0,2.6.091c.007-.2-.276-.223-.256-.313a6.483,6.483,0,0,1,.941-.18c.113-.008.227-.019.336-.031l.207.039c.24-.047.507-.071.747-.093a1.139,1.139,0,0,1,.471.115,2.712,2.712,0,0,1-.839.02c.6.015-1,.459-2.585.884-.676-.163-2.063-.172-1.937-.424-.091.031-.16.057-.212.077l-.493-.107a7.242,7.242,0,0,1,1.363-.192Zm2.76-1.3c.459.012.336.147-.063.333A.2.2,0,0,1,435.21-773.807Zm9.711-94.317q0-1.158.005-2.308a21.4,21.4,0,0,0-.084-2.747,9.811,9.811,0,0,0-.583-2.447,8.976,8.976,0,0,0-1.208-2.161,8.77,8.77,0,0,0-3.845-2.889,10.657,10.657,0,0,0-4.641-.539l-2.305.209-.845.084-.633.071-2.379.277a22.315,22.315,0,0,1-5.573-.225c-8.269.8-18.829,1.3-28.156,2.224l.459-.009c-4.96.421-8.719.072-13.561.488.035.163-.716.223-1.076.332-.892-.711-28.448,3.464-30.188,3.136-.731.093-1.535.152-2.309.259a8.61,8.61,0,0,0-5.743,2.571,8.339,8.339,0,0,0-1.765,2.705,10.378,10.378,0,0,0-.708,3.217L339.7-864.8c-.025.347-.053.777-.076.948l-.141,1.369q-.142,1.366-.284,2.72c-.181,1.805-.36,3.589-.536,5.339-.324,3.5-.565,6.873-.592,10.019.315,1.92.58,4.079.951,5.7-.368,1.549.264,1.863.129,3.737-1.653,4.727-1.075,7.531-.472,5.085.113,3.924-.117,7.852-.148,11.336.083,1.617.165,3.224.248,4.857a4.658,4.658,0,0,1-.532,2.839c.133,3.545-.223,2.492-.467,6.2-.56.884.633,9.327.444,10.372l-.064-.608a40.835,40.835,0,0,1-.747,5.689c-.16.883-.319,1.763-.445,2.685-.064.461-.121.932-.165,1.419l-.032.368c-.009.176-.02.353-.031.533-.017.435-.033.877-.051,1.328a16.813,16.813,0,0,0,.085,3.7,8.546,8.546,0,0,0,1.181,3.257,8.6,8.6,0,0,0,5.711,3.917,17.771,17.771,0,0,0,3.825.248h2.937l4.507-.012c5.989-.028,11.872-.081,17.272.011.108-.563-2.381.125-2.508-.621,6.369.1,12.792.8,19.22.892a22.07,22.07,0,0,1,3.105.615c2.053.211,1.213-.268,2.716-.2l.2.509c2.2-.417,3.213.565,5.283.353.109-.2.865-.232,1.6-.216.036.54,2.264-.037,2.157.456l.02-.041a7.168,7.168,0,0,1,1.3.068c.841-.191,8.732-1.671,9.587-1.9l.4.089c1.18-.016,1.685-.417,1-.515l1.456.031-.168.037,1.447.031c.267.047.569.3.157.536a7.781,7.781,0,0,1,2.561-.193c-2.28-.335-5.113-.805-7.5-1.351.98-.185,2.751.1,3.813.043a52.557,52.557,0,0,0,5.907.907c.447-.032.753-.633,1.765-.369.495.417,1.144-.015,1.985.287a11.532,11.532,0,0,1-2.892.1c.167.491,2.384.333,3.159.472.363-.155,2.253.005,3.441-.131-.339.308.177.343.772.4l.324-.084-.313.085a3.983,3.983,0,0,1,.881.153c.8.056,1.313-.133.988-.3.057-.112-.071-.188-.281-.248a22.579,22.579,0,0,0,3.631-.915c-.256-.047-.267-.121-.212-.2.107-.032.159-.076.131-.143.116-.111.2-.212-.157-.257l-.328.131c-3.524-.129,3.095-2.813-.975-2.968,1.763.611-.593.625-2.441.7a4.83,4.83,0,0,0-2.331-.672c-1.151.048-.679.224-.9.379-.639-.137-1.859-.252-1.7-.573-.9.383-1.433-.245-2.511-.113-.948.177.065.167-.608.351-1.424-.04-3.419-.095-4.551-.169-.285-.2-.948-.491-1.109-.8h.875c-.1.119-.016.2.857.161a.53.53,0,0,1-.164-.161h16.12l.537-21.4c.285,2.7.628,5.059,1.225,6.065.025,5.4.559,7.565.728,12.864.613-1.349.571,5.157,1.084,2.565.9-3.491.213-3.7.941-6.663l-.2.083c1.219-13.879,2.065-27.785,2.688-41.868-.255-9.415.4-19.6.5-29.381.023-4.368.02-8.884-.009-13.285" transform="translate(446.368 3592.331)" fill="#fff"/>
    <path id="path340" d="M359.027-832.349l-3.421,8.649h7.265Zm3.883-10.611h.192c9.727,22.3,10.38,23.567,10.38,23.567,1.384,3.075,2.692,3.113,3.46,3.189v.309H363.486v-.309c3.076,0,.769-4.5.769-4.5l-1.229-2.652H355.49c-.769,1.769-.076,7.149,4.536,7.149v.309H348.954v-.309c1.155-.076,3.229-.384,6.189-7.149l7.767-19.607" transform="translate(446.368 3592.331)" fill="#223e73"/>
    <path id="path342" d="M386.747-816.2v.309h-9.612v-.309c1.461-.421,1.5-2.036,1.5-4.036v-19.952c0-1.345-.463-1.884-2.039-2.46v-.308l8.573-1.615v24.335c0,2.115.192,3.652,1.577,4.036" transform="translate(446.368 3592.331)" fill="#223e73"/>
    <path id="path344" d="M388.476-838.654a3.624,3.624,0,0,1,3.652-3.651,3.658,3.658,0,0,1,3.691,3.651A3.659,3.659,0,0,1,392.128-835,3.626,3.626,0,0,1,388.476-838.654ZM397.4-816.2v.309h-9.611v-.309c1.461-.421,1.5-2.075,1.5-4.036v-9.38c0-1.347-.423-1.884-2-2.46v-.308L395.819-834v13.763c0,2.115.192,3.652,1.576,4.036" transform="translate(446.368 3592.331)" fill="#223e73"/>
    <path id="path346" d="M411.5-817.625s-1.461,2.076-5.921,2.076c-4.651,0-6.843-1.307-6.843-1.307v-5.037h.347c.769,3.576,3.96,6,6.5,6,2.731,0,3.345-3.191.424-5.113l-3.883-2.345c-3.615-2.384-4.575-6.189-2.231-8.8,0,0,1.423-1.845,5.805-1.845,4.421,0,6.267,1.077,6.267,1.077V-829h-.345a5.8,5.8,0,0,0-5.921-4.652c-2.5,0-3.691,2.5-.345,4.615l3.883,2.421c3.5,2.115,4.383,6.459,2.268,9" transform="translate(446.368 3592.331)" fill="#223e73"/>
    <path id="path348" d="M424.23-825.274c-3.152.691-3.115,3.036-3.115,4.843,0,0-.037,2.539,1.5,2.539.653,0,1.192-.539,1.615-1.463Zm9.611,6.919c-.537,1.693-2.537,2.807-4.959,2.807,0,0-4.268,0-4.613-3.46-.5,2-2.46,3.46-5.189,3.46-1.461,0-4.807-.655-4.807-3.921,0-3.845,3.113-4.575,9.957-6.189v-2.46c0-4-2.268-6.152-4.921-4.768,0,0-.845.5.463.961a2.481,2.481,0,0,1,1.384,1.461,2.73,2.73,0,0,1-1.5,3.576,2.752,2.752,0,0,1-3.537-1.5,2.779,2.779,0,0,1,.461-2.845,9.131,9.131,0,0,1,2.576-1.961A7.6,7.6,0,0,1,422.77-834c5.035,0,7.841,3.153,7.841,7.689v5.728s0,2.768,1.847,2.692c0,0,.96,0,1.152-.655l.231.192" transform="translate(446.368 3592.331)" fill="#223e73"/>
    <path id="path350" d="M363.894-806.139h.884a.573.573,0,0,0,.4-.144.513.513,0,0,0,.156-.4.545.545,0,0,0-.149-.4.526.526,0,0,0-.391-.151h-.9Zm0-3.028v1.041h.768a.617.617,0,0,0,.407-.129.479.479,0,0,0,.153-.388.49.49,0,0,0-.153-.391.6.6,0,0,0-.407-.133Zm-1.171-.889h2.088a1.786,1.786,0,0,1,1.168.356,1.117,1.117,0,0,1,.435.905,1.124,1.124,0,0,1-.952,1.1,1.2,1.2,0,0,1,.775.4,1.172,1.172,0,0,1,.288.787,1.116,1.116,0,0,1-.421.915,1.826,1.826,0,0,1-1.175.339h-2.205v-4.807" transform="translate(446.368 3592.331)" fill="#223e73"/>
    <path id="path352" d="M373.58-806.659a1.432,1.432,0,0,0,.345-1.008,1.426,1.426,0,0,0-.345-1.005,1.191,1.191,0,0,0-.924-.377,1.194,1.194,0,0,0-.925.377,1.426,1.426,0,0,0-.345,1.005,1.432,1.432,0,0,0,.345,1.008,1.2,1.2,0,0,0,.925.376A1.2,1.2,0,0,0,373.58-806.659Zm-2.671.759a2.361,2.361,0,0,1-.716-1.767,2.353,2.353,0,0,1,.716-1.763,2.418,2.418,0,0,1,1.753-.695,2.394,2.394,0,0,1,1.747.695,2.366,2.366,0,0,1,.708,1.763,2.368,2.368,0,0,1-.712,1.767,2.4,2.4,0,0,1-1.745.7,2.408,2.408,0,0,1-1.751-.7" transform="translate(446.368 3592.331)" fill="#223e73"/>
    <path id="path354" d="M378.987-807.187v-2.869h1.171v2.869a.955.955,0,0,0,.212.664.8.8,0,0,0,.624.233.821.821,0,0,0,.629-.233.933.933,0,0,0,.22-.664v-2.869h1.171v2.869a1.981,1.981,0,0,1-.3,1.1,1.773,1.773,0,0,1-.753.675,2.29,2.29,0,0,1-.989.213,2.028,2.028,0,0,1-1.411-.521,1.878,1.878,0,0,1-.575-1.465" transform="translate(446.368 3592.331)" fill="#223e73"/>
    <path id="path356" d="M386.822-809.167v-.889h3.792v.889H389.3v3.917h-1.172v-3.917h-1.307" transform="translate(446.368 3592.331)" fill="#223e73"/>
    <path id="path358" d="M394.45-805.25v-4.807h1.171v4.807H394.45" transform="translate(446.368 3592.331)" fill="#223e73"/>
    <path id="path360" d="M401.04-808.673a1.426,1.426,0,0,0-.347,1.005,1.433,1.433,0,0,0,.347,1.008,1.2,1.2,0,0,0,.925.376,1.19,1.19,0,0,0,.923-.376,1.427,1.427,0,0,0,.347-1.008,1.42,1.42,0,0,0-.347-1.005,1.187,1.187,0,0,0-.923-.377A1.193,1.193,0,0,0,401.04-808.673Zm.928,3.472a2.4,2.4,0,0,1-1.749-.7,2.361,2.361,0,0,1-.716-1.767,2.352,2.352,0,0,1,.716-1.763,2.415,2.415,0,0,1,1.752-.695,2.4,2.4,0,0,1,1.748.695,2.366,2.366,0,0,1,.708,1.763,2.521,2.521,0,0,1-.243,1.107,2.373,2.373,0,0,1-.668.839l.979,1.26h-1.417l-.581-.795a2.655,2.655,0,0,1-.528.056" transform="translate(446.368 3592.331)" fill="#223e73"/>
    <path id="path362" d="M408.336-807.187v-2.869h1.172v2.869a.955.955,0,0,0,.212.664.8.8,0,0,0,.623.233.822.822,0,0,0,.631-.233.938.938,0,0,0,.219-.664v-2.869h1.171v2.869a1.98,1.98,0,0,1-.3,1.1,1.781,1.781,0,0,1-.753.675,2.3,2.3,0,0,1-.989.213,2.026,2.026,0,0,1-1.411-.521,1.874,1.874,0,0,1-.576-1.465" transform="translate(446.368 3592.331)" fill="#223e73"/>
    <path id="path364" d="M419.41-810.07v.891h-1.739v1.033H419.2v.889h-1.533v1.117h1.739v.889H416.5v-4.82h2.911" transform="translate(446.368 3592.331)" fill="#223e73"/>
  </g>
</svg>
