<svg xmlns="http://www.w3.org/2000/svg" width="128.244" height="91.807" viewBox="0 0 128.244 91.807">
  <g id="clientIcon1" transform="translate(-139 -2708.762)">
    <g id="Group_7" data-name="Group 7" transform="translate(-963.521 1598)">
      <path id="path702" d="M118.128-483.667l.056-.013c.009.069.014.137.019.207C118.186-483.529,118.154-483.6,118.128-483.667Zm37.62-10.093a14.426,14.426,0,0,0-1-5.521,14.815,14.815,0,0,0-2.86-4.532,3.52,3.52,0,0,0-.753-2.852,15.679,15.679,0,0,0-4.577-4.059,7.334,7.334,0,0,0-5.264-1.012,5.136,5.136,0,0,0-1.669-.752,3.456,3.456,0,0,0-1.435-.011c-.537.113-1.069.248-1.605.376-.387.075-.759.147-1.132.217-.059,0-.123,0-.18,0-.9-.009-1.823-.033-2.729,0-.459.019-.892.045-1.358.107a13.2,13.2,0,0,0-1.591.352c.027.005.064.011.1.016-.232.023-.465.045-.693.079a13.756,13.756,0,0,0-3.38.891c-2.352,1.2-4.916,2.7-6.057,4.417-.678,1.153-1.33,2.125-1.886,3.091l-.073.088a3.487,3.487,0,0,0-.4.423c-.005.005-.011.013-.016.017l0,0a2.644,2.644,0,0,0-.367.593,3.976,3.976,0,0,1,.387-.579l.123.093c-.119.229-.229.467-.331.7-.879,1.176-1.549,2.923-2.094,3.3.393.736.656-.435.986-1.421-.161.521-.279,1.111-.421,1.7l-.3,1.805c-.008.067-.019.131-.028.2-.032-.511-.185-.9.2-1.4-.131-.324-.292-.252-.505.091-.17,1.159-.592,3.349-.137,3.483a3.021,3.021,0,0,1-.276.649l.394.575c-.033.085-.054.171-.078.257a2.56,2.56,0,0,0,.151-.224,8.873,8.873,0,0,0,1.047,4.079,2.957,2.957,0,0,0,.374.175c-.087.452-.285-.143-.535-.228.279,1.013.629,1.737,1.077,1.881-.158-.548-.339-1.081-.464-1.631a.623.623,0,0,0,.341.027c.419.456.781.8.776,1,.163.7.277,1.337.381,1.947l0,0a.065.065,0,0,0,0,.009c.086.5.169.987.258,1.455-.044-.009-.089-.02-.13-.032-.3-.651-.806-1.535-.91-1.909a10.427,10.427,0,0,0,.17,1.324l.427.249a.423.423,0,0,1,.042.352.275.275,0,0,0-.029.039.333.333,0,0,1-.117.087c.017.023.039.041.056.063a.914.914,0,0,0-.034.16l.145-.031.377.429c.045.005.059-.025.073-.056a3.584,3.584,0,0,0,.752,2.323c.016,0,.046.008.064.009a8.329,8.329,0,0,0,1.117,1.735,2.694,2.694,0,0,0,1.116.519c.034.029.061.053.1.084a1.65,1.65,0,0,0,.787.072.638.638,0,0,0,.361-.037,6.676,6.676,0,0,0-1.01-1.993c.054.047.1.1.156.145l-.064-.117-.1-.037a9.307,9.307,0,0,1-.94-1.76,11.679,11.679,0,0,0,.08-1.193c.04-.7.974.055,1.261.18a6.6,6.6,0,0,0-.556-2.188,14.346,14.346,0,0,0,1.963,2.151l-.261.225c.706.489.517,1,1.4,1.457l.027.016v0c.058-.5-.329-.824-.622-1.248a14.323,14.323,0,0,0,7.358,3.1l4.191.485a14.652,14.652,0,0,0,2.059.075,8.854,8.854,0,0,1-2.157.781,4.329,4.329,0,0,0,.705,2.213c.521.7,1.523,1.291,3.405,1.3a8.294,8.294,0,0,0,1.7-.228,12.079,12.079,0,0,0,2.776-.159c.22-.191.467-.381.732-.572.256-.212.531-.427.817-.639.585-.409,1.18-.885,1.771-1.357.22-.173.432-.353.643-.533l.4-.112c.217-.316.584-.707.928-1.112l.008-.008c.363-.361.7-.711.968-1.019a15.022,15.022,0,0,0,4.443-6.168c.217-.583.395-1.179.573-1.768.161-.593.255-1.2.368-1.8a17.95,17.95,0,0,0,.173-1.808c.051-.68.035-.985.036-1.547" transform="translate(1030 1623.331)" fill="#fff"/>
      <path id="path704" d="M134.506-474.308c-.324,0-.832-.119-.668-.337l-.488.22,1.456.209c-.245-.268-.695-.481-.639-.833l-.627-.123a2.6,2.6,0,0,1,.965.864" transform="translate(1030 1623.331)" fill="#efc5cd"/>
      <path id="path706" d="M134.766-474.9c.279-.249-.113-.4-.621-.525-.564.155.792-.048.345.4.135.016.235.032.276.123" transform="translate(1030 1623.331)" fill="#efc5cd"/>
      <path id="path708" d="M134.49-475.021a1.667,1.667,0,0,1-.325-.061c0,.013,0,.023,0,.033l.3.06c.013-.013.012-.02.024-.032" transform="translate(1030 1623.331)" fill="#efc5cd"/>
      <path id="path710" d="M130.993-475.246c.016.08.078.168.233.272.02-.076-.1-.171-.233-.272" transform="translate(1030 1623.331)" fill="#efc5cd"/>
      <path id="path712" d="M130.512-476.2c.38.216.582.379.441.6l-.319-.1c-.083.133.158.3.359.445-.059-.315.611-.512-.481-.952" transform="translate(1030 1623.331)" fill="#efc5cd"/>
      <path id="path714" d="M132.489-476.532l-.232.063,1.427.739c-.063-.591-.691-.245-1.195-.8" transform="translate(1030 1623.331)" fill="#efc5cd"/>
      <path id="path716" d="M116.137-485.1l.055-.124-.155-.136c.028.079.055.159.1.26" transform="translate(1030 1623.331)" fill="#efc5cd"/>
      <path id="path718" d="M115.633-486.934a11.484,11.484,0,0,0,.167,1.363c.1.073.16.143.237.213-.287-.836.124-.688-.4-1.576" transform="translate(1030 1623.331)" fill="#efc5cd"/>
      <path id="path720" d="M116.192-485.221a3.008,3.008,0,0,1,.679,1.273,3.552,3.552,0,0,0,.9,1.584,26.868,26.868,0,0,0-1.483-3.071l-.1.213" transform="translate(1030 1623.331)" fill="#efc5cd"/>
      <path id="path722" d="M72.521-437.19v-29.527h7.193v29.527H72.521" transform="translate(1030 1623.331)" fill="#fff"/>
      <path id="path724" d="M87.137-440.176a11.861,11.861,0,0,1-3.26-8.748,11.794,11.794,0,0,1,3.26-8.728,11.415,11.415,0,0,1,8.433-3.26,12.239,12.239,0,0,1,7.277,2.124,10.108,10.108,0,0,1,3.954,6.079H99.02a3.42,3.42,0,0,0-3.3-2.1,3.856,3.856,0,0,0-3.407,1.617,7.393,7.393,0,0,0-1.115,4.271,7.389,7.389,0,0,0,1.115,4.269,3.708,3.708,0,0,0,3.259,1.62,4.054,4.054,0,0,0,2.1-.463,3.9,3.9,0,0,0,1.346-1.641H106.8a10.425,10.425,0,0,1-4,6.013,11.853,11.853,0,0,1-7.234,2.229,11.367,11.367,0,0,1-8.433-3.28" transform="translate(1030 1623.331)" fill="#fff"/>
      <path id="path726" d="M124.508-444.551a6.133,6.133,0,0,0,1.43-4.373,5.949,5.949,0,0,0-1.472-4.353,4.743,4.743,0,0,0-3.492-1.493,4.672,4.672,0,0,0-3.469,1.493,6,6,0,0,0-1.451,4.353,5.969,5.969,0,0,0,1.493,4.373,4.77,4.77,0,0,0,3.512,1.516,4.572,4.572,0,0,0,3.449-1.516Zm-12.219,4.333a11.415,11.415,0,0,1-3.554-8.749,11.25,11.25,0,0,1,3.533-8.685,12.422,12.422,0,0,1,8.749-3.26,12.347,12.347,0,0,1,8.728,3.26,11.284,11.284,0,0,1,3.512,8.685,11.521,11.521,0,0,1-3.491,8.749,12.135,12.135,0,0,1-8.707,3.321,12.356,12.356,0,0,1-8.77-3.321" transform="translate(1030 1623.331)" fill="#fff"/>
      <path id="path728" d="M144.656-460.659v3.448q2.228-3.7,7.108-3.7a8.519,8.519,0,0,1,6.541,2.692,10.335,10.335,0,0,1,2.5,7.319v13.712h-7.149v-12.744a4.855,4.855,0,0,0-1.2-3.513,4.388,4.388,0,0,0-3.3-1.241,4.381,4.381,0,0,0-3.3,1.241,4.849,4.849,0,0,0-1.2,3.513v12.744h-7.193v-23.469h7.193" transform="translate(1030 1623.331)" fill="#fff"/>
      <path id="path730" d="M166.485-437.19v-23.469h7.193v23.469Zm6.561-26.119a4.058,4.058,0,0,1-2.985,1.219,4.059,4.059,0,0,1-2.987-1.219,4.092,4.092,0,0,1-1.22-3.009,4.086,4.086,0,0,1,1.22-3.007,4.06,4.06,0,0,1,2.987-1.22,4.06,4.06,0,0,1,2.985,1.22,4.086,4.086,0,0,1,1.22,3.007,4.093,4.093,0,0,1-1.22,3.009" transform="translate(1030 1623.331)" fill="#fff"/>
      <path id="path732" d="M181.1-440.176a11.861,11.861,0,0,1-3.26-8.748,11.8,11.8,0,0,1,3.26-8.728,11.416,11.416,0,0,1,8.433-3.26,12.236,12.236,0,0,1,7.276,2.124,10.1,10.1,0,0,1,3.955,6.079h-7.781a3.421,3.421,0,0,0-3.3-2.1,3.855,3.855,0,0,0-3.407,1.617,7.391,7.391,0,0,0-1.116,4.271,7.387,7.387,0,0,0,1.116,4.269,3.708,3.708,0,0,0,3.259,1.62,4.056,4.056,0,0,0,2.1-.463,3.9,3.9,0,0,0,1.345-1.641h7.781a10.427,10.427,0,0,1-4,6.013,11.855,11.855,0,0,1-7.235,2.229,11.368,11.368,0,0,1-8.433-3.28" transform="translate(1030 1623.331)" fill="#fff"/>
      <path id="path734" d="M102.787-426.8v5.977h-1.456v-3.373l-1.388,3.373H98.862l-1.387-3.373v3.373H96.019V-426.8h1.669l1.72,4.12,1.711-4.12h1.668" transform="translate(1030 1623.331)" fill="#fff"/>
      <path id="path736" d="M111.583-426.815v1.107h-2.163v1.285h1.907v1.107h-1.907v1.388h2.163v1.107h-3.619v-5.993h3.619" transform="translate(1030 1623.331)" fill="#fff"/>
      <path id="path738" d="M120.624-426.815h1.456v5.993h-1.456l-2.435-3.771v3.771h-1.455v-5.993h1.455l2.435,3.771v-3.771" transform="translate(1030 1623.331)" fill="#fff"/>
      <path id="path740" d="M129.283-425.735a.674.674,0,0,0-.447.145.51.51,0,0,0-.175.417.6.6,0,0,0,.161.437,1.031,1.031,0,0,0,.422.256c.173.061.366.117.579.172a6.257,6.257,0,0,1,.635.195,2.754,2.754,0,0,1,.574.285,1.245,1.245,0,0,1,.421.48,1.592,1.592,0,0,1,.162.745,1.667,1.667,0,0,1-.618,1.3,2.372,2.372,0,0,1-1.625.541,2.546,2.546,0,0,1-1.626-.487,1.648,1.648,0,0,1-.617-1.379h1.549a.673.673,0,0,0,.732.715.7.7,0,0,0,.493-.167.546.546,0,0,0,.179-.42.57.57,0,0,0-.162-.419,1.134,1.134,0,0,0-.421-.255c-.173-.063-.366-.12-.579-.175a5.925,5.925,0,0,1-.635-.2,3.214,3.214,0,0,1-.574-.285,1.209,1.209,0,0,1-.421-.476,1.574,1.574,0,0,1-.161-.737,1.632,1.632,0,0,1,.621-1.337,2.445,2.445,0,0,1,1.588-.5,2.576,2.576,0,0,1,1.562.437,1.667,1.667,0,0,1,.622,1.384h-1.583a.794.794,0,0,0-.209-.5.6.6,0,0,0-.446-.176" transform="translate(1030 1623.331)" fill="#fff"/>
      <path id="path742" d="M143.3-426.8h1.567l-1.668,5.977h-1.669l-1.047-3.789-1.039,3.789H137.77l-1.695-5.977h1.559l1.039,4.3,1.064-4.3h1.652l1.021,4.231.885-4.231" transform="translate(1030 1623.331)" fill="#fff"/>
      <path id="path744" d="M153.08-426.815v1.107h-2.164v1.285h1.908v1.107h-1.908v1.388h2.164v1.107h-3.62v-5.993h3.62" transform="translate(1030 1623.331)" fill="#fff"/>
      <path id="path746" d="M159.916-422.934h1.413l-.707-2.128Zm2.111,2.112-.332-1h-2.145l-.332,1h-1.549l2.077-5.993h1.771l2.069,5.993h-1.559" transform="translate(1030 1623.331)" fill="#fff"/>
      <path id="path748" d="M169.654-425.692v1.44h.9a.7.7,0,0,0,.524-.2.706.706,0,0,0,.192-.516.72.72,0,0,0-.2-.523.684.684,0,0,0-.52-.205Zm0,2.547v2.324H168.2V-426.8h2.357a2.288,2.288,0,0,1,1.617.536,1.7,1.7,0,0,1,.579,1.295,1.865,1.865,0,0,1-.313,1.013,1.731,1.731,0,0,1-1.031.7l1.464,2.435h-1.7l-1.345-2.324h-.171" transform="translate(1030 1623.331)" fill="#fff"/>
    </g>
  </g>
</svg>
