<svg xmlns="http://www.w3.org/2000/svg" width="113.596" height="148.106" viewBox="0 0 113.596 148.106">
  <g id="clientIcon2" transform="translate(-415 -2685.66)">
    <path id="path142" d="M110.717-936.447h1.059v-6.022h1.609v-1H109.1v1h1.613v6.022" transform="translate(305.896 3769.786)" fill="#fff"/>
    <path id="path144" d="M132.04-942.079l1.041,2.385h-2.131Zm-2.313,5.085.782-1.7h3l.736,1.7h1.158l-3.349-7.458-3.472,7.458h1.141" transform="translate(295.108 3770.333)" fill="#fff"/>
    <path id="path146" d="M158.456-942.77a2.561,2.561,0,0,1,2.1,1.15l.754-.723a4.444,4.444,0,0,0-1.341-1.091,3.566,3.566,0,0,0-1.536-.336,3.537,3.537,0,0,0-2.6,1.068,3.518,3.518,0,0,0-1.068,2.591,3.527,3.527,0,0,0,1.05,2.563,3.42,3.42,0,0,0,2.523,1.063,3.178,3.178,0,0,0,2.485-1.1,2.98,2.98,0,0,0,.614-1.054,4.788,4.788,0,0,0,.186-1.4v-.232h-2.9v1h1.75a1.876,1.876,0,0,1-.695,1.273,2.115,2.115,0,0,1-1.4.527,2.51,2.51,0,0,1-1.7-.7,2.486,2.486,0,0,1-.841-1.931,2.567,2.567,0,0,1,.754-1.891,2.514,2.514,0,0,1,1.868-.768" transform="translate(280.608 3769.955)" fill="#fff"/>
    <path id="path148" d="M184.1-943.464v7.017h3.122v-1H185.16v-6.022H184.1" transform="translate(264.367 3769.786)" fill="#fff"/>
    <path id="path150" d="M203.777-943.464v7.017h1.059v-7.017h-1.059" transform="translate(253.471 3769.786)" fill="#fff"/>
    <path id="path152" d="M220.357-937.039h1.059v-4.913l5.118,5.34v-7.444h-1.059v4.877l-5.118-5.354v7.495" transform="translate(244.29 3770.378)" fill="#fff"/>
    <path id="path154" d="M248.394-936.447h3.872v-1h-2.813v-2.346h2.732v-.995h-2.732v-1.686h2.813v-1h-3.872v7.017" transform="translate(228.765 3769.786)" fill="#fff"/>
    <path id="path156" d="M288.135-940.719h-3.027v-2.745H284.05v7.017h1.059v-3.277h3.027v3.277h1.059v-7.017h-1.059v2.745" transform="translate(209.02 3769.786)" fill="#fff"/>
    <path id="path158" d="M313.646-942.469v-1h-3.872v7.017h3.872v-1h-2.813v-2.346h2.732v-.995h-2.732v-1.686h2.813" transform="translate(194.776 3769.786)" fill="#fff"/>
    <path id="path160" d="M333.056-942.469h.377q1.463,0,1.463,1.077,0,1.15-1.5,1.15h-.336Zm0,3.149h.191l2,2.873h1.3l-2.172-2.99a1.908,1.908,0,0,0,1.127-.687,1.992,1.992,0,0,0,.427-1.282,1.921,1.921,0,0,0-.682-1.536,3.1,3.1,0,0,0-2.009-.522H332v7.017h1.059v-2.873" transform="translate(182.47 3769.786)" fill="#fff"/>
    <path id="path162" d="M358.854-942.469v-1h-3.872v7.017h3.872v-1h-2.813v-2.346h2.732v-.995h-2.732v-1.686h2.813" transform="translate(169.742 3769.786)" fill="#fff"/>
    <path id="path164" d="M161.59-1193.475l46.571-46.571v-18.624l-46.571,46.576v18.619" transform="translate(276.832 3944.33)" fill="#fff"/>
    <path id="path166" d="M161.59-1098.339l46.571-46.577v-15.049l-46.571,46.571v15.055" transform="translate(276.832 3889.672)" fill="#fff"/>
    <path id="path168" d="M206.8-1189.784l46.577-46.571V-1252L206.8-1205.428v15.644" transform="translate(251.795 3940.639)" fill="#fff"/>
    <path id="path170" d="M253.38-1161.3,206.8-1114.728v15.65l46.577-46.577V-1161.3" transform="translate(251.795 3890.411)" fill="#fff"/>
    <path id="path172" d="M111.042-977.891a6.18,6.18,0,0,0,2.126,1.352,7.456,7.456,0,0,0,2.712.477,6.57,6.57,0,0,0,2.649-.54,5.106,5.106,0,0,0,2.108-1.73l-1.874-1.333a4.1,4.1,0,0,1-1.36,1.181,3.3,3.3,0,0,1-1.5.369,4.325,4.325,0,0,1-1.793-.36,4.146,4.146,0,0,1-1.378-.991,4.428,4.428,0,0,1-.892-1.5,5.485,5.485,0,0,1-.315-1.892,4.977,4.977,0,0,1,.315-1.784,4.417,4.417,0,0,1,.892-1.451,4.1,4.1,0,0,1,1.378-.973,4.42,4.42,0,0,1,1.793-.352,3.685,3.685,0,0,1,1.325.252,3.81,3.81,0,0,1,1.361,1.009l1.765-1.3a5.608,5.608,0,0,0-2.063-1.559,6.218,6.218,0,0,0-2.406-.459,7.456,7.456,0,0,0-2.712.477,6.122,6.122,0,0,0-2.126,1.361,6.245,6.245,0,0,0-1.4,2.135,7.389,7.389,0,0,0-.5,2.784,7.084,7.084,0,0,0,.5,2.721,6.206,6.206,0,0,0,1.4,2.1" transform="translate(305.876 3795.26)" fill="#fff"/>
    <path id="path174" d="M147.572-984.64a4.414,4.414,0,0,1,.892-1.451,4.105,4.105,0,0,1,1.379-.973,4.414,4.414,0,0,1,1.793-.352,4.484,4.484,0,0,1,1.8.352,4.086,4.086,0,0,1,1.387.973,4.436,4.436,0,0,1,.893,1.451,4.982,4.982,0,0,1,.315,1.784,5.493,5.493,0,0,1-.315,1.892,4.448,4.448,0,0,1-.893,1.5,4.125,4.125,0,0,1-1.387.991,4.39,4.39,0,0,1-1.8.361,4.322,4.322,0,0,1-1.793-.361,4.145,4.145,0,0,1-1.379-.991,4.428,4.428,0,0,1-.892-1.5,5.478,5.478,0,0,1-.316-1.892A4.969,4.969,0,0,1,147.572-984.64Zm-.793,6.748a6.18,6.18,0,0,0,2.127,1.352,7.455,7.455,0,0,0,2.712.477,7.586,7.586,0,0,0,2.739-.513,6.41,6.41,0,0,0,2.144-1.379,6.24,6.24,0,0,0,1.406-2.108,7.086,7.086,0,0,0,.5-2.721,7.323,7.323,0,0,0-.5-2.775,6.2,6.2,0,0,0-1.406-2.127,5.98,5.98,0,0,0-2.144-1.342,7.581,7.581,0,0,0-2.739-.441,7.455,7.455,0,0,0-2.712.477,6.123,6.123,0,0,0-2.127,1.361,6.238,6.238,0,0,0-1.4,2.135,7.38,7.38,0,0,0-.5,2.784,7.074,7.074,0,0,0,.5,2.721,6.2,6.2,0,0,0,1.4,2.1" transform="translate(286.086 3795.261)" fill="#fff"/>
    <path id="path176" d="M191.707-988.742h-3.459v12.758h2.162v-10.6h.036l3.875,10.6h1.586l3.874-10.6h.036v10.6h2.163v-12.758h-3.424l-3.441,8.938-3.406-8.938" transform="translate(262.071 3794.858)" fill="#fff"/>
    <path id="path178" d="M235.866-986.8h1.622a8.572,8.572,0,0,1,.937.054,2.746,2.746,0,0,1,.883.243,1.674,1.674,0,0,1,.649.541,1.6,1.6,0,0,1,.252.946A1.617,1.617,0,0,1,239.93-984a1.719,1.719,0,0,1-.721.541,3.1,3.1,0,0,1-.964.216q-.523.037-1.009.036h-1.37Zm0,5.532h1.622a12.564,12.564,0,0,0,1.937-.144,4.651,4.651,0,0,0,1.631-.55,2.969,2.969,0,0,0,1.117-1.144,3.967,3.967,0,0,0,.415-1.946,3.687,3.687,0,0,0-.387-1.775,3.107,3.107,0,0,0-1.036-1.135,4.379,4.379,0,0,0-1.5-.6,8.585,8.585,0,0,0-1.775-.18H233.6v12.758h2.271v-5.28" transform="translate(236.959 3794.858)" fill="#fff"/>
    <path id="path180" d="M266.636-986.038l1.964,5.19h-3.964ZM263.86-978.9h5.532l1.189,2.919h2.595l-5.5-12.758h-1.964l-5.551,12.758h2.541l1.153-2.919" transform="translate(222.246 3794.858)" fill="#fff"/>
    <path id="path182" d="M300.587-988.742v12.758h2.271v-9.785h.036l6.307,9.785h2.883v-12.758h-2.271v9.478h-.036l-6.181-9.478h-3.01" transform="translate(199.863 3794.858)" fill="#fff"/>
    <path id="path184" d="M341.845-975.984h2.27v-5.46l4.794-7.3h-2.7l-3.172,5.081-3.136-5.081h-2.847l4.794,7.3v5.46" transform="translate(179.671 3794.858)" fill="#fff"/>
  </g>
</svg>
