<svg xmlns="http://www.w3.org/2000/svg" xmlns:xlink="http://www.w3.org/1999/xlink" width="409.899" height="408.758" viewBox="0 0 409.899 408.758">
  <defs>
    <clipPath id="clip-path">
      <path id="path34" d="M172.7-219.863l-20.721-11.962L134.46-221.713l-63.174-36.54,64.243-38.391v49.766a2.252,2.252,0,0,0,.937,2.076l.269.121,5.546,3.188a1.619,1.619,0,0,0,.96.294,2.918,2.918,0,0,0,1.432-.437l62.955-36.346v9.346l-37.809,21.829c-1.5.869-2.186,2.031-2.047,3.167v6.559a2.231,2.231,0,0,0-.011.236,3.5,3.5,0,0,0,2.057,2.873l11.221,6.481h0a9.328,9.328,0,0,0,3.428,1.091l-11.77,6.537" transform="translate(-71.286 296.645)"/>
    </clipPath>
    <radialGradient id="radial-gradient" cx="0.694" cy="14.422" r="3.395" gradientTransform="translate(0.403 0) scale(0.563 1)" gradientUnits="objectBoundingBox">
      <stop offset="0" stop-color="#daeff4"/>
      <stop offset="1" stop-color="#bdd0d5"/>
    </radialGradient>
    <clipPath id="clip-path-2">
      <path id="path110" d="M324.964-143.624l-21.492-.009-38.066-21.977h0l10.381-6.913v-.1l48.236,27.848,38.821-22.413,1.795.622-39.675,22.94m-77.085-32.105-40.027-23.11,38.961-15.619.983.567-5.821,3.361v18.388l16.487,9.519-10.582,6.894m154.314-12.55-.99-1.054,32.885-18.987-.676-.39,2.349,1.02-33.569,19.411" transform="translate(-207.852 214.458)"/>
    </clipPath>
    <radialGradient id="radial-gradient-2" cx="-3.839" cy="16.722" r="3.68" gradientTransform="translate(-2.217 0) scale(0.311 1)" xlink:href="#radial-gradient"/>
    <clipPath id="clip-path-3">
      <path id="path126" d="M206.348-201.593l-5.4-3.117,11.77-6.537a12.075,12.075,0,0,0,1.558.1,10.213,10.213,0,0,0,4.988-1.191L244.826-227.1v9.606l.482.278-38.961,15.619" transform="translate(-200.949 227.097)"/>
    </clipPath>
    <radialGradient id="radial-gradient-3" cx="-9.481" cy="31.227" r="10.222" gradientTransform="translate(-3.225 0) scale(0.575 1)" gradientUnits="objectBoundingBox">
      <stop offset="0" stop-color="#b9dee9"/>
      <stop offset="1" stop-color="#9fbfca"/>
    </radialGradient>
    <clipPath id="clip-path-4">
      <path id="path176" d="M323.419-297.292h0l1.484-.856-1.484.856" transform="translate(-323.419 298.149)"/>
    </clipPath>
    <radialGradient id="radial-gradient-4" cx="-429.612" cy="1263.488" r="304.509" gradientTransform="translate(-155.454 0.004) scale(0.577 1)" gradientUnits="objectBoundingBox">
      <stop offset="0" stop-color="#f279aa"/>
      <stop offset="1" stop-color="#d16a92"/>
    </radialGradient>
    <clipPath id="clip-path-5">
      <path id="path198" d="M397.818-330.989l-7.811-4.509,7.811,4.509h0" transform="translate(-390.007 335.498)"/>
    </clipPath>
    <radialGradient id="radial-gradient-5" cx="-141.78" cy="273.367" r="57.817" gradientTransform="translate(-51.773 0.001) scale(0.577 1)" xlink:href="#radial-gradient-4"/>
    <clipPath id="clip-path-6">
      <path id="path222" d="M505.269-440.714l-34.715-20.042c2.751-4.137,1.536-13.115,7.542-20.873.186-.259.386-.492.581-.729.094-.112.171-.227.269-.339l.061-.066c.155-.168.316-.316.473-.472-.318-1.341-.666-2.807-1.08-4.4a39.619,39.619,0,0,1-.847-4.189l-.01,0,.01,0c-.034-.235-.062-.459-.09-.684-.179.016-.363.025-.552.025a4.885,4.885,0,0,1-1.813-.331c1.471-.634,1.251-1.6,1.251-1.6s-2.9-5.756.812-9.156a1.461,1.461,0,0,1,1.026-.36c5.27,0,21.177,18.747,20.358,18.922a10.165,10.165,0,0,1,.063,1.9c3.707,2.332.6,28.41,3.182,32.172a39.52,39.52,0,0,1,3.48,10.235" transform="translate(-470.554 503.943)"/>
    </clipPath>
    <radialGradient id="radial-gradient-6" cx="87.943" cy="-46.633" r="4.123" gradientTransform="translate(-62.968 0) scale(1.821 1)" gradientUnits="objectBoundingBox">
      <stop offset="0" stop-color="#e4e4e3"/>
      <stop offset="1" stop-color="#c7c6c4"/>
    </radialGradient>
    <clipPath id="clip-path-7">
      <path id="path270" d="M473.338-519.247s-3.187,5.1-.329,16.178c2.319,8.972,2.664,13.937,6.409,14.317s14.96-2.359,13.736-11.7c1.117-.24,3.4-4.514,1.6-7.912s-3.065.315-3.065.315.073-7.405-5.161-10.1-13.188-1.1-13.188-1.1Z" transform="translate(-471.819 519.72)"/>
    </clipPath>
    <linearGradient id="linear-gradient" x1="-15.635" y1="13.111" x2="-15.63" y2="13.111" gradientUnits="objectBoundingBox">
      <stop offset="0" stop-color="#fddebb"/>
      <stop offset="1" stop-color="#f9ad59"/>
    </linearGradient>
    <clipPath id="clip-path-8">
      <path id="path292" d="M477.687-440.872s-.752,1.158-2.346,0-2.194-3.124-3.18-3.856c-.12,2.522-.006,4.285-3.13,4.227s-5.143-.488-6.921-.364.342,7.974,9.481,8.153c5.037-.312,7.18-3.13,7.18-3.13Z" transform="translate(-461.534 444.728)"/>
    </clipPath>
    <linearGradient id="linear-gradient-2" x1="-20.942" y1="28.949" x2="-20.936" y2="28.949" gradientUnits="objectBoundingBox">
      <stop offset="0" stop-color="#f9ad59"/>
      <stop offset="1" stop-color="#fddebb"/>
    </linearGradient>
    <clipPath id="clip-path-9">
      <path id="path308" d="M434.867-452.556s1.68,3.438,2.721,3.832.235,6.122-2.957,4.285S432.942-452.375,434.867-452.556Z" transform="translate(-432.776 452.556)"/>
    </clipPath>
    <linearGradient id="linear-gradient-3" x1="-64.595" y1="41.741" x2="-64.575" y2="41.741" xlink:href="#linear-gradient-2"/>
    <clipPath id="clip-path-10">
      <path id="path564" d="M460.085-141.333l-51.767-17.938,37.555-21.716,8.79,9.373-6.161,3.57,5.8,3.35,4.44-2.574-4.44,2.574,0,6.685,8.506-4.928,10.651,11.356-13.367,10.248" transform="translate(-408.318 180.986)"/>
    </clipPath>
    <radialGradient id="radial-gradient-7" cx="-17.788" cy="14.14" r="6.575" gradientTransform="translate(-6.009 0) scale(0.609 1)" xlink:href="#radial-gradient"/>
    <clipPath id="clip-path-11">
      <path id="path580" d="M407.818-159.564l-1.795-.623,38.36-22.147.99,1.054-37.555,21.716" transform="translate(-406.023 182.334)"/>
    </clipPath>
    <radialGradient id="radial-gradient-8" cx="-31.398" cy="26.723" r="11.45" gradientTransform="translate(-11.431 0) scale(0.579 1)" xlink:href="#radial-gradient-3"/>
    <clipPath id="clip-path-12">
      <path id="path666" d="M160.558-84.588l35.535-44.14,17.677,10.2h0s-11.729,6.4-26.472,20.031-26.74,13.9-26.74,13.9" transform="translate(-160.558 128.728)"/>
    </clipPath>
    <radialGradient id="radial-gradient-9" cx="1.009" cy="3.186" r="5.906" gradientTransform="translate(0.259 0) scale(0.83 1)" xlink:href="#radial-gradient"/>
    <clipPath id="clip-path-13">
      <path id="path686" d="M276.557-156.742,259.03-166.86l10.582-6.894,17.325,10v.1l-10.381,6.913" transform="translate(-259.03 173.754)"/>
    </clipPath>
    <radialGradient id="radial-gradient-10" cx="-20.88" cy="31.273" r="15.324" gradientTransform="translate(-6.769 0) scale(0.61 1)" xlink:href="#radial-gradient-3"/>
    <clipPath id="clip-path-14">
      <path id="path818" d="M511.762-176.036a21.549,21.549,0,0,1-10.006-2.245l-.5-.267c-5.525-2.994-5.525-7.847,0-10.84L540-210.373l4.031,2.183,5.778-3.131v17.851l-28.039,15.189a21.552,21.552,0,0,1-10.006,2.245" transform="translate(-497.117 211.321)"/>
    </clipPath>
    <radialGradient id="radial-gradient-11" cx="-23.971" cy="16.344" r="7.389" gradientTransform="translate(-6.898 0) scale(0.67 1)" gradientUnits="objectBoundingBox">
      <stop offset="0" stop-color="#c8e2eb"/>
      <stop offset="1" stop-color="#acc4cc"/>
    </radialGradient>
    <clipPath id="clip-path-15">
      <path id="path856" d="M168.049-408.5l-.009-.005.593-.333-.584.338" transform="translate(-168.04 408.834)"/>
    </clipPath>
    <radialGradient id="radial-gradient-12" cx="-224.334" cy="4603.759" r="771.54" gradientTransform="translate(52.35 -0.358) scale(0.569 1)" xlink:href="#radial-gradient-6"/>
    <clipPath id="clip-path-16">
      <path id="path890" d="M189.478-503.234s-.107-1.056-2.966,5.285,4.005,26.6,5.634,28.822,22.049,8.479,26.539,1.547c-2.8-1.44-.1-3.51-.647-6.751-8.34,2.919-20.36-2.108-22.91-4.222-4.251-3.524,2.047-15.906-5.651-24.68Z" transform="translate(-185.824 503.3)"/>
    </clipPath>
    <linearGradient id="linear-gradient-4" x1="-4.423" y1="10.121" x2="-4.42" y2="10.121" xlink:href="#linear-gradient-2"/>
    <clipPath id="clip-path-17">
      <path id="path910" d="M164.17-447.692s.228,14.013,12.608,17.06,28.57,7.789,28.57,7.789l6.191,35.463s2.105,2.1,3.759,1.416a2.014,2.014,0,0,0,1.194-2.133s.858-26.238-1.433-37.233c-1.694-8.13-30.438-20.383-30.438-20.383Z" transform="translate(-164.17 447.692)"/>
    </clipPath>
    <linearGradient id="linear-gradient-5" x1="-2.447" y1="5.66" x2="-2.445" y2="5.66" xlink:href="#linear-gradient"/>
    <clipPath id="clip-path-18">
      <path id="path932" d="M148.489-437.11s-1.2,13.965,10.811,18.253,26.851,9.733,26.851,9.733l2.912,35.173a4.109,4.109,0,0,0,3.433,1.608c2.47,0,2.387-1.263,2.387-1.263s2.62-25.437,1.079-36.561-17.448-24.2-17.448-24.2Z" transform="translate(-148.456 437.11)"/>
    </clipPath>
    <linearGradient id="linear-gradient-6" x1="-2.419" y1="5.278" x2="-2.417" y2="5.278" xlink:href="#linear-gradient"/>
    <clipPath id="clip-path-19">
      <path id="path954" d="M184.62-530.352s3.187,5.1.331,16.178c-2.321,8.974-2.664,13.937-6.409,14.317s-14.96-2.359-13.737-11.7c-1.116-.24-3.4-4.513-1.6-7.912s3.065.316,3.065.316-.072-7.405,5.162-10.1S184.62-530.352,184.62-530.352Z" transform="translate(-162.537 530.825)"/>
    </clipPath>
    <linearGradient id="linear-gradient-7" x1="-5.386" y1="13.392" x2="-5.382" y2="13.392" xlink:href="#linear-gradient"/>
    <clipPath id="clip-path-20">
      <path id="path976" d="M228.207-463.662s-1.681,3.438-2.722,3.833-.235,6.121,2.958,4.284S230.132-463.479,228.207-463.662Z" transform="translate(-225.057 463.662)"/>
    </clipPath>
    <linearGradient id="linear-gradient-8" x1="-33.585" y1="42.765" x2="-33.565" y2="42.765" xlink:href="#linear-gradient-2"/>
    <clipPath id="clip-path-21">
      <path id="path992" d="M189.311-459.977c-1.777-.124-3.8.308-6.921.365s-3.01-1.706-3.129-4.227c-.987.732-1.586,2.7-3.181,3.855s-2.346,0-2.346,0l-.337.252c-11.311-2-19.3-4.8-21.1-7.493-1.836-2.756,3.206-11.083,3.64-18.6,0,0,1.006-9.429-5.046-6s-8.077,27.593-8.077,30.349,20.289,6.58,30.9,7.55a14.6,14.6,0,0,0,6.112,2.1c9.14-.177,11.259-8.03,9.481-8.153Z" transform="translate(-142.82 492.578)"/>
    </clipPath>
    <linearGradient id="linear-gradient-9" x1="-2.373" y1="9.453" x2="-2.371" y2="9.453" xlink:href="#linear-gradient-2"/>
  </defs>
  <g id="Group_28" data-name="Group 28" transform="translate(-768 -363.016)">
    <circle id="Ellipse_5" data-name="Ellipse 5" cx="187" cy="187" r="187" transform="translate(787 387)" fill="#2957ae"/>
    <g id="_2085404" data-name="2085404" transform="translate(696.714 957.665)">
      <g id="g12" transform="translate(71.286 -594.649)">
        <g id="g30" transform="translate(0 233.073)">
          <g id="g32" clip-path="url(#clip-path)">
            <path id="path44" d="M172.7-219.863l-20.721-11.962L134.46-221.713l-63.174-36.54,64.243-38.391v49.766a2.252,2.252,0,0,0,.937,2.076l.269.121,5.546,3.188a1.619,1.619,0,0,0,.96.294,2.918,2.918,0,0,0,1.432-.437l62.955-36.346v9.346l-37.809,21.829c-1.5.869-2.186,2.031-2.047,3.167v6.559a2.231,2.231,0,0,0-.011.236,3.5,3.5,0,0,0,2.057,2.873l11.221,6.481h0a9.328,9.328,0,0,0,3.428,1.091l-11.77,6.537" transform="translate(-71.286 296.645)" fill="url(#radial-gradient)"/>
          </g>
        </g>
        <path id="path46" d="M307.72-279.845h0v-6.7l-4.816,2.423-8.455-4.886a11.032,11.032,0,0,0-9.976,0l-84.989,49.071-4.84-2.361v6.623c-.108,1.118.568,2.256,2.046,3.109l11.221,6.481a11.034,11.034,0,0,0,9.973,0l87.781-50.684c1.462-.845,2.141-1.967,2.049-3.073" transform="translate(-98.163 528.314)" fill="#76c5ef"/>
        <path id="path48" d="M199.488-228.072l-4.84-2.361v6.623c-.108,1.118.568,2.256,2.046,3.109l11.221,6.481a10.174,10.174,0,0,0,4.848,1.183v-22.7l-13.276,7.665" transform="translate(-98.163 516.447)" fill="#449fd1"/>
        <path id="path50" d="M207.914-235.139a11.021,11.021,0,0,0,9.973,0l87.781-50.682c2.754-1.593,2.754-4.169,0-5.757l-11.218-6.479a11.025,11.025,0,0,0-9.976,0l-87.782,50.681c-2.753,1.59-2.753,4.168,0,5.758l11.221,6.477" transform="translate(-98.161 530.285)" fill="#a4e2f9"/>
        <path id="path52" d="M243.907-255.68l-6.119-3.463v-31.307l39.477-22.79-33.358,57.56" transform="translate(-107.565 533.334)" fill="#449fd1"/>
        <path id="path54" d="M285.087-277.506l-39.476,22.791v-31.307l39.476-22.79v31.306" transform="translate(-109.269 532.369)" fill="#57b2e7"/>
        <path id="path56" d="M330.023-521.226l-5.744-3.276a1.477,1.477,0,0,0-.391-.223l0,0a2.413,2.413,0,0,0-2.049.329l-165.2,95.381a7.09,7.09,0,0,0-3.206,5.555V-296.6a2.252,2.252,0,0,0,.937,2.076l.269.121,5.713,3.284,1.188-6.182-1.7.709,162.006-93.535a7.09,7.09,0,0,0,3.211-5.557V-517.767l4.977-3.459" transform="translate(-89.183 579.438)" fill="#57b2e7"/>
        <path id="path58" d="M324.609-524.5a1.48,1.48,0,0,0-.391-.223l0,0a2.414,2.414,0,0,0-2.049.328l-165.2,95.381A6.336,6.336,0,0,0,154.944-427L265.38-357.339l56.785-32.786a7.09,7.09,0,0,0,3.211-5.557V-517.767l4.977-3.459-5.744-3.276" transform="translate(-89.514 579.438)" fill="#a4e2f9"/>
        <path id="path60" d="M332.636-391.348a7.093,7.093,0,0,1-3.206,5.557L164.225-290.412c-1.772,1.02-3.206.194-3.206-1.851V-419.129a7.087,7.087,0,0,1,3.206-5.556l165.206-95.379c1.77-1.024,3.206-.194,3.206,1.85v126.866" transform="translate(-90.838 578.494)" fill="#76c5ef"/>
        <path id="path62" d="M330.388-399.063,165-303.577v-114.2l165.388-95.485v114.2" transform="translate(-91.705 576.916)" fill="#ebf9fe"/>
        <path id="path64" d="M328.768-512.327v112.005L165-305.772v2.2l165.388-95.486v-114.2l-1.619.934" transform="translate(-91.705 576.916)" fill="#fff"/>
        <path id="path66" d="M338.31-478.438l-65.927,38.063v-3.778l65.927-38.063v3.778" transform="translate(-115.103 570.151)" fill="#cfeef6"/>
        <path id="path68" d="M327.995-469.811l-102.954,59.44v-3.777l102.954-59.44v3.777" transform="translate(-104.787 568.271)" fill="#cfeef6"/>
        <path id="path70" d="M327.995-461.184l-102.954,59.44v-3.777l102.954-59.44v3.777" transform="translate(-104.787 566.392)" fill="#cfeef6"/>
        <path id="path72" d="M327.995-452.558l-102.954,59.44v-3.776l102.954-59.441v3.777" transform="translate(-104.787 564.512)" fill="#cfeef6"/>
        <path id="path74" d="M327.995-443.93,225.041-384.491v-3.776l102.954-59.44v3.777" transform="translate(-104.787 562.632)" fill="#cfeef6"/>
        <path id="path76" d="M327.995-435.3l-102.954,59.44v-3.777l102.954-59.44v3.777" transform="translate(-104.787 560.753)" fill="#cfeef6"/>
        <path id="path78" d="M338.31-418.05l-65.927,38.063v-3.777l65.927-38.063v3.777" transform="translate(-115.103 556.993)" fill="#cfeef6"/>
        <path id="path80" d="M327.995-409.422,225.041-349.983v-3.776L327.995-413.2v3.778" transform="translate(-104.787 555.114)" fill="#cfeef6"/>
        <path id="path82" d="M327.995-400.8l-102.954,59.44v-3.776l102.954-59.441v3.777" transform="translate(-104.787 553.234)" fill="#cfeef6"/>
        <path id="path84" d="M327.995-392.169l-102.954,59.44v-3.778l102.954-59.439v3.777" transform="translate(-104.787 551.354)" fill="#cfeef6"/>
        <path id="path86" d="M327.995-383.542,225.041-324.1v-3.778L327.995-387.32v3.778" transform="translate(-104.787 549.475)" fill="#cfeef6"/>
        <path id="path88" d="M274.411-335.359l-49.37,28.5v-3.78l49.37-28.5v3.779" transform="translate(-104.787 538.976)" fill="#cfeef6"/>
        <path id="path90" d="M531.222-280.481l-88.582-51.142L425.518-452.3l17.123-9.785,88.582,51.143v130.463" transform="translate(-148.469 565.766)" fill="#244485"/>
        <path id="path92" d="M526.92-281.4l-14.86,7.591L426.01-446.528l16.347-9.341,84.563,48.823V-281.4" transform="translate(-148.576 564.411)" fill="#fff"/>
        <path id="path94" d="M514.1-267.969l-88.582-51.143V-449.576L514.1-398.434v130.464" transform="translate(-148.469 563.04)" fill="#3656a6"/>
        <path id="path96" d="M505.7-265.718,417.117-316.86,399.994-437.538l17.123-9.786L505.7-396.182v130.463" transform="translate(-142.907 562.549)" fill="#4090cc"/>
        <path id="path98" d="M501.4-266.635l-14.86,7.592L400.488-431.765l16.347-9.342L501.4-392.283v125.649" transform="translate(-143.015 561.194)" fill="#fff"/>
        <path id="path100" d="M488.576-253.206l-88.582-51.143V-434.812l88.582,51.143v130.463" transform="translate(-142.907 559.823)" fill="#76c5ef"/>
        <path id="path102" d="M432.776-333.7l-32.782-18.926v-82.184l39.967,23.074c-3.693,3.517-6.758,7.365-7.648,11-2.662,10.91-1.705,36.191-1.705,36.191s.046.08.111.188c-1.32,1.014-6.037,4.69-7.18,6.346a1.872,1.872,0,0,0-.242.5l0,0a1.4,1.4,0,0,0,.7,1.672l.252.126.132.062.242.079.214.059.245.044c.09.016.181.029.276.038l.254.016c.067,0,.135,0,.2,0,.043,0,.086,0,.128,0l.271-.01c.122-.008.248-.022.377-.039.094-.011.188-.023.285-.041.139-.022.279-.053.424-.086.1-.022.193-.043.3-.068.152-.04.314-.091.474-.142.1-.032.2-.062.3-.1.179-.063.365-.14.552-.215l.271-.111c.284-.123.573-.262.87-.419,4.962-2.619,6.019-3.308,6.984-3.859a1.6,1.6,0,0,0,.389-.309l.07-.077a1.186,1.186,0,0,0,.205-.367l0-.022a1.693,1.693,0,0,0,.067-.437l0-.093a5.37,5.37,0,0,0-.039-.629c.13-.054.218-.1.218-.1l4.178-37.006s5.651,9.282,10.391,9.282a3.313,3.313,0,0,0,1.258-.242c-1.043,1.29-1.661,1.61-2.043,1.61a.638.638,0,0,1-.415-.155c-.1-.078-.156-.156-.2-.156-.1,0-.145.346-.341,1.764-1.54,11.124-1.568,35.326-1.568,35.326s.066.071.165.167c-1.614,1.249-5.825,4.575-6.894,6.124a1.8,1.8,0,0,0-.244.506v0a1.391,1.391,0,0,0,.7,1.669l.252.126.135.064.233.075L432.775-333.7m24.045-21.53c1.269-11.287,4.563-43.874,4.563-43.874l.255-.115,26.937,15.552L456.82-355.233" transform="translate(-142.907 559.823)" fill="#5daae2"/>
        <path id="path104" d="M426.8-433.332l-7.534-4.257V-453.62l3.767,5.35,3.768-2.479v17.417" transform="translate(-147.106 563.921)" fill="#eb2762"/>
        <g id="g106" transform="translate(106.81 297.352)">
          <g id="g108" clip-path="url(#clip-path-2)">
            <path id="path120" d="M324.964-143.624l-21.492-.009-38.066-21.977h0l10.381-6.913v-.1l48.236,27.848,38.821-22.413,1.795.622-39.675,22.94m-77.085-32.105-40.027-23.11,38.961-15.619.983.567-5.821,3.361v18.388l16.487,9.519-10.582,6.894m154.314-12.55-.99-1.054,32.885-18.987-.676-.39,2.349,1.02-33.569,19.411" transform="translate(-207.852 214.458)" fill="url(#radial-gradient-2)"/>
          </g>
        </g>
        <g id="g122" transform="translate(101.411 287.467)">
          <g id="g124" clip-path="url(#clip-path-3)">
            <path id="path136" d="M206.348-201.593l-5.4-3.117,11.77-6.537a12.075,12.075,0,0,0,1.558.1,10.213,10.213,0,0,0,4.988-1.191L244.826-227.1v9.606l.482.278-38.961,15.619" transform="translate(-200.949 227.097)" fill="url(#radial-gradient-3)"/>
          </g>
        </g>
        <path id="path138" d="M217.556-211.7a12.075,12.075,0,0,1-1.558-.1l.009-.005a12.2,12.2,0,0,0,1.411.1v-.881l30.687-17.044v1.983L222.544-212.89a10.214,10.214,0,0,1-4.988,1.191" transform="translate(-102.817 515.117)" fill="#66b4e7"/>
        <path id="path140" d="M217.421-206.96a12.212,12.212,0,0,1-1.411-.1l1.411-.784v.881" transform="translate(-102.82 510.368)" fill="#3e91c7"/>
        <path id="path142" d="M333.529-156.259l-82.049-47.37v-18.388l110.07-45.16,82.044,47.37L333.529-156.259" transform="translate(-110.548 523.297)" fill="#244485"/>
        <path id="path144" d="M362.688-274.734,256.7-225.556v16.726l77.968,45.015,110.066-63.549-82.044-47.37" transform="translate(-111.685 524.944)" fill="#e8e7e6"/>
        <path id="path146" d="M362.688-280.2l-17.573,8.155v52.659H256.7v5.09l77.968,45.015,110.066-63.55L362.688-280.2" transform="translate(-111.685 526.134)" fill="#f7f7f7"/>
        <path id="path148" d="M362.688-285.209l-17.573,8.154v56.578H256.7v1.172l77.968,45.015,110.066-63.549-82.044-47.37" transform="translate(-111.685 527.226)" fill="#fff"/>
        <path id="path150" d="M333.529-179.77l-82.049-47.37,110.07-63.548L443.6-243.32,333.529-179.77" transform="translate(-110.548 528.42)" fill="#3656a6"/>
        <path id="path152" d="M335-186.627,257.05-231.634V-249.1L361.625-292.01l77.95,45L335-186.627" transform="translate(-111.762 528.708)" fill="#4090cc"/>
        <path id="path154" d="M362.705-299.19,262-252.467v15.891l74.078,42.768,104.572-60.377-77.95-45.006" transform="translate(-112.841 530.272)" fill="#e8e7e6"/>
        <path id="path156" d="M362.705-304.382l-16.694,7.747V-246.6H262v4.836L336.083-199l104.572-60.377-77.95-45" transform="translate(-112.841 531.404)" fill="#f7f7f7"/>
        <path id="path158" d="M362.705-309.142l-16.694,7.747v53.754H262v1.115l74.078,42.767,104.572-60.377L362.7-309.142" transform="translate(-112.841 532.441)" fill="#fff"/>
        <path id="path160" d="M335-208.966l-77.953-45,104.575-60.377,77.95,45L335-208.966" transform="translate(-111.762 533.575)" fill="#76c5ef"/>
        <path id="path162" d="M336.712-213.414,262.2-256.435v-16.7l99.961-41.012,74.512,43.018-99.959,57.712" transform="translate(-112.883 533.531)" fill="#eb2762"/>
        <path id="path164" d="M363.192-321.01l-96.255,44.662v15.191l70.808,40.881L437.7-277.991,363.192-321.01" transform="translate(-113.916 535.026)" fill="#e8e7e6"/>
        <path id="path166" d="M363.192-325.973l-15.958,7.405v47.823h-80.3v4.622l70.808,40.881L437.7-282.954l-74.512-43.018" transform="translate(-113.916 536.108)" fill="#f7f7f7"/>
        <path id="path168" d="M363.192-330.523l-15.958,7.406v51.382h-80.3v1.065l70.808,40.88L437.7-287.5l-74.512-43.02" transform="translate(-113.916 537.099)" fill="#fff"/>
        <path id="path170" d="M336.712-234.766,262.2-277.785,362.159-335.5l74.512,43.018-99.959,57.713" transform="translate(-112.883 538.183)" fill="#f25282"/>
        <g id="g172" transform="translate(197.197 231.897)">
          <g id="g174" clip-path="url(#clip-path-4)">
            <path id="path186" d="M323.419-297.292h0l1.484-.856-1.484.856" transform="translate(-323.419 298.149)" fill="url(#radial-gradient-4)"/>
          </g>
        </g>
        <path id="path188" d="M296.085-284.711h0l21.379-12.343h0l-21.379,12.343" transform="translate(-120.267 529.807)" fill="#8a76ad"/>
        <path id="path190" d="M262.2-265.97l26.5-15.3h0l-26.5,15.3" transform="translate(-112.883 526.368)" fill="#385f9e"/>
        <path id="path192" d="M321.363-235.49,262.2-269.647l26.5-15.3,21.379-12.343,1.484-.856h0l-4.741,2.737,8.218-.73,55.684,32.152-49.363,28.5" transform="translate(-112.883 530.045)" fill="#ef2954"/>
        <g id="g194" transform="translate(249.276 202.685)">
          <g id="g196" clip-path="url(#clip-path-5)">
            <path id="path208" d="M397.818-330.989l-7.811-4.509,7.811,4.509h0" transform="translate(-390.007 335.498)" fill="url(#radial-gradient-5)"/>
          </g>
        </g>
        <path id="path210" d="M441.907-305.534h0" transform="translate(-152.04 531.655)" fill="#4f6aae"/>
        <path id="path212" d="M432.775-310.807l-32.781-18.926h0l32.782,18.926h0" transform="translate(-142.907 536.927)" fill="#3f5b9e"/>
        <path id="path214" d="M328.794-304.279l-3.478-2.007,50.6-29.211,7.811,4.509L416.5-312.063h0l-87.709,7.784" transform="translate(-126.636 538.183)" fill="#ef2954"/>
        <path id="path216" d="M319.255-295.411,324-298.149l3.478,2.007-8.218.73" transform="translate(-125.315 530.045)" fill="#e01c39"/>
        <g id="g218" transform="translate(312.272 70.943)">
          <g id="g220" clip-path="url(#clip-path-6)">
            <path id="path232" d="M505.269-440.714l-34.715-20.042c2.751-4.137,1.536-13.115,7.542-20.873.186-.259.386-.492.581-.729.094-.112.171-.227.269-.339l.061-.066c.155-.168.316-.316.473-.472-.318-1.341-.666-2.807-1.08-4.4a39.619,39.619,0,0,1-.847-4.189l-.01,0,.01,0c-.034-.235-.062-.459-.09-.684-.179.016-.363.025-.552.025a4.885,4.885,0,0,1-1.813-.331c1.471-.634,1.251-1.6,1.251-1.6s-2.9-5.756.812-9.156a1.461,1.461,0,0,1,1.026-.36c5.27,0,21.177,18.747,20.358,18.922a10.165,10.165,0,0,1,.063,1.9c3.707,2.332.6,28.41,3.182,32.172a39.52,39.52,0,0,1,3.48,10.235" transform="translate(-470.554 503.943)" fill="url(#radial-gradient-6)"/>
          </g>
        </g>
        <path id="path234" d="M499.474-425.276l-38.625-22.3c1.081-.766,1.94-1.465,2.51-1.937a5.17,5.17,0,0,0,1-1.125L499.072-430.6a23.922,23.922,0,0,1,.4,5.32m-57.247-28.871-.113-3.36,1.382,2.635-1.269.725" transform="translate(-152.085 564.768)" fill="#233d73"/>
        <path id="path236" d="M493.062-413.661l-50.571-29.2-.377-9.643.15.2-.037-1.115,1.269-.725,6.187,11.792,5.36-1.249a29.135,29.135,0,0,0,5.806-3.246l38.625,22.3c-.2,4.236-1.82,8.349-6.411,10.881" transform="translate(-152.085 564.033)" fill="#e4e4e3"/>
        <path id="path238" d="M489.681-408.96,441.236-436.93a1.7,1.7,0,0,1,1.14-.836l-.076-1.949,50.571,29.2-.081.045c-.513.278-1.631.82-3.109,1.513" transform="translate(-151.894 560.891)" fill="#304e93"/>
        <path id="path240" d="M484.523-405.92l-35.18-20.312-.269-1.983c-.092-.03-1.924-.172-3.717-.318l-5.233-3.021a6.647,6.647,0,0,1,.848-4.6l48.445,27.969c-1.384.65-3.084,1.435-4.894,2.264" transform="translate(-151.629 560.115)" fill="#377eb5"/>
        <path id="path242" d="M470.389-398.233l-21.678-12.516c.368-.351.744-.7,1.122-1.043l.312-7.444-.774-5.716,35.18,20.312c-5.8,2.657-12.756,5.776-14.162,6.406m-25-29.019c-1.71-.14-3.385-.284-3.481-.339a3.758,3.758,0,0,1-1.752-2.682l5.233,3.021" transform="translate(-151.657 558.834)" fill="#e4e4e3"/>
        <path id="path244" d="M456.943-321.032c-.08,0-.16,0-.239-.005l-.254-.014c-.1-.01-.188-.023-.278-.039l-.245-.045-.214-.059-.007,0,13.253-11.867c-.264,2.337-.439,3.762-.482,3.794a.643.643,0,0,1,.255.393,11.6,11.6,0,0,1,.142,1.452l0,.092a1.834,1.834,0,0,1-.067.438l-.006.021a1.2,1.2,0,0,1-.2.368l-.07.077a1.643,1.643,0,0,1-.391.308c-.966.553-2.02,1.241-6.982,3.86-.3.156-.589.3-.872.421l-.271.107c-.187.078-.37.153-.552.216-.1.038-.2.066-.3.1-.162.051-.32.1-.472.143-.1.026-.2.045-.3.069-.143.031-.286.062-.424.083-.1.019-.189.029-.283.041-.13.019-.257.031-.379.04l-.269.011h-.092" transform="translate(-155.046 537.653)" fill="#60afe4"/>
        <path id="path246" d="M450.039-336.938l-.233-.075-.134-.064-.252-.126a1.391,1.391,0,0,1-.7-1.669v0a1.8,1.8,0,0,1,.244-.506c1.069-1.55,5.28-4.875,6.894-6.124-.1-.1-.165-.167-.165-.167s.028-24.2,1.568-35.326c.2-1.418.24-1.764.341-1.764.047,0,.107.078.2.156a.638.638,0,0,0,.415.155c.382,0,1-.32,2.043-1.61a3.313,3.313,0,0,1-1.258.242c-4.74,0-10.391-9.282-10.391-9.282L444.437-356.1s-.088.042-.218.1a5.352,5.352,0,0,1,.039.629l0,.093a1.692,1.692,0,0,1-.067.437l0,.022a1.184,1.184,0,0,1-.205.367l-.07.077a1.6,1.6,0,0,1-.389.309c-.965.552-2.022,1.241-6.984,3.859-.3.157-.586.3-.87.419l-.271.11c-.187.075-.372.152-.552.215-.1.035-.2.065-.3.1-.161.051-.322.1-.474.142-.1.025-.2.046-.3.068-.145.032-.286.064-.424.085-.1.018-.191.029-.285.041-.128.017-.254.03-.376.039l-.271.01c-.043,0-.085,0-.128,0-.068,0-.136,0-.2,0l-.254-.016c-.095-.008-.187-.022-.276-.038l-.245-.044-.214-.059-.242-.079-.132-.062-.252-.126a1.4,1.4,0,0,1-.7-1.672l0,0a1.872,1.872,0,0,1,.242-.5c1.143-1.656,5.86-5.332,7.18-6.346-.065-.107-.111-.188-.111-.188s-.957-25.281,1.705-36.191c.89-3.634,3.955-7.482,7.648-11l21.678,12.516-.255.115s-3.294,32.587-4.563,43.874l-13.253,11.867" transform="translate(-149.379 553.394)" fill="#4e96d4"/>
        <path id="path248" d="M465.9-492.129s.108-1.057,2.966,5.284-4,26.6-5.633,28.823-22.05,8.478-26.54,1.546c2.8-1.439.1-3.51.647-6.75,8.34,2.919,16.621-3.723,19.171-5.838,4.252-3.523,1.69-14.291,9.389-23.065" transform="translate(-150.904 572.326)" fill="#cceefa"/>
        <path id="path250" d="M430.3-360.413s-6.2,4.686-7.533,6.617,1.562,4,6.523,1.378,6.019-3.308,6.985-3.858.78-1.333.6-2.757-6.571-1.379-6.571-1.379" transform="translate(-147.798 543.612)" fill="#fff"/>
        <path id="path252" d="M436.274-356.528c-.966.551-2.023,1.24-6.985,3.858-3.729,1.968-6.287,1.29-6.766.014-.558,1.75,2.237,3.264,6.766.874,4.962-2.618,6.019-3.308,6.985-3.858.737-.422.8-.979.708-1.854a1.288,1.288,0,0,1-.708.967" transform="translate(-147.801 542.976)" fill="#454547"/>
        <path id="path254" d="M485.4-436.668s-.227,14.013-12.607,17.06-25.463,9.353-25.463,9.353L439.2-374.985a6.4,6.4,0,0,1-3.493.559,5.325,5.325,0,0,1-3.864-2.582s-.957-25.281,1.705-36.191S458.5-436.958,458.5-436.958l26.9.29" transform="translate(-149.811 560.29)" fill="#1f2f58"/>
        <path id="path256" d="M454.528-344.807s-6.2,4.686-7.534,6.616,1.561,4,6.524,1.379,6.017-3.308,6.983-3.859.782-1.333.6-2.756-6.569-1.379-6.569-1.379" transform="translate(-153.077 540.212)" fill="#fff"/>
        <path id="path258" d="M460.5-340.923c-.966.551-2.021,1.24-6.983,3.858-3.729,1.967-6.289,1.289-6.768.013-.558,1.749,2.239,3.265,6.768.874,4.962-2.619,6.017-3.308,6.983-3.859.737-.422.8-.978.71-1.853a1.285,1.285,0,0,1-.71.967" transform="translate(-153.08 539.576)" fill="#454547"/>
        <path id="path260" d="M502.41-426s1.2,13.964-10.811,18.253-24.38,11.89-24.38,11.89l-4.5,34.021a5.013,5.013,0,0,1-3.607,1.333,5.4,5.4,0,0,1-3.894-1.668s-2.786-25.751-1.247-36.875,18.42-24.214,18.42-24.214L502.41-426" transform="translate(-154.566 557.904)" fill="#223e73"/>
        <path id="path262" d="M463.73-448.816s-1.337-41.866,11.436-46.757,24.472,6.747,29.464,18.019,3.677,30.892,0,38.179c-17.519,12.058-41.4-3.653-40.9-9.442" transform="translate(-156.786 573.312)" fill="#ebf9fe"/>
        <path id="path264" d="M507.49-477.554c-4.992-11.272-16.692-22.909-29.464-18.019a7.477,7.477,0,0,0-1.21.6c9.4,1.194,17.4,10.225,21.3,19.032,4.99,11.272,3.674,30.893,0,38.18a24.794,24.794,0,0,1-5.409,2.807,25.459,25.459,0,0,0,14.78-4.424c3.677-7.287,4.991-26.908,0-38.179" transform="translate(-159.646 573.312)" fill="#fff"/>
        <g id="g266" transform="translate(313.262 58.603)">
          <g id="g268" clip-path="url(#clip-path-7)">
            <path id="path280" d="M473.338-519.247s-3.187,5.1-.329,16.178c2.319,8.972,2.664,13.937,6.409,14.317s14.96-2.359,13.736-11.7c1.117-.24,3.4-4.514,1.6-7.912s-3.065.315-3.065.315.073-7.405-5.161-10.1-13.188-1.1-13.188-1.1" transform="translate(-471.819 519.72)" fill="url(#linear-gradient)"/>
          </g>
        </g>
        <path id="path282" d="M484.338-511.645c-.02-.429-4,5.245-10.385,3.412a3.932,3.932,0,0,0,2.705-2.213,5.649,5.649,0,0,1-5.813,1.89,8.448,8.448,0,0,0,2.323-1.345,6.332,6.332,0,0,1-4.768.353c1.47-.635,1.25-1.6,1.25-1.6s-1.3,1.3-3.829-.9c1.029-.131.927-4.852,4.642-8.252s6.731-4.191,11.71-3.353a4.6,4.6,0,0,0-4.267-1.685c1.988-1.11,6.19.88,7.432,2.718,3.864-1.483,11.146,1.089,8.742,15.169-.039-.354-.371-2.644-1.735-3.077s-2.515,2.251-2.2,2.93a30.406,30.406,0,0,1,.458,4.7l-1.763.925s.547-3.492-.711-4.544-3.546.25-3.786-5.115" transform="translate(-157.25 579.619)" fill="#1f2f58"/>
        <path id="path284" d="M434.868-467.378l7.569,10.154,24.448-5.7-1.4,31.6-22.237-.27-7.323-8.911-1.053-26.874" transform="translate(-150.506 566.918)" fill="#fff"/>
        <path id="path286" d="M434.868-472.84l7.569,14.426.807,25.631-7.323-8.911-1.053-31.147" transform="translate(-150.506 568.109)" fill="#ebf9fe"/>
        <g id="g288" transform="translate(305.217 117.255)">
          <g id="g290" clip-path="url(#clip-path-8)">
            <path id="path302" d="M477.687-440.872s-.752,1.158-2.346,0-2.194-3.124-3.18-3.856c-.12,2.522-.006,4.285-3.13,4.227s-5.143-.488-6.921-.364.342,7.974,9.481,8.153c5.037-.312,7.18-3.13,7.18-3.13l-1.083-5.029" transform="translate(-461.534 444.728)" fill="url(#linear-gradient-2)"/>
          </g>
        </g>
        <g id="g304" transform="translate(282.726 111.133)">
          <g id="g306" clip-path="url(#clip-path-9)">
            <path id="path318" d="M434.867-452.556s1.68,3.438,2.721,3.832.235,6.122-2.957,4.285-1.688-7.936.237-8.117" transform="translate(-432.776 452.556)" fill="url(#linear-gradient-3)"/>
          </g>
        </g>
        <path id="path320" d="M498.292-475.56s.539-8.607,6.591-5.179,12.486,23.826,12.486,26.582-28.053,16.417-35.772,13.477a10.84,10.84,0,0,0-.061-9.434c8.453-2.573,19.294-5.88,21.132-8.637s-5.4-5.184-4.375-16.81" transform="translate(-160.674 570.005)" fill="#cceefa"/>
        <path id="path322" d="M248.292-105.636l-126.435-73V-183.4l167.575,49.249v4.768l-41.14,23.751" transform="translate(-82.305 505.044)" fill="#76c5ef"/>
        <path id="path324" d="M248.292-105.636l-126.435-73V-183.4L248.3-110.88v4.77l-.006.475" transform="translate(-82.305 505.044)" fill="#57b2e7"/>
        <path id="path326" d="M248.292-117.021l-126.435-73L163-213.767l126.437,73-41.14,23.75" transform="translate(-82.305 511.66)" fill="#a4e2f9"/>
        <path id="path328" d="M176.829-198.309l-8.336-4.813v-1.019l13.711,1.709v1.02l-5.375,3.1" transform="translate(-92.466 509.562)" fill="#4ba7c7"/>
        <path id="path330" d="M176.829-200.194l-8.336-4.812,5.377-3.1L182.2-203.3l-5.375,3.1" transform="translate(-92.466 510.426)" fill="#bce9f1"/>
        <path id="path332" d="M188.235-191.712l-8.335-4.815v-1.02l13.713,1.71v1.02l-5.378,3.1" transform="translate(-94.951 508.125)" fill="#4ba7c7"/>
        <path id="path334" d="M188.235-193.6,179.9-198.41l5.377-3.1,8.336,4.813-5.378,3.1" transform="translate(-94.951 508.99)" fill="#bce9f1"/>
        <path id="path336" d="M199.646-185.118l-8.338-4.813v-1.021l13.713,1.71v1.02l-5.375,3.1" transform="translate(-97.437 506.688)" fill="#4ba7c7"/>
        <path id="path338" d="M199.646-187l-8.338-4.813,5.377-3.1,8.336,4.813-5.375,3.1" transform="translate(-97.437 507.553)" fill="#bce9f1"/>
        <path id="path340" d="M211.05-178.521l-8.336-4.816v-1.018l13.713,1.708v1.02l-5.377,3.106" transform="translate(-99.922 505.251)" fill="#4ba7c7"/>
        <path id="path342" d="M211.05-180.405l-8.336-4.814,5.377-3.1,8.336,4.812-5.377,3.105" transform="translate(-99.922 506.115)" fill="#bce9f1"/>
        <path id="path344" d="M222.458-171.928l-8.336-4.812v-1.02l13.712,1.71v1.02l-5.376,3.1" transform="translate(-102.408 503.814)" fill="#4ba7c7"/>
        <path id="path346" d="M222.458-173.813l-8.336-4.812,5.376-3.1,8.336,4.814-5.376,3.1" transform="translate(-102.408 504.679)" fill="#bce9f1"/>
        <path id="path348" d="M233.866-165.332l-8.337-4.814v-1.021l13.712,1.711v1.02l-5.375,3.1" transform="translate(-104.894 502.377)" fill="#4ba7c7"/>
        <path id="path350" d="M233.866-167.218l-8.337-4.813,5.377-3.1,8.335,4.814-5.375,3.1" transform="translate(-104.894 503.242)" fill="#bce9f1"/>
        <path id="path352" d="M245.272-158.736l-8.334-4.811v-1.022l13.713,1.709v1.02l-5.379,3.1" transform="translate(-107.379 500.94)" fill="#4ba7c7"/>
        <path id="path354" d="M245.272-160.618l-8.334-4.816,5.376-3.1,8.337,4.813-5.379,3.107" transform="translate(-107.379 501.804)" fill="#bce9f1"/>
        <path id="path356" d="M256.679-152.143l-8.337-4.812v-1.02l13.716,1.71v1.02l-5.379,3.1" transform="translate(-109.864 499.503)" fill="#4ba7c7"/>
        <path id="path358" d="M256.679-154.026l-8.337-4.813,5.379-3.1,8.337,4.813-5.379,3.1" transform="translate(-109.864 500.367)" fill="#bce9f1"/>
        <path id="path360" d="M268.088-145.544l-8.335-4.812v-1.02l13.713,1.707v1.02l-5.378,3.1" transform="translate(-112.35 498.065)" fill="#4ba7c7"/>
        <path id="path362" d="M268.088-147.429l-8.335-4.812,5.375-3.105,8.338,4.813-5.378,3.1" transform="translate(-112.35 498.93)" fill="#bce9f1"/>
        <path id="path364" d="M279.5-138.947l-8.336-4.815v-1.022l13.715,1.71v1.019l-5.379,3.108" transform="translate(-114.836 496.629)" fill="#4ba7c7"/>
        <path id="path366" d="M279.5-140.834l-8.336-4.815,5.375-3.1,8.34,4.815-5.379,3.1" transform="translate(-114.836 497.494)" fill="#bce9f1"/>
        <path id="path368" d="M290.9-132.356l-8.337-4.811v-1.02l13.715,1.708v1.022l-5.378,3.1" transform="translate(-117.321 495.192)" fill="#4ba7c7"/>
        <path id="path370" d="M290.9-134.239l-8.337-4.814,5.378-3.1,8.337,4.812-5.378,3.106" transform="translate(-117.321 496.056)" fill="#bce9f1"/>
        <path id="path372" d="M302.31-125.759l-8.336-4.811v-1.02l13.713,1.709v1.02l-5.377,3.1" transform="translate(-119.807 493.754)" fill="#4ba7c7"/>
        <path id="path374" d="M302.31-127.643l-8.336-4.812,5.378-3.1,8.335,4.814-5.377,3.1" transform="translate(-119.807 494.619)" fill="#bce9f1"/>
        <path id="path376" d="M313.718-119.161l-8.336-4.816v-1.018l13.712,1.708v1.019l-5.376,3.106" transform="translate(-122.293 492.317)" fill="#4ba7c7"/>
        <path id="path378" d="M313.718-121.047l-8.336-4.813,5.376-3.105,8.336,4.813-5.376,3.1" transform="translate(-122.293 493.182)" fill="#bce9f1"/>
        <path id="path380" d="M172.794-190.279,159.6-198v-1.021L178.17-194.4v1.02l-5.376,3.1" transform="translate(-90.53 508.446)" fill="#4ba7c7"/>
        <path id="path382" d="M172.794-192.163l-13.19-7.721,5.377-3.1,13.188,7.72-5.376,3.1" transform="translate(-90.53 509.311)" fill="#bce9f1"/>
        <path id="path384" d="M185.554-182.874l-8.337-4.814v-1.02L190.928-187v1.021l-5.374,3.1" transform="translate(-94.367 506.199)" fill="#4ba7c7"/>
        <path id="path386" d="M185.554-184.759l-8.337-4.813,5.377-3.1,8.334,4.812-5.374,3.1" transform="translate(-94.367 507.064)" fill="#bce9f1"/>
        <path id="path388" d="M196.958-176.278l-8.337-4.812v-1.021l13.715,1.71v1.017l-5.378,3.105" transform="translate(-96.852 504.762)" fill="#4ba7c7"/>
        <path id="path390" d="M196.958-178.163l-8.337-4.813,5.38-3.106,8.335,4.816-5.378,3.1" transform="translate(-96.852 505.627)" fill="#bce9f1"/>
        <path id="path392" d="M208.365-169.683l-8.333-4.814v-1.022l13.713,1.71v1.021l-5.38,3.1" transform="translate(-99.338 503.326)" fill="#4ba7c7"/>
        <path id="path394" d="M208.365-171.569l-8.333-4.814,5.377-3.1,8.336,4.812-5.38,3.1" transform="translate(-99.338 504.19)" fill="#bce9f1"/>
        <path id="path396" d="M219.775-163.089l-8.334-4.812v-1.019l13.712,1.709v1.021l-5.378,3.1" transform="translate(-101.824 501.888)" fill="#4ba7c7"/>
        <path id="path398" d="M219.775-164.973l-8.334-4.812,5.374-3.105,8.338,4.815-5.378,3.1" transform="translate(-101.824 502.753)" fill="#bce9f1"/>
        <path id="path400" d="M231.183-156.493l-8.338-4.814v-1.02l13.715,1.711v1.019l-5.377,3.1" transform="translate(-104.309 500.451)" fill="#4ba7c7"/>
        <path id="path402" d="M231.183-158.379l-8.338-4.813,5.377-3.1,8.338,4.816-5.377,3.1" transform="translate(-104.309 501.316)" fill="#bce9f1"/>
        <path id="path404" d="M242.591-149.9l-8.338-4.814v-1.021l13.713,1.711V-153l-5.375,3.1" transform="translate(-106.794 499.014)" fill="#4ba7c7"/>
        <path id="path406" d="M242.591-151.779l-8.338-4.817,5.378-3.1,8.335,4.814-5.375,3.105" transform="translate(-106.794 499.879)" fill="#bce9f1"/>
        <path id="path408" d="M254-143.3l-8.338-4.813v-1.022l13.715,1.712v1.02L254-143.3" transform="translate(-109.28 497.577)" fill="#4ba7c7"/>
        <path id="path410" d="M254-145.187,245.659-150l5.379-3.1,8.336,4.814-5.377,3.1" transform="translate(-109.28 498.441)" fill="#bce9f1"/>
        <path id="path412" d="M265.406-136.706l-8.337-4.815v-1.019l13.713,1.707v1.023l-5.376,3.1" transform="translate(-111.766 496.14)" fill="#4ba7c7"/>
        <path id="path414" d="M265.406-138.591l-8.337-4.814,5.377-3.1,8.336,4.812-5.376,3.107" transform="translate(-111.766 497.005)" fill="#bce9f1"/>
        <path id="path416" d="M276.813-130.108l-8.336-4.815v-1.018l13.713,1.708v1.019l-5.377,3.106" transform="translate(-114.251 494.702)" fill="#4ba7c7"/>
        <path id="path418" d="M276.813-131.995l-8.336-4.811,5.377-3.105,8.336,4.814-5.377,3.1" transform="translate(-114.251 495.567)" fill="#bce9f1"/>
        <path id="path420" d="M288.221-123.517l-8.336-4.814v-1.02l13.712,1.71v1.021l-5.376,3.1" transform="translate(-116.737 493.266)" fill="#4ba7c7"/>
        <path id="path422" d="M288.221-125.4l-8.336-4.814,5.374-3.1L293.6-128.5l-5.376,3.1" transform="translate(-116.737 494.13)" fill="#bce9f1"/>
        <path id="path424" d="M303.661-114.549l-12.372-7.183v-1.02l17.749,4.08v1.017l-5.377,3.107" transform="translate(-119.222 491.828)" fill="#4ba7c7"/>
        <path id="path426" d="M303.661-116.436l-12.372-7.181,5.378-3.106,12.371,7.185-5.377,3.1" transform="translate(-119.222 492.694)" fill="#bce9f1"/>
        <path id="path428" d="M160.5-187l-9.917-5.78V-193.8l14.583,2.258v1.02L160.5-187" transform="translate(-88.564 507.309)" fill="#4ba7c7"/>
        <path id="path430" d="M160.81-188.716l-10.224-5.947,5.375-3.106,10.225,5.95-5.376,3.1" transform="translate(-88.564 508.174)" fill="#bce9f1"/>
        <path id="path432" d="M171.439-180.671l-8.334-4.812V-186.5l13.714,1.71v1.02l-5.38,3.1" transform="translate(-91.292 505.719)" fill="#4ba7c7"/>
        <path id="path434" d="M171.439-182.556l-8.334-4.813,5.375-3.1,8.339,4.815-5.38,3.1" transform="translate(-91.292 506.584)" fill="#bce9f1"/>
        <path id="path436" d="M182.849-174.074l-8.338-4.813v-1.022l13.716,1.71v1.02l-5.378,3.1" transform="translate(-93.777 504.282)" fill="#4ba7c7"/>
        <path id="path438" d="M182.849-175.96l-8.338-4.814,5.378-3.1,8.338,4.813-5.378,3.1" transform="translate(-93.777 505.147)" fill="#bce9f1"/>
        <path id="path440" d="M194.258-167.481l-8.338-4.812v-1.017l13.713,1.706v1.021l-5.375,3.1" transform="translate(-96.263 502.844)" fill="#4ba7c7"/>
        <path id="path442" d="M194.258-169.362l-8.338-4.813,5.377-3.108,8.336,4.814-5.375,3.107" transform="translate(-96.263 503.71)" fill="#bce9f1"/>
        <path id="path444" d="M205.663-160.881l-8.334-4.817v-1.018l13.711,1.708v1.02l-5.377,3.107" transform="translate(-98.749 501.408)" fill="#4ba7c7"/>
        <path id="path446" d="M205.663-162.769l-8.334-4.812,5.377-3.1,8.334,4.813-5.377,3.1" transform="translate(-98.749 502.272)" fill="#bce9f1"/>
        <path id="path448" d="M217.069-154.288l-8.335-4.814v-1.018l13.715,1.71v1.018l-5.38,3.1" transform="translate(-101.234 499.97)" fill="#4ba7c7"/>
        <path id="path450" d="M217.069-156.172l-8.335-4.813,5.378-3.1,8.337,4.815-5.38,3.1" transform="translate(-101.234 500.835)" fill="#bce9f1"/>
        <path id="path452" d="M228.479-147.693l-8.337-4.813v-1.022l13.714,1.71v1.019l-5.377,3.105" transform="translate(-103.72 498.534)" fill="#4ba7c7"/>
        <path id="path454" d="M228.479-149.579l-8.337-4.814,5.376-3.1,8.338,4.814-5.377,3.1" transform="translate(-103.72 499.399)" fill="#bce9f1"/>
        <path id="path456" d="M239.888-141.1l-8.339-4.813v-1.02l13.712,1.708v1.021l-5.373,3.1" transform="translate(-106.205 497.096)" fill="#4ba7c7"/>
        <path id="path458" d="M239.888-142.981l-8.339-4.814,5.378-3.106,8.334,4.814-5.373,3.105" transform="translate(-106.205 497.962)" fill="#bce9f1"/>
        <path id="path460" d="M251.294-134.5l-8.34-4.814v-1.022l13.716,1.708v1.023l-5.376,3.1" transform="translate(-108.69 495.66)" fill="#4ba7c7"/>
        <path id="path462" d="M251.294-136.388l-8.34-4.813,5.379-3.1,8.337,4.812-5.376,3.1" transform="translate(-108.69 496.524)" fill="#bce9f1"/>
        <path id="path464" d="M262.7-127.906l-8.335-4.814v-1.021l13.713,1.71v1.02l-5.378,3.105" transform="translate(-111.177 494.223)" fill="#4ba7c7"/>
        <path id="path466" d="M262.7-129.789l-8.335-4.816,5.375-3.1,8.338,4.811-5.378,3.106" transform="translate(-111.177 495.087)" fill="#bce9f1"/>
        <path id="path468" d="M274.109-121.311l-8.336-4.811v-1.02l13.712,1.709v1.021l-5.376,3.1" transform="translate(-113.662 492.785)" fill="#4ba7c7"/>
        <path id="path470" d="M274.109-123.195l-8.336-4.812,5.376-3.1,8.336,4.813-5.376,3.1" transform="translate(-113.662 493.65)" fill="#bce9f1"/>
        <path id="path472" d="M285.516-114.715l-8.335-4.818v-1.017l13.713,1.709v1.018l-5.378,3.107" transform="translate(-116.148 491.349)" fill="#4ba7c7"/>
        <path id="path474" d="M285.516-116.6l-8.335-4.815,5.377-3.1,8.336,4.812-5.378,3.106" transform="translate(-116.148 492.213)" fill="#bce9f1"/>
        <path id="path476" d="M296.016-108.649l-7.43-4.285v-1.018l12.8,1.179v1.021l-5.375,3.1" transform="translate(-118.633 489.911)" fill="#4ba7c7"/>
        <path id="path478" d="M296.016-110.532l-7.43-4.285,5.377-3.1,7.428,4.284-5.375,3.106" transform="translate(-118.633 490.776)" fill="#bce9f1"/>
        <path id="path480" d="M155.712-179.37,141.5-187.565v-1.023l19.59,5.1v1.016l-5.378,3.107" transform="translate(-86.585 506.173)" fill="#4ba7c7"/>
        <path id="path482" d="M155.712-181.251l-14.213-8.2,5.376-3.1,14.215,8.2-5.378,3.105" transform="translate(-86.585 507.038)" fill="#bce9f1"/>
        <path id="path484" d="M168.758-171.831l-8.337-4.813v-1.02l13.712,1.71v1.019l-5.375,3.1" transform="translate(-90.707 503.793)" fill="#4ba7c7"/>
        <path id="path486" d="M168.758-173.717l-8.337-4.812,5.378-3.1,8.334,4.814-5.375,3.1" transform="translate(-90.707 504.658)" fill="#bce9f1"/>
        <path id="path488" d="M180.167-165.237l-8.338-4.814v-1.021l13.713,1.71v1.021l-5.375,3.1" transform="translate(-93.193 502.357)" fill="#4ba7c7"/>
        <path id="path490" d="M180.167-167.121l-8.338-4.815,5.377-3.1,8.336,4.812-5.375,3.1" transform="translate(-93.193 503.221)" fill="#bce9f1"/>
        <path id="path492" d="M191.573-158.638l-8.338-4.813v-1.022l13.714,1.709v1.021l-5.376,3.1" transform="translate(-95.678 500.919)" fill="#4ba7c7"/>
        <path id="path494" d="M191.573-160.526l-8.338-4.813,5.378-3.106,8.336,4.815-5.376,3.1" transform="translate(-95.678 501.784)" fill="#bce9f1"/>
        <path id="path496" d="M202.98-152.045l-8.336-4.816v-1.019l13.713,1.71v1.02l-5.377,3.1" transform="translate(-98.164 499.482)" fill="#4ba7c7"/>
        <path id="path498" d="M202.98-153.931l-8.336-4.814,5.376-3.1,8.337,4.814-5.377,3.1" transform="translate(-98.164 500.347)" fill="#bce9f1"/>
        <path id="path500" d="M214.389-145.45l-8.337-4.812v-1.025l13.714,1.711v1.02l-5.377,3.105" transform="translate(-100.65 498.046)" fill="#4ba7c7"/>
        <path id="path502" d="M214.389-147.334l-8.337-4.816,5.376-3.1,8.338,4.812-5.377,3.1" transform="translate(-100.65 498.909)" fill="#bce9f1"/>
        <path id="path504" d="M225.8-138.855l-8.338-4.813v-1.018l13.712,1.709v1.02l-5.374,3.1" transform="translate(-103.135 496.607)" fill="#4ba7c7"/>
        <path id="path506" d="M225.8-140.739l-8.338-4.812,5.377-3.106,8.335,4.815-5.374,3.1" transform="translate(-103.135 497.473)" fill="#bce9f1"/>
        <path id="path508" d="M237.2-132.259l-8.334-4.813v-1.018l13.712,1.707v1.022l-5.378,3.1" transform="translate(-105.621 495.171)" fill="#4ba7c7"/>
        <path id="path510" d="M237.2-134.143l-8.334-4.812,5.377-3.107,8.335,4.814-5.378,3.105" transform="translate(-105.621 496.036)" fill="#bce9f1"/>
        <path id="path512" d="M248.611-125.664l-8.337-4.814V-131.5l13.713,1.71v1.018l-5.376,3.1" transform="translate(-108.106 493.734)" fill="#4ba7c7"/>
        <path id="path514" d="M248.611-127.547l-8.337-4.814,5.377-3.1,8.336,4.815-5.376,3.1" transform="translate(-108.106 494.599)" fill="#bce9f1"/>
        <path id="path516" d="M260.018-119.067l-8.337-4.815V-124.9l13.713,1.71v1.019l-5.376,3.107" transform="translate(-110.592 492.297)" fill="#4ba7c7"/>
        <path id="path518" d="M260.018-120.954l-8.337-4.812,5.377-3.1,8.336,4.814-5.376,3.1" transform="translate(-110.592 493.162)" fill="#bce9f1"/>
        <path id="path520" d="M271.424-112.472l-8.338-4.812v-1.02L276.8-116.6v1.021l-5.377,3.1" transform="translate(-113.077 490.859)" fill="#4ba7c7"/>
        <path id="path522" d="M271.424-114.356l-8.338-4.813,5.379-3.105,8.336,4.812-5.377,3.106" transform="translate(-113.077 491.724)" fill="#bce9f1"/>
        <path id="path524" d="M285.975-104.154,274.5-110.689v-1.021l16.853,3.434v1.02l-5.376,3.1" transform="translate(-115.563 489.423)" fill="#4ba7c7"/>
        <path id="path526" d="M285.975-106.037,274.5-112.576l5.375-3.1,11.478,6.539-5.376,3.1" transform="translate(-115.563 490.288)" fill="#bce9f1"/>
        <path id="path528" d="M142.744-176.534l-10.1-5.921v-1.019l15.484,2.818v1.02l-5.381,3.1" transform="translate(-84.654 505.059)" fill="#4ba7c7"/>
        <path id="path530" d="M142.744-178.417l-10.1-5.922,5.376-3.1,10.108,5.921-5.381,3.1" transform="translate(-84.654 505.924)" fill="#bce9f1"/>
        <path id="path532" d="M154.648-169.626l-8.337-4.815v-1.018l13.715,1.707v1.019l-5.378,3.107" transform="translate(-87.633 503.313)" fill="#4ba7c7"/>
        <path id="path534" d="M154.648-171.511l-8.337-4.813,5.377-3.107,8.338,4.814-5.378,3.105" transform="translate(-87.633 504.178)" fill="#bce9f1"/>
        <path id="path536" d="M166.056-163.035l-8.336-4.811v-1.017l13.712,1.706v1.021l-5.376,3.1" transform="translate(-90.119 501.875)" fill="#4ba7c7"/>
        <path id="path538" d="M166.056-164.916l-8.336-4.812,5.377-3.107,8.335,4.813-5.376,3.105" transform="translate(-90.119 502.741)" fill="#bce9f1"/>
        <path id="path540" d="M221.9-130.67l-52.775-30.579v-1.02l58.149,27.476v1.019l-5.375,3.1" transform="translate(-92.604 500.439)" fill="#4ba7c7"/>
        <path id="path542" d="M221.9-132.555l-52.775-30.579,5.377-3.105,52.773,30.582-5.375,3.1" transform="translate(-92.604 501.304)" fill="#bce9f1"/>
        <path id="path544" d="M245.906-116.864l-8.336-4.812v-1.02l13.712,1.709v1.021l-5.376,3.1" transform="translate(-107.517 491.816)" fill="#4ba7c7"/>
        <path id="path546" d="M245.906-118.748l-8.336-4.812,5.377-3.1,8.335,4.813-5.376,3.1" transform="translate(-107.517 492.681)" fill="#bce9f1"/>
        <path id="path548" d="M257.313-110.266l-8.336-4.817V-116.1l13.714,1.709v1.02l-5.378,3.106" transform="translate(-110.003 490.379)" fill="#4ba7c7"/>
        <path id="path550" d="M257.313-112.153l-8.336-4.813,5.377-3.1,8.337,4.814-5.378,3.1" transform="translate(-110.003 491.244)" fill="#bce9f1"/>
        <path id="path552" d="M268.722-103.674l-8.336-4.812v-1.021L274.1-107.8v1.02l-5.377,3.1" transform="translate(-112.488 488.942)" fill="#4ba7c7"/>
        <path id="path554" d="M268.722-105.556l-8.336-4.815,5.375-3.1,8.338,4.813-5.377,3.1" transform="translate(-112.488 489.807)" fill="#bce9f1"/>
        <path id="path556" d="M278.39-98.113l-6.6-3.779v-1.02l11.974.675v1.02l-5.375,3.1" transform="translate(-114.974 487.506)" fill="#4ba7c7"/>
        <path id="path558" d="M278.39-100l-6.6-3.778,5.377-3.1,6.6,3.778L278.39-100" transform="translate(-114.974 488.37)" fill="#bce9f1"/>
        <g id="g560" transform="translate(263.597 323.531)">
          <g id="g562" transform="translate(0 0)" clip-path="url(#clip-path-10)">
            <path id="path574" d="M460.085-141.333l-51.767-17.938,37.555-21.716,8.79,9.373-6.161,3.57,5.8,3.35,4.44-2.574-4.44,2.574,0,6.685,8.506-4.928,10.651,11.356-13.367,10.248" transform="translate(-408.318 180.986)" fill="url(#radial-gradient-7)"/>
          </g>
        </g>
        <g id="g576" transform="translate(261.802 322.477)">
          <g id="g578" transform="translate(0 0)" clip-path="url(#clip-path-11)">
            <path id="path590" d="M407.818-159.564l-1.795-.623,38.36-22.147.99,1.054-37.555,21.716" transform="translate(-406.023 182.334)" fill="url(#radial-gradient-8)"/>
          </g>
        </g>
        <path id="path592" d="M406.023-161.255h0v-5.909l34.764-20.073,3.6,3.834-38.36,22.148" transform="translate(-144.221 505.879)" fill="#253f7c"/>
        <path id="path594" d="M406.023-167.936v-4.276l32.162-18.57,2.6,2.773-34.764,20.073" transform="translate(-144.221 506.651)" fill="#c2d5da"/>
        <path id="path596" d="M406.023-172.92v-3.918l29.78-17.194,2.383,2.541-32.162,18.57" transform="translate(-144.221 507.359)" fill="#d0e5ea"/>
        <path id="path598" d="M406.023-177.612V-181.9l27.172-15.688,2.608,2.78-29.78,17.194" transform="translate(-144.221 508.134)" fill="#d9eff5"/>
        <path id="path600" d="M406.023-183.058v-6.419l23.266-13.434,3.905,4.164-27.172,15.688" transform="translate(-144.221 509.294)" fill="#304f9e"/>
        <path id="path602" d="M406.023-190.491v-5.616l19.849-11.461,3.417,3.643-23.266,13.434" transform="translate(-144.221 510.309)" fill="#3b83c3"/>
        <path id="path604" d="M406.023-196.841V-200.9L423.4-210.937l2.47,2.635-19.849,11.461" transform="translate(-144.221 511.043)" fill="#c2d5da"/>
        <path id="path606" d="M406.023-201.575V-205.3l15.113-8.726,2.265,2.414-17.378,10.034" transform="translate(-144.221 511.716)" fill="#d0e5ea"/>
        <path id="path608" d="M406.023-206.033v-4.072l12.636-7.3,2.478,2.642-15.113,8.726" transform="translate(-144.221 512.452)" fill="#d9eff5"/>
        <path id="path610" d="M406.023-210.856v-4.154l10.109-5.837,2.527,2.694-12.636,7.3" transform="translate(-144.221 513.202)" fill="#66b4e7"/>
        <path id="path612" d="M406.023-215.98v-5.367l6.843-3.951,3.266,3.482-10.109,5.837" transform="translate(-144.221 514.172)" fill="#c5285e"/>
        <path id="path614" d="M406.023-222.048v-3.882l4.481-2.587L412.866-226l-6.843,3.951" transform="translate(-144.221 514.874)" fill="#c2d5da"/>
        <path id="path616" d="M406.023-226.574v-3.558l2.316-1.337,2.165,2.308-4.481,2.587" transform="translate(-144.221 515.517)" fill="#d0e5ea"/>
        <path id="path618" d="M406.023-230.82v-3.807l2.316,2.47-2.316,1.337" transform="translate(-144.221 516.205)" fill="#d9eff5"/>
        <path id="path620" d="M406.023-238.37,429.209-251.8l24.606,18.074L430.632-220.3,406.023-238.37" transform="translate(-144.221 519.948)" fill="#a4e2f9"/>
        <path id="path622" d="M437.48-208.572l23.189-13.437V-228.7l-23.183,13.432-.006,6.691" transform="translate(-151.075 514.912)" fill="#76c5ef"/>
        <path id="path624" d="M437.48-206.715l23.189-13.431,5.79,3.343-23.182,13.435-5.8-3.346" transform="translate(-151.075 513.049)" fill="#a4e2f9"/>
        <path id="path626" d="M444.887-195.746l23.186-13.436v-6.69l-23.182,13.435,0,6.691" transform="translate(-152.689 512.118)" fill="#76c5ef"/>
        <path id="path628" d="M444.887-193.87,468.073-207.3l5.791,3.345-23.182,13.436-5.795-3.346" transform="translate(-152.689 510.252)" fill="#a4e2f9"/>
        <path id="path630" d="M452.291-182.9l23.186-13.436v-6.69L452.3-189.592l0,6.69" transform="translate(-154.302 509.32)" fill="#76c5ef"/>
        <path id="path632" d="M452.291-181.025l23.186-13.435,5.793,3.345-23.183,13.436-5.8-3.346" transform="translate(-154.302 507.453)" fill="#a4e2f9"/>
        <path id="path634" d="M459.7-170.058l23.187-13.434v-6.691L459.7-176.747l0,6.689" transform="translate(-155.916 506.521)" fill="#76c5ef"/>
        <path id="path636" d="M459.7-168.181l23.187-13.434,5.792,3.345-23.182,13.438-5.8-3.35" transform="translate(-155.916 504.654)" fill="#a4e2f9"/>
        <path id="path638" d="M467.1-157.214l23.186-13.432v-6.691L467.107-163.9l0,6.685" transform="translate(-157.53 503.722)" fill="#76c5ef"/>
        <path id="path640" d="M467.1-155.335l23.187-13.432,5.79,3.344L472.9-151.989l-5.795-3.346" transform="translate(-157.53 501.855)" fill="#a4e2f9"/>
        <path id="path642" d="M474.507-144.367,497.693-157.8v-6.688l-23.182,13.435,0,6.69" transform="translate(-159.143 500.923)" fill="#76c5ef"/>
        <path id="path644" d="M474.507-142.5l23.186-13.435,5.793,3.347L480.3-139.15l-5.795-3.345" transform="translate(-159.143 499.058)" fill="#a4e2f9"/>
        <path id="path646" d="M481.914-131.528,505.1-144.964v-6.687l-23.184,13.432,0,6.689" transform="translate(-160.757 498.125)" fill="#76c5ef"/>
        <path id="path648" d="M453.794-169.74v-6.689L448-179.772v-6.741l-5.781-3.289v-6.689l-5.795-3.342v-6.688l-5.791-3.344v-6.691l-24.609-18.072,53.562,81.607,5.806,3.344v-6.687l-5.806-3.285v-6.744l-5.791-3.347" transform="translate(-144.221 516.205)" fill="#57b2e7"/>
        <path id="path650" d="M284.9-304.445v28.456c0,5.852,3.869,11.707,11.6,16.173,15.469,8.931,40.551,8.931,56.024,0,7.738-4.466,11.6-10.322,11.6-16.178v-28.451H284.9" transform="translate(-117.831 531.417)" fill="#16253a"/>
        <path id="path652" d="M314.687-268.475l-67.9-39.2v-1.878h135.8v1.878l-67.9,39.2" transform="translate(-109.526 532.531)" fill="#192c4b"/>
        <path id="path654" d="M314.687-281.276l-67.9-39.2,67.9-39.2,67.9,39.2-67.9,39.2" transform="translate(-109.526 543.452)" fill="#223e73"/>
        <path id="path656" d="M370.982-266.768h-2.348V-290.91L332.93-308.8l1.053-2.1,37,18.538v25.592" transform="translate(-128.295 532.823)" fill="#fad517"/>
        <path id="path658" d="M337.647-309.666c0,1.3-1.731,2.348-3.873,2.348s-3.875-1.052-3.875-2.348,1.735-2.348,3.875-2.348,3.873,1.053,3.873,2.348" transform="translate(-127.635 533.066)" fill="#fad517"/>
        <path id="path660" d="M382.14-244.756V-256.7a2.729,2.729,0,0,0-2.727-2.73,2.728,2.728,0,0,0-2.731,2.73v11.947h5.458" transform="translate(-137.828 521.61)" fill="#f5f122"/>
        <g id="g662" transform="translate(69.821 364.403)">
          <g id="g664" clip-path="url(#clip-path-12)">
            <path id="path676" d="M160.558-84.588l35.535-44.14,17.677,10.2h0s-11.729,6.4-26.472,20.031-26.74,13.9-26.74,13.9" transform="translate(-160.558 128.728)" fill="url(#radial-gradient-9)"/>
          </g>
        </g>
        <path id="path678" d="M223.67-119.4l-17.677-10.2,2.194-2.726.632-.412,15.379,8.88-.529.31v4.152" transform="translate(-100.637 494.005)" fill="#4ea2de"/>
        <path id="path680" d="M224.986-124.41l-15.379-8.88,3.03-1.974,15.521,8.992-3.172,1.862" transform="translate(-101.424 494.555)" fill="#8cd4f4"/>
        <g id="g682" transform="translate(146.837 329.187)">
          <g id="g684" clip-path="url(#clip-path-13)">
            <path id="path696" d="M276.557-156.742,259.03-166.86l10.582-6.894,17.325,10v.1l-10.381,6.913" transform="translate(-259.03 173.754)" fill="url(#radial-gradient-10)"/>
          </g>
        </g>
        <path id="path698" d="M289.886-165.371l-17.325-10h0l.165-5.815,17.133,9.891.027,5.926" transform="translate(-115.141 504.561)" fill="#253f7c"/>
        <path id="path700" d="M289.9-172.47l-17.133-9.891.12-4.207,16.993,9.811.021,4.287" transform="translate(-115.187 505.733)" fill="#c2d5da"/>
        <path id="path702" d="M289.917-177.831l-16.993-9.811.108-3.854,16.866,9.737.018,3.928" transform="translate(-115.221 506.807)" fill="#d0e5ea"/>
        <path id="path704" d="M289.93-182.933l-16.866-9.737.12-4.216,16.726,9.656.021,4.3" transform="translate(-115.251 507.981)" fill="#d9eff5"/>
        <path id="path706" d="M289.942-189.072l-16.726-9.656.187-6.614,16.508,9.53.031,6.74" transform="translate(-115.284 509.824)" fill="#304f9e"/>
        <path id="path708" d="M289.963-197.351l-16.508-9.53.157-5.524,16.324,9.425.026,5.629" transform="translate(-115.336 511.363)" fill="#3b83c3"/>
        <path id="path710" d="M289.981-204.093l-16.324-9.425.113-4,16.193,9.349.019,4.073" transform="translate(-115.38 512.476)" fill="#c2d5da"/>
        <path id="path712" d="M289.993-209.187,273.8-218.535l.1-3.661,16.071,9.279.018,3.731" transform="translate(-115.411 513.496)" fill="#d0e5ea"/>
        <path id="path714" d="M290-213.814l-16.071-9.279.053-1.91,1.432-1.3,14.566,8.41.02,4.084" transform="translate(-115.44 514.392)" fill="#d9eff5"/>
        <path id="path716" d="M290.4-218.721l-14.566-8.41,3.246-2.957,11.3,6.523.022,4.845" transform="translate(-115.854 515.216)" fill="#66b4e7"/>
        <path id="path718" d="M291.281-224.481,279.983-231l3.606-3.285,7.667,4.426.025,5.382" transform="translate(-116.759 516.131)" fill="#c5285e"/>
        <path id="path720" d="M292.261-230.525l-7.667-4.426,2.608-2.378,5.04,2.911.019,3.893" transform="translate(-117.763 516.793)" fill="#c2d5da"/>
        <path id="path722" d="M292.969-235.025l-5.04-2.911,2.39-2.177,2.633,1.52.017,3.567" transform="translate(-118.49 517.4)" fill="#d0e5ea"/>
        <path id="path724" d="M293.618-239.256l-2.633-1.52,2.615-2.382h0l.018,3.9" transform="translate(-119.156 518.064)" fill="#d9eff5"/>
        <path id="path726" d="M294.328-243.158h0" transform="translate(-119.884 518.064)" fill="#d54f7c"/>
        <path id="path728" d="M236.845-136.379,221-145.561l.75-.488,4.819,2.781.585-.338v.683l8.334,4.813.587-.338v.682l1.579.912-.808.473m7.015-4.117-2.409-1.391-.586.339v-.685l-8.335-4.814-.588.34v-.682l-4.312-2.491.73-.476.307.176.584-.337v.683l8.339,4.813.581-.336v.682l6.459,3.727-.77.452m6.981-4.1-7.291-4.208-.587.338v-.683l-8.334-4.814-.585.338v-.438l.905-.59L239.7-151.9l.583-.337v.682l8.338,4.813.585-.338v.682l2.376,1.372-.745.437m6.954-4.081-3.208-1.852-.585.338v-.681l-8.336-4.814-.587.338v-.683l-4.248-2.454.73-.476.24.139.585-.338v.683l8.337,4.812.587-.338v.687l7.254,4.187-.769.452m6.978-4.1-8.089-4.669-.583.337v-.682l-8.337-4.813-.585.338v-.36l3.565-2.323,17.527,10.118-3.5,2.053" transform="translate(-103.907 501.021)" fill="#8cd4f4"/>
        <path id="path730" d="M247.527-158.17l-.24-.139,5.619-3.66v.36l-4.794,2.764v.337l-.585.338" transform="translate(-109.634 500.373)" fill="#4398be"/>
        <path id="path732" d="M256.679-152.143l-8.337-4.812v-1.02l8.337,4.813,5.379-3.1v.682l-4.792,2.769v.333l-.587.338" transform="translate(-109.864 499.503)" fill="#4398be"/>
        <path id="path734" d="M256.679-154.026l-8.337-4.813,4.794-2.764.585-.338,8.337,4.813-5.379,3.1" transform="translate(-109.864 500.367)" fill="#a1e0ea"/>
        <path id="path736" d="M267.007-146.169l-7.254-4.187v-1.02l8.13,4.693-.876.514" transform="translate(-112.35 498.065)" fill="#4398be"/>
        <path id="path738" d="M267.882-147.548l-8.13-4.693,4.792-2.769.583-.337,8.089,4.669-5.334,3.129" transform="translate(-112.35 498.93)" fill="#a1e0ea"/>
        <path id="path740" d="M243.589-149.42l-4.755-2.746.829-.54,3.926,2.268,5.375-3.106v.683l-4.792,2.763v.34l-.583.337" transform="translate(-107.793 498.538)" fill="#4398be"/>
        <path id="path742" d="M243.82-151.122l-3.926-2.268,5.052-3.291,4.248,2.454-5.375,3.105" transform="translate(-108.024 499.221)" fill="#a1e0ea"/>
        <path id="path744" d="M254-143.3l-8.338-4.813v-1.022L254-144.323l5.377-3.1v.681l-4.792,2.767v.337L254-143.3" transform="translate(-109.28 497.577)" fill="#4398be"/>
        <path id="path746" d="M254-145.187,245.659-150l4.792-2.763.587-.338,8.336,4.814-5.377,3.1" transform="translate(-109.28 498.441)" fill="#a1e0ea"/>
        <path id="path748" d="M259.444-140.148l-2.376-1.372v-1.019l3.252,1.877-.876.514" transform="translate(-111.766 496.14)" fill="#4398be"/>
        <path id="path750" d="M260.32-141.527l-3.252-1.877,4.792-2.767.585-.338,3.208,1.852-5.333,3.129" transform="translate(-111.766 497.005)" fill="#a1e0ea"/>
        <path id="path752" d="M230.717-147.148l-.307-.176,5.683-3.7v.438l-4.793,2.768v.337l-.584.337" transform="translate(-105.957 497.989)" fill="#4398be"/>
        <path id="path754" d="M239.888-141.1l-8.339-4.813v-1.02l8.339,4.814,5.373-3.105v.683l-4.792,2.766v.34l-.581.336" transform="translate(-106.205 497.096)" fill="#4398be"/>
        <path id="path756" d="M239.888-142.981l-8.339-4.814,4.793-2.768.585-.338,8.334,4.814-5.373,3.105" transform="translate(-106.205 497.962)" fill="#a1e0ea"/>
        <path id="path758" d="M249.413-135.587l-6.459-3.727v-1.022l7.337,4.234-.878.515" transform="translate(-108.69 495.66)" fill="#4398be"/>
        <path id="path760" d="M250.291-136.966l-7.337-4.234,4.792-2.766.587-.338,7.291,4.208-5.333,3.129" transform="translate(-108.69 496.524)" fill="#a1e0ea"/>
        <path id="path762" d="M226.777-138.378l-4.819-2.781.829-.54,3.99,2.3,5.374-3.1v.682l-4.789,2.767v.335l-.585.338" transform="translate(-104.116 496.131)" fill="#4398be"/>
        <path id="path764" d="M227.008-140.091l-3.99-2.3,5.051-3.291,4.312,2.491-5.374,3.1" transform="translate(-104.346 496.825)" fill="#a1e0ea"/>
        <path id="path766" d="M237.2-132.259l-8.334-4.813v-1.018l8.334,4.812,5.378-3.105v.685l-4.791,2.766v.336l-.587.338" transform="translate(-105.621 495.171)" fill="#4398be"/>
        <path id="path768" d="M237.2-134.143l-8.334-4.812,4.789-2.767.588-.34,8.335,4.814-5.378,3.105" transform="translate(-105.621 496.036)" fill="#a1e0ea"/>
        <path id="path770" d="M241.853-129.566l-1.579-.912V-131.5l2.453,1.416-.874.514" transform="translate(-108.106 493.734)" fill="#4398be"/>
        <path id="path772" d="M242.727-130.945l-2.453-1.416,4.791-2.766.586-.339,2.409,1.391-5.333,3.129" transform="translate(-108.106 494.599)" fill="#a1e0ea"/>
        <path id="path774" d="M229-126.422l-15.521-8.992.829-.54,15.566,9.019-.874.513" transform="translate(-102.268 494.705)" fill="#4398be"/>
        <path id="path776" d="M230.107-127.852l-15.566-9.019,5.051-3.291,15.846,9.182-5.331,3.128" transform="translate(-102.499 495.622)" fill="#a1e0ea"/>
        <path id="path778" d="M181.465-127.274c-2.658,3.782-17.45,17.312-21.819,14.244s3.344-21.574,6-25.356L247.53-254.932c2.657-3.781,8.352-4.359,12.72-1.291s5.753,8.622,3.1,12.4L181.465-127.274" transform="translate(-90.253 521.34)" fill="#3367b1"/>
        <path id="path780" d="M260.251-256.068a11.009,11.009,0,0,0-2.795-1.415,8.374,8.374,0,0,1,.191,9.376L175.764-131.561c-2.044,2.909-11.261,11.575-17.4,14.03-.139,2.191.2,3.9,1.281,4.655,4.368,3.068,19.161-10.462,21.819-14.244l81.882-116.546c2.657-3.781,1.27-9.335-3.1-12.4" transform="translate(-90.253 521.185)" fill="#2a5698"/>
        <path id="path782" d="M168.5-110.207l-2.855,4.065c-2.658,3.782-10.369,22.287-6,25.356s19.161-10.462,21.819-14.244l2.855-4.064L168.5-110.207" transform="translate(-90.253 489.095)" fill="#3f79c6"/>
        <path id="path784" d="M179.613-100.325l-2.065,2.94C174.891-93.6,163.205-76.8,158.837-79.867a2.684,2.684,0,0,0,.919,1.235c4.368,3.068,19.161-10.462,21.819-14.244l2.855-4.064-4.817-3.384" transform="translate(-90.362 486.942)" fill="#3773b9"/>
        <path id="path786" d="M240.092-186.318l-12.3-8.64-6.513-4.575,35.729-50.854,18.81,13.216-35.729,50.853" transform="translate(-103.968 519.638)" fill="#223e73"/>
        <path id="path788" d="M267.71-240.775l-35.679,50.782-10.7-7.517-.05.072,6.513,4.575,12.3,8.64,35.729-50.853-8.111-5.7" transform="translate(-103.968 517.544)" fill="#1d365c"/>
        <path id="path790" d="M281.142-231.4l-18.81-13.216,2.07-2.946,18.81,13.216-2.07,2.946" transform="translate(-112.912 519.022)" fill="#192b45"/>
        <path id="path792" d="M277.456-237.828s9.17,3.559,2.606,14.039S257.47-196.4,255.887-189.822s-7.83,5.88-8.008,1.1,5.64-9.906,10.986-16.987,21.683-27.07,15.514-34.283l3.076,2.161" transform="translate(-109.763 517.373)" fill="#3f79c6"/>
        <path id="path794" d="M460.773-594.649l-71.815,28.108,30.964,3.688Z" transform="translate(-140.503 594.649)" fill="#fff"/>
        <path id="path796" d="M427.906-562.913l4.794,13.4,36.56-45.138Z" transform="translate(-148.989 594.649)" fill="#a4e2f9"/>
        <path id="path798" d="M439.51-559.83l-5.475,10.319,36.56-45.138Z" transform="translate(-150.325 594.649)" fill="#76c5ef"/>
        <path id="path800" d="M472.12-594.649,462.451-547.3,441.035-559.83Z" transform="translate(-151.85 594.649)" fill="#fff"/>
        <path id="path802" d="M425.033-537.609l-1.594-1.345c1.733-2.053,2.7-3.185,2.7-3.185l1.584,1.356s-.963,1.128-2.69,3.174" transform="translate(-148.016 583.208)" fill="#57b2e7"/>
        <path id="path804" d="M390.065-522.141l-1.609-1.325c1.947-2.364,3.735-4.52,5.328-6.43l1.6,1.335c-1.59,1.908-3.377,4.061-5.321,6.421Zm-10.54,12.921-1.624-1.311c1.817-2.25,3.577-4.417,5.261-6.481l1.615,1.319Q382.253-512.6,379.525-509.22Zm-10.4,13.03-1.637-1.291q2.633-3.34,5.187-6.539l1.63,1.3q-2.542,3.189-5.18,6.53Zm-10.237,13.154-1.653-1.27q2.556-3.332,5.1-6.6l1.646,1.281q-2.536,3.26-5.1,6.594Zm-10.029,13.307-1.676-1.24q2.475-3.346,5-6.691l1.666,1.257q-2.515,3.33-4.987,6.674Zm-9.751,13.5-1.707-1.2q2.368-3.371,4.851-6.8l1.69,1.222q-2.468,3.416-4.835,6.779Zm-9.332,13.779-1.753-1.134c1.435-2.216,2.991-4.56,4.626-6.968l1.726,1.171c-1.626,2.4-3.173,4.727-4.6,6.93Zm-7.755,14.535-1.918-.819c1.112-2.607,2.333-5.164,3.629-7.6l1.842.979C324.305-432.968,323.109-430.464,322.02-427.912ZM316.8-412.276l-2.026-.5c.667-2.708,1.455-5.428,2.339-8.083l1.979.66C318.228-417.6,317.456-414.931,316.8-412.276Zm203.424,9.652a54.686,54.686,0,0,0-4.621-6.74l1.629-1.3a56.525,56.525,0,0,1,4.8,7Zm-206.012,6.616-2.08-.148c.2-2.76.522-5.576.97-8.368l2.059.328C314.726-401.462,314.408-398.708,314.215-396.008Zm211.726,8.585a47.509,47.509,0,0,0-2.212-7.836L525.68-396a49.763,49.763,0,0,1,2.31,8.181Zm-213.417,8.1c-.337-2.746-.541-5.576-.6-8.413l2.086-.046c.06,2.768.259,5.528.587,8.2Zm215.725,8.442-2.062-.321a48.281,48.281,0,0,0,.585-7.443l-.006-.684,2.086-.027.006.711a50.463,50.463,0,0,1-.609,7.764ZM316.4-362.911a72.973,72.973,0,0,1-2.4-8.1l2.03-.477a71.229,71.229,0,0,0,2.335,7.868Zm206.621,8.125-1.866-.934a55.249,55.249,0,0,0,3.116-7.553l1.982.65a57.7,57.7,0,0,1-3.233,7.838Zm-198.992,6.93a68.151,68.151,0,0,1-4.279-7.292l1.86-.942a66.343,66.343,0,0,0,4.147,7.068Zm189.48,7.025-1.562-1.381A66.792,66.792,0,0,0,517-348.676l1.721,1.179A69.087,69.087,0,0,1,513.514-340.832ZM335.08-335.113a72.837,72.837,0,0,1-5.9-6.038l1.574-1.368a70.651,70.651,0,0,0,5.735,5.865ZM501.037-329.5l-1.237-1.68a80.874,80.874,0,0,0,6.376-5.2l1.4,1.546A82.866,82.866,0,0,1,501.037-329.5Zm-152.364,4.335c-2.455-1.444-4.827-3-7.047-4.62l1.228-1.685c2.167,1.581,4.48,3.1,6.875,4.507ZM486.629-320.8l-.921-1.872c2.494-1.228,4.93-2.555,7.238-3.943l1.075,1.786C491.664-323.413,489.177-322.058,486.629-320.8Zm-122.8,2.894c-2.654-1.02-5.253-2.135-7.726-3.313l.9-1.882c2.424,1.154,4.973,2.247,7.578,3.248Zm107.2,3.36-.635-1.986c2.654-.849,5.267-1.786,7.772-2.788l.774,1.936c-2.55,1.02-5.21,1.975-7.911,2.837Zm-91.17,1.608c-2.754-.672-5.475-1.42-8.09-2.226l.615-1.994c2.575.795,5.257,1.533,7.969,2.194Zm74.884,2.463-.381-2.05c2.723-.507,5.442-1.1,8.082-1.753l.5,2.024C460.273-311.591,457.514-310.993,454.747-310.479Zm-58.424.661c-2.8-.393-5.579-.85-8.267-1.358l.387-2.048c2.658.5,5.406.952,8.172,1.341Zm41.794,1.492-.159-2.079c2.78-.213,5.55-.5,8.234-.843l.267,2.069c-2.719.35-5.526.638-8.342.853Zm-25.126.159c-2.432-.143-4.935-.334-7.439-.571l-.911-.088.2-2.075.9.088c2.481.234,4.96.423,7.366.565Zm11.593.347q-1.6,0-3.219-.027l.034-2.086c2.784.047,5.53.034,8.287-.044l.057,2.086c-1.715.047-3.453.071-5.16.071" transform="translate(-123.717 580.54)" fill="#57b2e7"/>
        <path id="path806" d="M564.251-384.852c-.981-.929-2.013-1.848-3.067-2.732l1.34-1.6c1.088.91,2.15,1.858,3.161,2.816l-1.434,1.514" transform="translate(-178.029 549.88)" fill="#57b2e7"/>
        <path id="path808" d="M151.908-328.687l-1.919-.819a55.937,55.937,0,0,1,2.688-5.239v4.25c-.225.526-.052.123-.77,1.807" transform="translate(-88.434 538.019)" fill="#3367b1"/>
        <path id="path810" d="M261.378-518.373a39.793,39.793,0,0,0-8.187-.555l-.082-2.084a42.128,42.128,0,0,1,8.617.581Zm-23.691,3.991-1.069-1.792a34.189,34.189,0,0,1,7.943-3.465l.583,2A32.163,32.163,0,0,0,237.687-514.382Zm39.361,1.237a67.177,67.177,0,0,0-7.671-3.176l.673-1.975a69.664,69.664,0,0,1,7.909,3.274Zm-51.179,10-1.7-1.205a46.1,46.1,0,0,1,5.6-6.55l1.447,1.5A44.081,44.081,0,0,0,225.869-503.149Zm-7.528,14.73-1.96-.711a71.83,71.83,0,0,1,3.378-7.861l1.862.941A69.811,69.811,0,0,0,218.341-488.419Zm-4.156,16.135-2.057-.344c.479-2.858,1.068-5.666,1.751-8.34l2.02.515C215.232-477.833,214.655-475.084,214.186-472.283Zm-1.568,16.645-2.085-.056c.076-2.867.245-5.724.5-8.491l2.076.193C212.859-461.27,212.692-458.46,212.617-455.638ZM211.1-438.713c-.26-2.831-.44-5.685-.535-8.481l2.085-.072c.094,2.757.271,5.571.527,8.362Zm2.477,16.8c-.561-2.767-1.055-5.581-1.467-8.368l2.064-.3c.407,2.749.893,5.527,1.447,8.256Zm4.264,16.437c-.851-2.681-1.642-5.427-2.352-8.161l2.018-.525c.7,2.7,1.482,5.409,2.322,8.055Zm5.073,16.042c-.722-2.659-1.526-5.361-2.392-8.034l1.983-.643c.877,2.7,1.691,5.44,2.421,8.132Zm3.521,16.375c-.422-2.7-.939-5.466-1.536-8.234l2.039-.44c.606,2.806,1.129,5.616,1.557,8.352ZM227.92-356.4c-.044-2.7-.2-5.51-.455-8.347l2.077-.188c.262,2.886.418,5.747.463,8.5Zm-83.415,2.95-2.026-.493c.651-2.676,1.451-5.431,2.373-8.187l1.978.663C145.926-358.771,145.143-356.074,144.506-353.455Zm84.23,14.016-2.053-.368a78.9,78.9,0,0,0,1.018-8.259l2.08.148A80.838,80.838,0,0,1,228.736-339.438ZM140.3-337v-.247a62.685,62.685,0,0,1,.584-8.31l2.067.277a60.644,60.644,0,0,0-.565,8.033v.233Zm83.15,13.837-1.857-.948a50.984,50.984,0,0,0,3.117-7.643l1.988.634a53.03,53.03,0,0,1-3.247,7.957Zm-79.636,2.991a34.236,34.236,0,0,1-2.7-8.244l2.046-.4a32.114,32.114,0,0,0,2.534,7.742Zm68.895,10.4-1.3-1.629a36.254,36.254,0,0,0,5.764-5.8l1.633,1.3a38.252,38.252,0,0,1-6.1,6.128Zm-57.216,2.239a31.086,31.086,0,0,1-6.775-5.445l1.527-1.42a28.933,28.933,0,0,0,6.323,5.076Zm41.75,5.214-.5-2.025a40.411,40.411,0,0,0,7.731-2.732l.9,1.882A42.379,42.379,0,0,1,197.24-302.314Zm-25.549.412a55.582,55.582,0,0,1-8.335-2.052l.663-1.978a53.45,53.45,0,0,0,8.02,1.974Zm12.5,1.072c-1.3,0-2.649-.04-4.01-.119l.119-2.081a63.424,63.424,0,0,0,8.29-.045l.154,2.079c-1.468.111-3,.166-4.554.166" transform="translate(-86.323 578.611)" fill="#3367b1"/>
        <path id="path812" d="M328.19-503.95c-1.161-.776-2.331-1.526-3.478-2.229l1.09-1.778c1.171.718,2.364,1.483,3.547,2.272l-1.159,1.735" transform="translate(-126.505 575.76)" fill="#3367b1"/>
        <g id="g814" transform="translate(333.048 299.806)">
          <g id="g816" transform="translate(0 0)" clip-path="url(#clip-path-14)">
            <path id="path828" d="M511.762-176.036a21.549,21.549,0,0,1-10.006-2.245l-.5-.267c-5.525-2.994-5.525-7.847,0-10.84L540-210.373l4.031,2.183,5.778-3.131v17.851l-28.039,15.189a21.552,21.552,0,0,1-10.006,2.245" transform="translate(-497.117 211.321)" fill="url(#radial-gradient-11)"/>
          </g>
        </g>
        <path id="path830" d="M568.871-202.02l17.685-10.21v-4.734l-31.667,6.872,13.982,8.072" transform="translate(-176.657 512.356)" fill="#a8a8a6"/>
        <path id="path832" d="M568.871-209l17.685-10.21-13.982-8.073-17.685,10.211L568.871-209" transform="translate(-176.657 514.606)" fill="#fefefe"/>
        <path id="path834" d="M586.189-215.834l2.682-1.548-3.917-2.261-2.68,1.548,3.915,2.261" transform="translate(-182.624 512.94)" fill="#a8a8a6"/>
        <path id="path836" d="M584.955-219.232l-2.326,1.343-.355-.205,2.68-1.548,3.917,2.261-.357.205-3.56-2.056" transform="translate(-182.624 512.94)" fill="#484849"/>
        <path id="path838" d="M577.519-220.839l2.68-1.548-3.915-2.261L573.6-223.1l3.917,2.262" transform="translate(-180.735 514.03)" fill="#a8a8a6"/>
        <path id="path840" d="M576.285-224.238l-2.325,1.342-.357-.205,2.682-1.547,3.915,2.261-.355.205-3.56-2.056" transform="translate(-180.735 514.03)" fill="#484849"/>
        <path id="path842" d="M507.6-192.489l3.3,3.1c.188-.123.381-.246.587-.364l55.584-18.253v8.376L530.732-178.65c-5.186,2.994-13.591,2.994-18.775,0l-.464-.268c-2.683-1.549-3.974-3.6-3.88-5.624l-.01,0v-7.95" transform="translate(-166.354 510.406)" fill="#eb2762"/>
        <path id="path844" d="M511.494-201.228l36.343-20.985,19.241,11.107-36.345,20.985c-5.186,2.993-13.591,2.993-18.775,0l-.464-.268c-5.186-2.993-5.186-7.846,0-10.839" transform="translate(-166.354 513.5)" fill="#f25282"/>
        <path id="path846" d="M516.262-186.827a12.713,12.713,0,0,0,11.5,0c3.174-1.833,3.174-4.807,0-6.641a12.713,12.713,0,0,0-11.5,0c-3.177,1.833-3.175,4.807,0,6.641" transform="translate(-167.722 507.536)" fill="#f8a3c2"/>
        <path id="path848" d="M161.038-514.953s-.149,7.482,3.761,9.113c3.15-.629-.369-8.687-.369-8.687l-3.392-.427" transform="translate(-90.842 577.284)" fill="#1f2f58"/>
        <path id="path850" d="M220.391-438.157l2.637-1.478a3.359,3.359,0,0,1-1.268,1.319,12.619,12.619,0,0,1-1.369.158" transform="translate(-103.774 560.873)" fill="#8ecce5"/>
        <g id="g852" transform="translate(75.672 145.329)">
          <g id="g854" clip-path="url(#clip-path-15)">
            <path id="path866" d="M168.049-408.5l-.009-.005.593-.333-.584.338" transform="translate(-168.04 408.834)" fill="url(#radial-gradient-12)"/>
          </g>
        </g>
        <path id="path868" d="M174.66-410.82c-2.113-.955-4.431-2.006-6.608-3l.584-.338,34.117-19.118-.637,4.7.077,1.861L174.66-410.82" transform="translate(-92.37 559.488)" fill="#8ecce5"/>
        <path id="path870" d="M181.635-406.677c-1.338-.6-3.145-1.415-5.134-2.314l27.532-15.895.216,5.153-22.614,13.056" transform="translate(-94.211 557.66)" fill="#60afe4"/>
        <path id="path872" d="M201.976-348.288h-.091l-.27-.012c-.122-.007-.248-.02-.377-.039-.094-.011-.187-.022-.284-.041-.139-.022-.281-.052-.424-.083-.1-.024-.193-.043-.3-.069-.152-.041-.313-.092-.473-.143-.1-.03-.2-.059-.3-.1-.18-.063-.365-.139-.552-.216l-.271-.107c-.284-.126-.574-.265-.871-.422-4.962-2.619-6.018-3.307-6.983-3.859a1.62,1.62,0,0,1-.39-.308l-.07-.077a1.186,1.186,0,0,1-.2-.368l-.005-.021a1.743,1.743,0,0,1-.067-.438l0-.092a11.771,11.771,0,0,1,.142-1.452.647.647,0,0,1,.255-.393c-.245-.184-5.044-47.669-5.044-47.669l-2.334-1.047L205.679-418.3l.018.43c4.182,3.791,7.794,8.046,8.771,12.042a68.6,68.6,0,0,1,1.427,10.783v3.466l.194-.112c.046.966.084,1.936.116,2.9l-.31.179v3.776l.4-.233c.017,1,.028,1.992.035,2.95l-.439.253v3.776l.441-.255c-.005,1.066-.016,2.07-.028,2.987l-.413.239v3.777l.337-.194c-.032,1.2-.058,1.894-.058,1.894s-.045.08-.111.188c1.319,1.015,6.037,4.691,7.181,6.347a1.875,1.875,0,0,1,.242.5v0a1.4,1.4,0,0,1-.7,1.673l-.252.126-.133.062-.241.079-.214.058-.245.045c-.091.015-.182.029-.277.036l-.255.017c-.067,0-.135,0-.2,0-.042,0-.084,0-.127,0l-.27-.01c-.122-.009-.248-.022-.378-.039-.094-.011-.187-.024-.284-.041-.139-.022-.28-.053-.424-.085-.1-.022-.193-.043-.3-.069-.153-.039-.314-.09-.474-.141-.1-.032-.2-.062-.3-.1-.18-.063-.365-.139-.553-.214l-.27-.112q-.425-.183-.87-.418c-4.963-2.618-6.019-3.31-6.984-3.859a1.623,1.623,0,0,1-.39-.31l-.07-.077a1.18,1.18,0,0,1-.2-.367l-.005-.022a1.773,1.773,0,0,1-.068-.436l0-.094a5.361,5.361,0,0,1,.038-.629c-.129-.053-.217-.1-.217-.1l-4.178-37.006s-2.707,8.158-6.9,8.158a3.458,3.458,0,0,1-1.312-.266c3.152,3.9-1.008.08-.437,4.211,1.539,11.125,1.568,35.327,1.568,35.327s-.066.071-.166.167c1.615,1.248,5.825,4.575,6.9,6.124a1.86,1.86,0,0,1,.243.5v0a1.4,1.4,0,0,1-.7,1.671l-.252.126-.133.064-.241.077-.214.058-.245.046c-.091.016-.182.028-.277.039l-.254.014c-.079,0-.159.005-.24.005" transform="translate(-95.641 556.224)" fill="#cfdfe4"/>
        <path id="path874" d="M225.041-385.1v-3.466c.076,1.1.14,2.226.194,3.355l-.194.112" transform="translate(-104.787 549.746)" fill="#b5d2d8"/>
        <path id="path876" d="M225.041-376.608v-3.776l.31-.179c.042,1.254.072,2.5.094,3.723l-.4.233" transform="translate(-104.787 548.002)" fill="#b5d2d8"/>
        <path id="path878" d="M225.041-368v-3.776l.439-.253c.008,1.321.008,2.587,0,3.775l-.441.254" transform="translate(-104.787 546.143)" fill="#b5d2d8"/>
        <path id="path880" d="M225.041-359.37v-3.777l.413-.239c-.022,1.545-.051,2.85-.076,3.822l-.337.194" transform="translate(-104.787 544.26)" fill="#b5d2d8"/>
        <path id="path882" d="M221.7-425.939s-5.954.483-7.213,5.388c-1,4.215-2.694,1.666-2.346,2.448s3.346,6.677,6.214,4.07,7.085-5.3,5.454-10.821a3.761,3.761,0,0,0-2.109-1.085" transform="translate(-101.966 557.889)" fill="#162337"/>
        <path id="path884" d="M201.412-412.831s-5.954.483-7.213,5.388c-1,4.215-1.042,4.389-.694,5.171s1.695,3.953,4.562,1.346,8.7-3.391,7.069-8.908c-1.153-1.042-3.724-3-3.724-3" transform="translate(-97.873 555.033)" fill="#1f2f58"/>
        <g id="g886" transform="translate(89.582 71.445)">
          <g id="g888" clip-path="url(#clip-path-16)">
            <path id="path900" d="M189.478-503.234s-.107-1.056-2.966,5.285,4.005,26.6,5.634,28.822,22.049,8.479,26.539,1.547c-2.8-1.44-.1-3.51-.647-6.751-8.34,2.919-20.36-2.108-22.91-4.222-4.251-3.524,2.047-15.906-5.651-24.68" transform="translate(-185.824 503.3)" fill="url(#linear-gradient-4)"/>
          </g>
        </g>
        <path id="path902" d="M229.424-371.81s6.967,4.668,8.3,6.6-1.562,4-6.524,1.377-6.018-3.308-6.984-3.857-.9-3.227,0-4.837c.7-1.252,5.2.719,5.2.719" transform="translate(-104.455 546.343)" fill="#f25282"/>
        <path id="path904" d="M224.2-367.632c.966.552,2.022,1.24,6.984,3.859,3.729,1.966,6.288,1.289,6.767.011.558,1.75-2.238,3.265-6.767.874-4.962-2.617-6.018-3.308-6.984-3.857-.737-.423-.8-.979-.71-1.853a1.29,1.29,0,0,0,.71.966" transform="translate(-104.443 545.395)" fill="#454547"/>
        <g id="g906" transform="translate(72.646 114.937)">
          <g id="g908" clip-path="url(#clip-path-17)">
            <path id="path920" d="M164.17-447.692s.228,14.013,12.608,17.06,28.57,7.789,28.57,7.789l6.191,35.463s2.105,2.1,3.759,1.416a2.014,2.014,0,0,0,1.194-2.133s.858-26.238-1.433-37.233c-1.694-8.13-30.438-20.383-30.438-20.383l-20.452-1.98" transform="translate(-164.17 447.692)" fill="url(#linear-gradient-5)"/>
          </g>
        </g>
        <path id="path922" d="M213.366-429.675c-6.629-9.351-22.3-18.388-22.3-18.388l-26.9.29s.228,14.013,12.608,17.06c10.478,2.579,23.445,9.063,26.572,10.513.1-5.758,4.487-11.966,10.016-9.475" transform="translate(-91.524 562.71)" fill="#1f2f58"/>
        <path id="path924" d="M205.954-356.35s6.2,4.687,7.533,6.618-1.561,4-6.523,1.377-6.018-3.307-6.984-3.857-.967-3.483.08-5.349c.7-1.252,5.893,1.212,5.893,1.212" transform="translate(-99.171 543.068)" fill="#f25282"/>
        <path id="path926" d="M199.973-352.028c.966.552,2.022,1.24,6.984,3.859,3.729,1.966,6.288,1.289,6.767.013.558,1.749-2.238,3.264-6.767.873-4.962-2.616-6.018-3.307-6.984-3.857-.737-.423-.8-.979-.709-1.853a1.287,1.287,0,0,0,.709.966" transform="translate(-99.163 541.995)" fill="#454547"/>
        <g id="g928" transform="translate(60.356 123.214)">
          <g id="g930" transform="translate(0)" clip-path="url(#clip-path-18)">
            <path id="path942" d="M148.489-437.11s-1.2,13.965,10.811,18.253,26.851,9.733,26.851,9.733l2.912,35.173a4.109,4.109,0,0,0,3.433,1.608c2.47,0,2.387-1.263,2.387-1.263s2.62-25.437,1.079-36.561-17.448-24.2-17.448-24.2l-30.025-2.74" transform="translate(-148.456 437.11)" fill="url(#linear-gradient-6)"/>
          </g>
        </g>
        <path id="path944" d="M195.364-415.123c-4.56-9.711-16.85-19.247-16.85-19.247l-30.025-2.739s-1.2,13.965,10.811,18.253c10.552,3.769,22.686,11.252,25.157,12.731,1.612-5.32,4.065-10.592,10.907-9" transform="translate(-88.1 560.323)" fill="#223e73"/>
        <path id="path946" d="M188.488-459.922s1.335-41.866-11.437-46.757-24.471,6.748-29.464,18.019-3.676,30.893,0,38.18c17.519,12.058,41.4-3.652,40.9-9.442" transform="translate(-87.199 575.731)" fill="#f793b9"/>
        <path id="path948" d="M147.588-488.66c4.993-11.271,16.692-22.909,29.464-18.019a7.443,7.443,0,0,1,1.211.6c-9.405,1.2-17.4,10.225-21.3,19.033-4.99,11.271-3.676,30.892,0,38.178a24.727,24.727,0,0,0,5.408,2.808,25.473,25.473,0,0,1-14.78-4.425c-3.676-7.286-4.991-26.908,0-38.18" transform="translate(-87.199 575.731)" fill="#f9b0d2"/>
        <g id="g950" transform="translate(71.369 49.918)">
          <g id="g952" clip-path="url(#clip-path-19)">
            <path id="path964" d="M184.62-530.352s3.187,5.1.331,16.178c-2.321,8.974-2.664,13.937-6.409,14.317s-14.96-2.359-13.737-11.7c-1.116-.24-3.4-4.513-1.6-7.912s3.065.316,3.065.316-.072-7.405,5.162-10.1,13.187-1.095,13.187-1.095" transform="translate(-162.537 530.825)" fill="url(#linear-gradient-7)"/>
          </g>
        </g>
        <path id="path966" d="M172.191-522.749c.019-.43,4,5.244,10.384,3.411a3.935,3.935,0,0,1-2.705-2.212,5.65,5.65,0,0,0,5.813,1.889,8.425,8.425,0,0,1-2.322-1.345,6.327,6.327,0,0,0,4.768.354c-1.47-.634-1.25-1.6-1.25-1.6s1.3,1.3,3.829-.9c-1.029-.132-.927-4.853-4.643-8.253s-6.732-4.191-11.709-3.352a4.6,4.6,0,0,1,4.266-1.686c-1.988-1.109-6.189.88-7.431,2.718-3.865-1.483-11.147,1.089-8.743,15.17.039-.355.371-2.645,1.735-3.078s2.515,2.251,2.2,2.93a30.408,30.408,0,0,0-.457,4.7l1.763.924s-.547-3.491.71-4.544,3.547.251,3.788-5.114" transform="translate(-91.045 582.038)" fill="#1f2f58"/>
        <path id="path968" d="M220.745-478.483l-7.568,10.155-24.449-5.7,1.4,31.6,22.236-.269,7.324-8.912,1.052-26.874" transform="translate(-96.875 569.338)" fill="#fff"/>
        <path id="path970" d="M227.331-483.945l-7.568,14.427-.808,25.631,7.324-8.912,1.052-31.147" transform="translate(-103.461 570.528)" fill="#ebf9fe"/>
        <g id="g972" transform="translate(120.266 102.447)">
          <g id="g974" clip-path="url(#clip-path-20)">
            <path id="path986" d="M228.207-463.662s-1.681,3.438-2.722,3.833-.235,6.121,2.958,4.284,1.688-7.935-.237-8.117" transform="translate(-225.057 463.662)" fill="url(#linear-gradient-8)"/>
          </g>
        </g>
        <g id="g988" transform="translate(55.947 79.831)">
          <g id="g990" clip-path="url(#clip-path-21)">
            <path id="path1002" d="M189.311-459.977c-1.777-.124-3.8.308-6.921.365s-3.01-1.706-3.129-4.227c-.987.732-1.586,2.7-3.181,3.855s-2.346,0-2.346,0l-.337.252c-11.311-2-19.3-4.8-21.1-7.493-1.836-2.756,3.206-11.083,3.64-18.6,0,0,1.006-9.429-5.046-6s-8.077,27.593-8.077,30.349,20.289,6.58,30.9,7.55a14.6,14.6,0,0,0,6.112,2.1c9.14-.177,11.259-8.03,9.481-8.153" transform="translate(-142.82 492.578)" fill="url(#linear-gradient-9)"/>
          </g>
        </g>
        <path id="path1004" d="M157.317-486.665s-.539-8.606-6.592-5.179c-3.1,1.758-6.3,11.028-8.69,17.044a26.8,26.8,0,0,0,11.356,4.822,28.2,28.2,0,0,0,3.925-16.687" transform="translate(-86.701 572.425)" fill="#f46aa1"/>
        <path id="path1006" d="M188.18-529.544s-.407,6.162-26.264,8.7a7.521,7.521,0,0,1-1.54-3.928c-.48-3.311.142-7.324.968-8.912,1.22-2.347.925-5.563-.535-7.04s-1.148-4.693,3.91-2.433,18.055.543,23.462,13.611" transform="translate(-90.626 583.599)" fill="#f46aa1"/>
        <path id="path1010" d="M162.26-544.631a3.7,3.7,0,0,1-3.7,3.7,3.7,3.7,0,0,1-3.7-3.7,3.7,3.7,0,0,1,3.7-3.7,3.7,3.7,0,0,1,3.7,3.7" transform="translate(-89.498 584.556)" fill="#fff"/>
      </g>
    </g>
  </g>
</svg>
