<svg xmlns="http://www.w3.org/2000/svg" width="211" height="211" viewBox="0 0 211 211">
  <g id="Group_30" data-name="Group 30" transform="translate(-70.5 -1281)">
    <g id="learnMobileView" transform="translate(-0.5)">
      <circle id="Ellipse_12" data-name="Ellipse 12" cx="105.5" cy="105.5" r="105.5" transform="translate(71 1281)" fill="#223e73"/>
      <g id="seminar" transform="translate(143 1380.001)">
        <path id="Path_3" data-name="Path 3" d="M387.116,318.954a5.72,5.72,0,1,0-11.44,0v2.724a5.72,5.72,0,1,0,11.44,0Zm0,0" transform="translate(-326.51 -272.24)" fill="#feccc1"/>
        <path id="Path_4" data-name="Path 4" d="M411.693,313.234a5.764,5.764,0,0,0-1.158.118,5.722,5.722,0,0,1,4.563,5.6v2.724a5.722,5.722,0,0,1-4.563,5.6,5.724,5.724,0,0,0,6.878-5.6v-2.724A5.721,5.721,0,0,0,411.693,313.234Zm0,0" transform="translate(-356.807 -272.24)" fill="#f9b3a7"/>
        <path id="Path_5" data-name="Path 5" d="M351.008,422.908v-2.631a8.172,8.172,0,0,0-5.491-7.72l-3.447-1.2a5.454,5.454,0,0,0-1.787-.3H337.49a5.451,5.451,0,0,0-1.787.3l-3.447,1.2a8.171,8.171,0,0,0-5.491,7.72v3.993h22.881a1.362,1.362,0,0,0,1.362-1.362Zm0,0" transform="translate(-284 -357.262)" fill="#2b7eec"/>
        <path id="Path_6" data-name="Path 6" d="M464.971,420.742l-.764-.265a8.173,8.173,0,0,1,3.259,6.53v5.448H469.1a1.362,1.362,0,0,0,1.362-1.362v-2.631A8.172,8.172,0,0,0,464.971,420.742Zm0,0" transform="translate(-403.454 -365.447)" fill="#669af7"/>
        <path id="Path_7" data-name="Path 7" d="M60.35,318.954a5.72,5.72,0,0,0-11.44,0v2.724a5.72,5.72,0,0,0,11.44,0Zm0,0" transform="translate(-42.509 -272.24)" fill="#feccc1"/>
        <path id="Path_8" data-name="Path 8" d="M84.931,313.234a5.758,5.758,0,0,0-1.157.118,5.722,5.722,0,0,1,4.562,5.6v2.724a5.722,5.722,0,0,1-4.562,5.6,5.723,5.723,0,0,0,6.878-5.6v-2.724A5.72,5.72,0,0,0,84.931,313.234Zm0,0" transform="translate(-72.81 -272.24)" fill="#f9b3a7"/>
        <path id="Path_9" data-name="Path 9" d="M24.242,424.269v-3.993a8.172,8.172,0,0,0-5.491-7.72l-3.447-1.2a5.45,5.45,0,0,0-1.787-.3H10.725a5.453,5.453,0,0,0-1.787.3l-3.447,1.2A8.172,8.172,0,0,0,0,420.276v2.631a1.362,1.362,0,0,0,1.362,1.362Zm0,0" transform="translate(0 -357.262)" fill="#2b7eec"/>
        <path id="Path_10" data-name="Path 10" d="M139.8,421.3l-.523-.181a8.169,8.169,0,0,1,3.154,6.447v5.448h2.86v-3.993a8.172,8.172,0,0,0-5.491-7.72Zm0,0" transform="translate(-121.053 -366.004)" fill="#669af7"/>
        <path id="Path_11" data-name="Path 11" d="M223.733,318.954a5.72,5.72,0,1,0-11.44,0v2.724a5.72,5.72,0,1,0,11.44,0Zm0,0" transform="translate(-184.509 -272.24)" fill="#feccc1"/>
        <path id="Path_12" data-name="Path 12" d="M248.31,313.234a5.763,5.763,0,0,0-1.158.118,5.722,5.722,0,0,1,4.563,5.6v2.724a5.722,5.722,0,0,1-4.563,5.6,5.724,5.724,0,0,0,6.878-5.6v-2.724A5.72,5.72,0,0,0,248.31,313.234Zm0,0" transform="translate(-214.806 -272.24)" fill="#f9b3a7"/>
        <path id="Path_13" data-name="Path 13" d="M187.625,424.269v-3.993a8.172,8.172,0,0,0-5.491-7.72l-3.447-1.2a5.452,5.452,0,0,0-1.787-.3h-2.793a5.452,5.452,0,0,0-1.787.3l-3.447,1.2a8.172,8.172,0,0,0-5.491,7.72v3.993Zm0,0" transform="translate(-142 -357.262)" fill="#2b7eec"/>
        <path id="Path_14" data-name="Path 14" d="M301.588,420.742l-.764-.265a8.173,8.173,0,0,1,3.259,6.53v5.448h3v-3.993a8.172,8.172,0,0,0-5.491-7.72Zm0,0" transform="translate(-261.454 -365.447)" fill="#669af7"/>
        <path id="Path_15" data-name="Path 15" d="M12.121,168.266H22.881a1.362,1.362,0,0,0,1.362-1.362v-3.677a8.172,8.172,0,0,0-8.172-8.172h-7.9A8.172,8.172,0,0,0,0,163.227V166.9a1.362,1.362,0,0,0,1.362,1.362Zm0,0" transform="translate(0 -134.762)" fill="#ff6969"/>
        <path id="Path_16" data-name="Path 16" d="M127.941,155.285a8.164,8.164,0,0,1,3.821,6.916v6.265h2.315a1.362,1.362,0,0,0,1.362-1.362v-3.677A8.171,8.171,0,0,0,127.941,155.285Zm0,0" transform="translate(-111.197 -134.963)" fill="#ea4747"/>
        <path id="Path_17" data-name="Path 17" d="M60.35,60.876a5.72,5.72,0,1,0-11.44,0v3a5.72,5.72,0,0,0,11.44,0Zm0,0" transform="translate(-42.509 -47.938)" fill="#feccc1"/>
        <path id="Path_18" data-name="Path 18" d="M84.931,55.152a5.757,5.757,0,0,0-1.157.118,5.722,5.722,0,0,1,4.562,5.6v3a5.722,5.722,0,0,1-4.562,5.6,5.726,5.726,0,0,0,6.878-5.6v-3a5.72,5.72,0,0,0-5.72-5.721Zm0,0" transform="translate(-72.81 -47.935)" fill="#f9b3a7"/>
        <path id="Path_19" data-name="Path 19" d="M255.584,33.5H219.9a1.362,1.362,0,0,1-1.362-1.362V1.361A1.361,1.361,0,0,1,219.9,0h35.683a1.362,1.362,0,0,1,1.362,1.362v30.78A1.362,1.362,0,0,1,255.584,33.5Zm0,0" transform="translate(-189.938)" fill="#2b7eec"/>
        <path id="Path_20" data-name="Path 20" d="M496.391,0V33.5h.681a1.362,1.362,0,0,0,1.362-1.362V1.361A1.362,1.362,0,0,0,497.072,0Zm0,0" transform="translate(-431.426)" fill="#2b7eec"/>
        <path id="Path_21" data-name="Path 21" d="M218.535,223.886v-3.269h38.407v3.269a1.362,1.362,0,0,1-1.362,1.362H219.9a1.362,1.362,0,0,1-1.362-1.362Zm0,0" transform="translate(-189.934 -191.745)" fill="#ffd664"/>
        <path id="Path_22" data-name="Path 22" d="M254.9,220.617v1.226a1.362,1.362,0,0,1-1.362,1.362h-35v.681a1.362,1.362,0,0,0,1.362,1.362h35.683a1.362,1.362,0,0,0,1.362-1.362v-3.269Zm0,0" transform="translate(-189.935 -191.744)" fill="#f9c646"/>
        <path id="Path_23" data-name="Path 23" d="M266.375,36.667a5.448,5.448,0,1,1-5.448-5.448A5.448,5.448,0,0,1,266.375,36.667Zm0,0" transform="translate(-222.044 -27.134)" fill="#ffd664"/>
        <g id="Group_1" data-name="Group 1" transform="translate(32.891 4.971)">
          <path id="Path_24" data-name="Path 24" d="M379.613,40.027h-12.8a1.021,1.021,0,1,1,0-2.043h12.8a1.021,1.021,0,1,1,0,2.043Zm0,0" transform="translate(-350.807 -37.984)" fill="#636363"/>
          <path id="Path_25" data-name="Path 25" d="M379.613,94.141h-12.8a1.021,1.021,0,1,1,0-2.043h12.8a1.021,1.021,0,1,1,0,2.043Zm0,0" transform="translate(-350.807 -85.016)" fill="#636363"/>
          <path id="Path_26" data-name="Path 26" d="M280.122,146.172H252.338a1.021,1.021,0,1,1,0-2.043h27.784a1.021,1.021,0,1,1,0,2.043Zm0,0" transform="translate(-251.316 -130.237)" fill="#636363"/>
        </g>
      </g>
    </g>
    <text id="Learn" transform="translate(155 1340)" fill="#fff" font-size="18" font-family="SegoeUI, Segoe UI"><tspan x="0" y="0">Learn</tspan></text>
  </g>
</svg>
