<svg xmlns="http://www.w3.org/2000/svg" width="57" height="62.762" viewBox="0 0 57 62.762">
  <g id="Group_27" data-name="Group 27" transform="translate(-139 -152.238)">
    <path id="path16" d="M1004.764-340.818c.051,0,.1,0,.153.007.292.011.589.029.894.052a25.658,25.658,0,0,1,3.968.6v-3.2a23.672,23.672,0,0,0-4.1-.651c-.526-.04-1.082-.066-1.657-.077-.153,0-.308,0-.465,0h-.014a33.591,33.591,0,0,0-8.22,1.055,33.444,33.444,0,0,0-8.737,3.532v31.681a35.628,35.628,0,0,1,8.32-3.225,36.391,36.391,0,0,1,7-1.066h.032l.06,0c.4-.02.789-.031,1.194-.035V-315.4a38.832,38.832,0,0,0-9.075,1.2c-1.1.277-2.16.59-3.156.931l-1.126.385v-24.7l.484-.231a31.182,31.182,0,0,1,5.8-2.077,31.065,31.065,0,0,1,5.977-.917c.04,0,.075,0,.1-.005.451-.023.906-.034,1.351-.034.165,0,.327,0,.489.005h.021c.235.006.473.012.708.026" transform="translate(-842.724 496.33)" fill="#fff"/>
    <path id="path18" d="M1099.128-328.47l1.124-.38v24.7l-.485.231a31.311,31.311,0,0,1-5.8,2.074,30.355,30.355,0,0,1-7.426.956c-.747,0-1.491-.031-2.212-.094l-.778-.067v-2.992l.006.006v-22.426l.906.059c.659.043,1.339.063,2.078.063a38.609,38.609,0,0,0,9.429-1.2C1097.033-327.808,1098.1-328.122,1099.128-328.47Zm-12.588-.541c-.745,0-1.484-.027-2.2-.079-.864-.063-1.723-.166-2.552-.3-.506-.086-1-.186-1.485-.3v31.319a25.229,25.229,0,0,0,6.233.731,33.72,33.72,0,0,0,8.221-1.052,33.6,33.6,0,0,0,8.733-3.532v-31.116a35.711,35.711,0,0,1-8.317,3.228,35.421,35.421,0,0,1-8.637,1.1" transform="translate(-916.502 487.868)" fill="#3853db"/>
    <text id="RightPaths" transform="translate(140 206)" fill="#fff" font-size="9" font-family="SegoeUI-Light, Segoe UI" font-weight="300" letter-spacing="0.19em"><tspan x="0" y="0">RightPaths</tspan></text>
    <text id="College_Preparation" data-name="College Preparation" transform="translate(139 214)" fill="#fff" font-size="4" font-family="SegoeUI-Bold, Segoe UI" font-weight="700" letter-spacing="0.271em"><tspan x="0" y="0">College Preparation</tspan></text>
  </g>
</svg>
