<svg xmlns="http://www.w3.org/2000/svg" width="733" height="616" viewBox="0 0 733 616">
  <g id="planImage" transform="translate(-317 -1248)">
    <g id="Ellipse_4" data-name="Ellipse 4" transform="translate(433 1364)" fill="none" stroke="#fff" stroke-width="3" stroke-dasharray="10">
      <circle cx="250" cy="250" r="250" stroke="none"/>
      <circle cx="250" cy="250" r="248.5" fill="none"/>
    </g>
    <circle id="Ellipse_2" data-name="Ellipse 2" cx="116.5" cy="116.5" r="116.5" transform="translate(317 1597)" fill="#223e73"/>
    <circle id="Ellipse_1" data-name="Ellipse 1" cx="116.5" cy="116.5" r="116.5" transform="translate(567 1248)" fill="#223e73"/>
    <circle id="Ellipse_3" data-name="Ellipse 3" cx="116.5" cy="116.5" r="116.5" transform="translate(817 1597)" fill="#223e73"/>
    <g id="seminar" transform="translate(646 1347.001)">
      <path id="Path_3" data-name="Path 3" d="M388.407,319.6a6.365,6.365,0,0,0-12.731,0v3.032a6.365,6.365,0,1,0,12.731,0Zm0,0" transform="translate(-320.963 -267.615)" fill="#feccc1"/>
      <path id="Path_4" data-name="Path 4" d="M411.824,313.234a6.412,6.412,0,0,0-1.289.131,6.368,6.368,0,0,1,5.078,6.235v3.032a6.368,6.368,0,0,1-5.078,6.235,6.37,6.37,0,0,0,7.654-6.235V319.6A6.366,6.366,0,0,0,411.824,313.234Zm0,0" transform="translate(-350.745 -267.615)" fill="#f9b3a7"/>
      <path id="Path_5" data-name="Path 5" d="M353.743,424.244v-2.928a9.094,9.094,0,0,0-6.111-8.59l-3.836-1.332a6.068,6.068,0,0,0-1.989-.335H338.7a6.065,6.065,0,0,0-1.988.335l-3.836,1.332a9.093,9.093,0,0,0-6.111,8.59v4.444h25.462a1.516,1.516,0,0,0,1.516-1.516Zm0,0" transform="translate(-279.176 -351.193)" fill="#2b7eec"/>
      <path id="Path_6" data-name="Path 6" d="M465.057,420.772l-.85-.3a9.1,9.1,0,0,1,3.626,7.267v6.062h1.819a1.516,1.516,0,0,0,1.516-1.516v-2.928a9.094,9.094,0,0,0-6.111-8.59Zm0,0" transform="translate(-396.6 -359.239)" fill="#669af7"/>
      <path id="Path_7" data-name="Path 7" d="M61.641,319.6a6.365,6.365,0,0,0-12.731,0v3.032a6.365,6.365,0,1,0,12.731,0Zm0,0" transform="translate(-41.787 -267.615)" fill="#feccc1"/>
      <path id="Path_8" data-name="Path 8" d="M85.061,313.234a6.407,6.407,0,0,0-1.288.131A6.367,6.367,0,0,1,88.85,319.6v3.032a6.367,6.367,0,0,1-5.077,6.235,6.369,6.369,0,0,0,7.653-6.235V319.6A6.366,6.366,0,0,0,85.061,313.234Zm0,0" transform="translate(-71.573 -267.615)" fill="#f9b3a7"/>
      <path id="Path_9" data-name="Path 9" d="M26.977,425.76v-4.444a9.094,9.094,0,0,0-6.111-8.59l-3.836-1.332a6.065,6.065,0,0,0-1.988-.335H11.935a6.068,6.068,0,0,0-1.989.335L6.11,412.725A9.094,9.094,0,0,0,0,421.316v2.928a1.516,1.516,0,0,0,1.516,1.516Zm0,0" transform="translate(0 -351.193)" fill="#2b7eec"/>
      <path id="Path_10" data-name="Path 10" d="M139.863,421.319l-.582-.2a9.091,9.091,0,0,1,3.51,7.174v6.062h3.182V429.91a9.094,9.094,0,0,0-6.111-8.59Zm0,0" transform="translate(-118.996 -359.786)" fill="#669af7"/>
      <path id="Path_11" data-name="Path 11" d="M225.024,319.6a6.365,6.365,0,0,0-12.731,0v3.032a6.365,6.365,0,1,0,12.731,0Zm0,0" transform="translate(-181.375 -267.615)" fill="#feccc1"/>
      <path id="Path_12" data-name="Path 12" d="M248.441,313.234a6.412,6.412,0,0,0-1.289.131,6.368,6.368,0,0,1,5.078,6.235v3.032a6.368,6.368,0,0,1-5.078,6.235,6.37,6.37,0,0,0,7.654-6.235V319.6A6.366,6.366,0,0,0,248.441,313.234Zm0,0" transform="translate(-211.157 -267.615)" fill="#f9b3a7"/>
      <path id="Path_13" data-name="Path 13" d="M190.36,425.76v-4.444a9.094,9.094,0,0,0-6.111-8.59l-3.836-1.332a6.068,6.068,0,0,0-1.988-.335h-3.109a6.067,6.067,0,0,0-1.988.335l-3.836,1.332a9.094,9.094,0,0,0-6.111,8.59v4.444Zm0,0" transform="translate(-139.588 -351.193)" fill="#2b7eec"/>
      <path id="Path_14" data-name="Path 14" d="M301.674,420.772l-.85-.3a9.1,9.1,0,0,1,3.626,7.267v6.062h3.334v-4.444a9.094,9.094,0,0,0-6.111-8.591Zm0,0" transform="translate(-257.012 -359.239)" fill="#669af7"/>
      <path id="Path_15" data-name="Path 15" d="M13.489,169.756H25.462a1.516,1.516,0,0,0,1.516-1.516v-4.092a9.094,9.094,0,0,0-9.093-9.094H9.093A9.094,9.094,0,0,0,0,164.149v4.092a1.516,1.516,0,0,0,1.516,1.516Zm0,0" transform="translate(0 -132.473)" fill="#ff6969"/>
      <path id="Path_16" data-name="Path 16" d="M127.941,155.285a9.085,9.085,0,0,1,4.252,7.7v6.972h2.577a1.516,1.516,0,0,0,1.516-1.516v-4.092A9.092,9.092,0,0,0,127.941,155.285Zm0,0" transform="translate(-109.308 -132.67)" fill="#ea4747"/>
      <path id="Path_17" data-name="Path 17" d="M61.641,61.522a6.365,6.365,0,1,0-12.731,0v3.334a6.365,6.365,0,0,0,12.731,0Zm0,0" transform="translate(-41.787 -47.124)" fill="#feccc1"/>
      <path id="Path_18" data-name="Path 18" d="M85.061,55.152a6.406,6.406,0,0,0-1.288.131,6.367,6.367,0,0,1,5.077,6.235v3.334a6.367,6.367,0,0,1-5.077,6.235,6.372,6.372,0,0,0,7.653-6.235V61.518a6.366,6.366,0,0,0-6.365-6.366Zm0,0" transform="translate(-71.573 -47.12)" fill="#f9b3a7"/>
      <path id="Path_19" data-name="Path 19" d="M259.764,37.283H220.055a1.515,1.515,0,0,1-1.516-1.516V1.515A1.515,1.515,0,0,1,220.055,0h39.709a1.516,1.516,0,0,1,1.516,1.516V35.768A1.516,1.516,0,0,1,259.764,37.283Zm0,0" transform="translate(-186.712)" fill="#2b7eec"/>
      <path id="Path_20" data-name="Path 20" d="M496.391,0V37.283h.758a1.516,1.516,0,0,0,1.516-1.516V1.515A1.516,1.516,0,0,0,497.149,0Zm0,0" transform="translate(-424.097)" fill="#2b7eec"/>
      <path id="Path_21" data-name="Path 21" d="M218.535,224.255v-3.638h42.74v3.638a1.516,1.516,0,0,1-1.516,1.516H220.051a1.516,1.516,0,0,1-1.516-1.516Zm0,0" transform="translate(-186.708 -188.487)" fill="#ffd664"/>
      <path id="Path_22" data-name="Path 22" d="M259,220.617v1.364a1.516,1.516,0,0,1-1.516,1.516H218.536v.758a1.516,1.516,0,0,0,1.516,1.516H259.76a1.515,1.515,0,0,0,1.516-1.516v-3.638Zm0,0" transform="translate(-186.708 -188.487)" fill="#f9c646"/>
      <path id="Path_23" data-name="Path 23" d="M267.6,37.282a6.062,6.062,0,1,1-6.062-6.063A6.062,6.062,0,0,1,267.6,37.282Zm0,0" transform="translate(-218.272 -26.673)" fill="#ffd664"/>
      <g id="Group_1" data-name="Group 1" transform="translate(36.601 5.532)">
        <path id="Path_24" data-name="Path 24" d="M381.172,40.258H366.926a1.137,1.137,0,1,1,0-2.273h14.247a1.137,1.137,0,1,1,0,2.273Zm0,0" transform="translate(-349.117 -37.984)" fill="#636363"/>
        <path id="Path_25" data-name="Path 25" d="M381.172,94.371H366.926a1.137,1.137,0,1,1,0-2.273h14.247a1.137,1.137,0,1,1,0,2.273Zm0,0" transform="translate(-349.117 -84.217)" fill="#636363"/>
        <path id="Path_26" data-name="Path 26" d="M283.371,146.4H252.453a1.137,1.137,0,1,1,0-2.273h30.918a1.137,1.137,0,1,1,0,2.273Zm0,0" transform="translate(-251.316 -128.67)" fill="#636363"/>
      </g>
    </g>
    <g id="student" transform="translate(404 1702)">
      <path id="Path_27" data-name="Path 27" d="M366.7,15.783a2.945,2.945,0,0,0-1.894-2.75V1.052a1.052,1.052,0,0,0-2.1,0V13.034a2.942,2.942,0,0,0,0,5.5v3.283a1.052,1.052,0,0,0,2.1,0V18.532A2.944,2.944,0,0,0,366.7,15.783Zm0,0" transform="translate(-311.426 0)" fill="#ffd664"/>
      <path id="Path_28" data-name="Path 28" d="M367.7,96.66a2.943,2.943,0,0,1-4.019,4.019A2.945,2.945,0,1,0,367.7,96.66Zm0,0" transform="translate(-313.904 -83.431)" fill="#f9c646"/>
      <path id="Path_29" data-name="Path 29" d="M65.493,0H13.865a1.052,1.052,0,0,0,0,2.1h8.979V15.5H56.514V2.1h8.979a1.052,1.052,0,0,0,0-2.1Zm0,0" transform="translate(-11.059 0)" fill="#636363"/>
      <path id="Path_30" data-name="Path 30" d="M20.2,342.871,8.219,346.2A11.223,11.223,0,0,0,0,357.013v7.637a1.369,1.369,0,0,0,1.369,1.369h54.5a1.369,1.369,0,0,0,1.369-1.369v-7.637A11.223,11.223,0,0,0,49.02,346.2l-11.983-3.329Zm0,0" transform="translate(0 -295.943)" fill="#2b7eec"/>
      <path id="Path_31" data-name="Path 31" d="M184.343,416.672l1.684,8.418-4.349,4.629-4.349-4.629,1.684-8.418Zm0,0" transform="translate(-153.058 -359.643)" fill="#ff6969"/>
      <path id="Path_32" data-name="Path 32" d="M213.455,425.09l-1.684-8.418h-2.666l2.134,10.775,2.215-2.357Zm0,0" transform="translate(-180.486 -359.643)" fill="#ea4747"/>
      <path id="Path_33" data-name="Path 33" d="M237.726,364.135v7.637a1.369,1.369,0,0,1-1.369,1.369H209.106l8.277-8.7,4.2-13.321,7.918,2.2a11.222,11.222,0,0,1,8.22,10.814Zm0,0" transform="translate(-180.487 -303.064)" fill="#636363"/>
      <path id="Path_34" data-name="Path 34" d="M352.431,365.6l-.908-.252a11.219,11.219,0,0,1,3.936,8.534v11.538h3.823a1.369,1.369,0,0,0,1.369-1.369v-7.637A11.223,11.223,0,0,0,352.431,365.6Zm0,0" transform="translate(-303.411 -315.343)" fill="#494949"/>
      <path id="Path_35" data-name="Path 35" d="M8.22,353.32l7.918-2.2,4.2,13.321,8.277,8.7H1.369A1.369,1.369,0,0,1,0,371.771v-7.637A11.223,11.223,0,0,1,8.22,353.32Zm0,0" transform="translate(-0.001 -303.064)" fill="#636363"/>
      <path id="Path_36" data-name="Path 36" d="M182.3,266.817l-5.051,5.05-5.051-5.05v-8h10.1Zm0,0" transform="translate(-148.635 -223.396)" fill="#f9b3a7"/>
      <path id="Path_37" data-name="Path 37" d="M305.457,113.266H309.1v5.612h-3.648Zm0,0" transform="translate(-263.65 -97.764)" fill="#ffd664"/>
      <path id="Path_38" data-name="Path 38" d="M117.107,7.688v8.839a2.806,2.806,0,0,1-2.806,2.806H86.1v2.806h33.671V7.688Zm0,0" transform="translate(-74.318 -6.636)" fill="#494949"/>
      <path id="Path_39" data-name="Path 39" d="M86.1,113.266h3.648v5.612H86.1Zm0,0" transform="translate(-74.318 -97.764)" fill="#ffd664"/>
      <path id="Path_40" data-name="Path 40" d="M94.976,113.266H81.789V117.9h-2.1a2.806,2.806,0,0,0-2.806,2.806v1.964a2.806,2.806,0,0,0,2.806,2.806h2.272a13.188,13.188,0,0,0,26.207-2.1v-10.1Zm0,0" transform="translate(-66.357 -97.764)" fill="#feccc1"/>
      <path id="Path_41" data-name="Path 41" d="M212.01,117.9h-2.1v-4.629h-3.928v10.1a13.191,13.191,0,0,1-11.224,13.042,13.2,13.2,0,0,0,14.984-10.938h2.272a2.805,2.805,0,0,0,2.806-2.806V120.7a2.806,2.806,0,0,0-2.806-2.806Zm0,0" transform="translate(-168.099 -97.764)" fill="#f9b3a7"/>
      <path id="Path_42" data-name="Path 42" d="M175.042,362.7h2.665l2.736-3.157-5.4-5.4-5.4,5.4,2.736,3.157Zm0,0" transform="translate(-146.422 -305.674)" fill="#ff6969"/>
      <path id="Path_43" data-name="Path 43" d="M198.71,354.145l-1.648,1.649,2.829,2.829a1.4,1.4,0,0,1,.068,1.911l-1.88,2.17h3.3l2.736-3.156Zm0,0" transform="translate(-170.091 -305.674)" fill="#ea4747"/>
      <path id="Path_44" data-name="Path 44" d="M150.177,327.7l5.4-5.4-5.051-5.05-3.437,3.531Zm0,0" transform="translate(-126.959 -273.825)" fill="#2b7eec"/>
      <path id="Path_45" data-name="Path 45" d="M214.506,327.7l-5.4-5.4,5.051-5.05,3.437,3.531Zm0,0" transform="translate(-180.486 -273.825)" fill="#2b7eec"/>
      <g id="Group_2" data-name="Group 2" transform="translate(9.61 64.674)">
        <path id="Path_46" data-name="Path 46" d="M334.725,473.588v4.349h-2.1v-4.349a1.052,1.052,0,1,1,2.1,0Zm0,0" transform="translate(-296.706 -472.535)" fill="#494949"/>
        <path id="Path_47" data-name="Path 47" d="M70.215,477.937v-4.349a1.052,1.052,0,0,1,2.1,0v4.349Zm0,0" transform="translate(-70.215 -472.535)" fill="#494949"/>
      </g>
    </g>
    <g id="questionnaire" transform="translate(905 1705.001)">
      <path id="Path_48" data-name="Path 48" d="M131.121,9.152V4.969a4.968,4.968,0,1,1,9.937,0V9.152Zm0,0" transform="translate(-114.647 -0.001)" fill="#ffd664"/>
      <path id="Path_49" data-name="Path 49" d="M136.265,0a4.993,4.993,0,0,0-1.222.108,4.969,4.969,0,0,1,3.922,4.857V6.406a.784.784,0,0,1-.785.784h-7.06V9.152h9.937V5.06A5.03,5.03,0,0,0,136.265,0Zm0,0" transform="translate(-114.647)" fill="#f9c646"/>
      <path id="Path_50" data-name="Path 50" d="M40.269,128.021H2.615A2.615,2.615,0,0,1,0,125.407V75.463a2.615,2.615,0,0,1,2.615-2.615H40.269a2.615,2.615,0,0,1,2.615,2.615v49.944A2.614,2.614,0,0,1,40.269,128.021Zm0,0" transform="translate(0 -63.696)" fill="#2b7eec"/>
      <path id="Path_51" data-name="Path 51" d="M41.158,73.262v51.722a1.307,1.307,0,0,1-1.307,1.307H.419a2.616,2.616,0,0,0,2.562,2.092H40.635a2.615,2.615,0,0,0,2.615-2.615V75.825a2.615,2.615,0,0,0-2.092-2.563Zm0,0" transform="translate(-0.366 -64.058)" fill="#2b7eec"/>
      <path id="Path_52" data-name="Path 52" d="M33.3,151.644V107.453a1.308,1.308,0,0,1,1.307-1.308h31.9a1.308,1.308,0,0,1,1.307,1.308v44.191a1.308,1.308,0,0,1-1.307,1.307h-31.9a1.308,1.308,0,0,1-1.307-1.307Zm0,0" transform="translate(-29.117 -92.81)" fill="#ddf5ff"/>
      <path id="Path_53" data-name="Path 53" d="M65.79,106.145v43.472a1.307,1.307,0,0,1-1.307,1.307H33.3v.719a1.308,1.308,0,0,0,1.307,1.307h31.9a1.308,1.308,0,0,0,1.307-1.307V107.452a1.308,1.308,0,0,0-1.307-1.307Zm0,0" transform="translate(-29.116 -92.81)" fill="#c1e9f4"/>
      <path id="Path_54" data-name="Path 54" d="M392.592,170.7l-2.615,3.225a1.308,1.308,0,0,1-2.031,0l-2.615-3.225a1.308,1.308,0,0,1-.292-.823V132.163h7.845v37.714A1.307,1.307,0,0,1,392.592,170.7Zm0,0" transform="translate(-336.664 -115.559)" fill="#ffd664"/>
      <path id="Path_55" data-name="Path 55" d="M392.592,170.7l-2.615,3.225a1.308,1.308,0,0,1-2.031,0l-2.615-3.225a1.308,1.308,0,0,1-.292-.823V132.163h7.845v37.714A1.307,1.307,0,0,1,392.592,170.7Zm0,0" transform="translate(-336.664 -115.559)" fill="#ffd664"/>
      <path id="Path_56" data-name="Path 56" d="M409.185,132.164v37.393l-3.26,4.02.283.349a1.308,1.308,0,0,0,2.031,0l2.615-3.225a1.306,1.306,0,0,0,.292-.824V132.164Zm0,0" transform="translate(-354.926 -115.56)" fill="#f9c646"/>
      <path id="Path_57" data-name="Path 57" d="M409.434,164.494a.981.981,0,0,1-.981-.981V125.336a.981.981,0,0,1,1.962,0v38.177A.981.981,0,0,1,409.434,164.494Zm0,0" transform="translate(-357.136 -108.733)" fill="#636363"/>
      <path id="Path_58" data-name="Path 58" d="M392.883,80.3h-7.845V74.8A1.962,1.962,0,0,1,387,72.844h3.922a1.961,1.961,0,0,1,1.961,1.961Zm0,0" transform="translate(-336.663 -63.693)" fill="#ff6969"/>
      <path id="Path_59" data-name="Path 59" d="M431.871,72.848V80.3h1.961V74.808A1.961,1.961,0,0,0,431.871,72.848Zm0,0" transform="translate(-377.612 -63.696)" fill="#ea4747"/>
      <path id="Path_60" data-name="Path 60" d="M159.758,23.686a1.83,1.83,0,1,1-1.83-1.83A1.83,1.83,0,0,1,159.758,23.686Zm0,0" transform="translate(-136.485 -19.11)" fill="#f9c646"/>
      <g id="Group_3" data-name="Group 3" transform="translate(11.571 17.846)">
        <path id="Path_61" data-name="Path 61" d="M110.86,144.012H93.079a.981.981,0,0,1,0-1.961H110.86a.981.981,0,0,1,0,1.961Zm0,0" transform="translate(-92.098 -142.051)" fill="#636363"/>
        <path id="Path_62" data-name="Path 62" d="M151.7,199.165h-15.95a.981.981,0,0,1,0-1.961H151.7a.981.981,0,0,1,0,1.961Zm0,0" transform="translate(-129.405 -190.274)" fill="#636363"/>
        <path id="Path_63" data-name="Path 63" d="M145.159,239.75h-9.413a.981.981,0,0,1,0-1.961h9.413a.981.981,0,0,1,0,1.961Zm0,0" transform="translate(-129.405 -225.76)" fill="#636363"/>
        <path id="Path_64" data-name="Path 64" d="M151.7,291.782h-15.95a.981.981,0,1,1,0-1.961H151.7a.981.981,0,1,1,0,1.961Zm0,0" transform="translate(-129.405 -271.255)" fill="#636363"/>
        <path id="Path_65" data-name="Path 65" d="M145.159,332.368h-9.413a.981.981,0,0,1,0-1.961h9.413a.981.981,0,0,1,0,1.961Zm0,0" transform="translate(-129.405 -306.742)" fill="#636363"/>
        <path id="Path_66" data-name="Path 66" d="M151.7,384.4h-15.95a.981.981,0,0,1,0-1.962H151.7a.981.981,0,0,1,0,1.962Zm0,0" transform="translate(-129.405 -352.236)" fill="#636363"/>
        <path id="Path_67" data-name="Path 67" d="M145.159,424.985h-9.413a.981.981,0,1,1,0-1.961h9.413a.981.981,0,1,1,0,1.961Zm0,0" transform="translate(-129.405 -387.723)" fill="#636363"/>
      </g>
      <path id="Path_68" data-name="Path 68" d="M70.342,196.164H64.981a.981.981,0,0,0-.981.981v5.23a.98.98,0,0,0,.981.981h5.361a.981.981,0,0,0,.981-.981v-5.23A.981.981,0,0,0,70.342,196.164Zm0,0" transform="translate(-55.959 -171.519)" fill="#7ae57d"/>
      <path id="Path_69" data-name="Path 69" d="M70.342,288.781H64.981a.981.981,0,0,0-.981.981v5.23a.98.98,0,0,0,.981.981h5.361a.981.981,0,0,0,.981-.981v-5.23A.981.981,0,0,0,70.342,288.781Zm0,0" transform="translate(-55.959 -252.5)" fill="#7ae57d"/>
      <path id="Path_70" data-name="Path 70" d="M70.342,388.589H64.981a.98.98,0,0,1-.981-.98v-5.23a.98.98,0,0,1,.981-.981h5.361a.981.981,0,0,1,.981.981v5.23A.981.981,0,0,1,70.342,388.589Zm-4.38-1.961h3.4V383.36h-3.4Zm0,0" transform="translate(-55.959 -333.482)" fill="#636363"/>
    </g>
    <text id="Success" transform="translate(399 1665)" fill="#fff" font-size="18" font-family="SegoeUI, Segoe UI"><tspan x="0" y="0">Success</tspan></text>
    <text id="Tasks" transform="translate(910 1665)" fill="#fff" font-size="18" font-family="SegoeUI, Segoe UI"><tspan x="0" y="0">Tasks</tspan></text>
    <text id="Learn" transform="translate(662 1309)" fill="#fff" font-size="18" font-family="SegoeUI, Segoe UI"><tspan x="0" y="0">Learn</tspan></text>
  </g>
</svg>
