<svg xmlns="http://www.w3.org/2000/svg" width="211" height="211" viewBox="0 0 211 211">
  <g id="SucessMobileView" transform="translate(-71.5 -2293)">
    <circle id="Ellipse_11" data-name="Ellipse 11" cx="105.5" cy="105.5" r="105.5" transform="translate(71.5 2293)" fill="#223e73"/>
    <g id="student" transform="translate(153.5 2391)">
      <path id="Path_27" data-name="Path 27" d="M366.7,15.783a2.945,2.945,0,0,0-1.894-2.75V1.052a1.052,1.052,0,0,0-2.1,0V13.034a2.942,2.942,0,0,0,0,5.5v3.283a1.052,1.052,0,0,0,2.1,0V18.532A2.944,2.944,0,0,0,366.7,15.783Zm0,0" transform="translate(-311.426 0)" fill="#ffd664"/>
      <path id="Path_28" data-name="Path 28" d="M367.7,96.66a2.943,2.943,0,0,1-4.019,4.019A2.945,2.945,0,1,0,367.7,96.66Zm0,0" transform="translate(-313.904 -83.431)" fill="#f9c646"/>
      <path id="Path_29" data-name="Path 29" d="M65.493,0H13.865a1.052,1.052,0,0,0,0,2.1h8.979V15.5H56.514V2.1h8.979a1.052,1.052,0,0,0,0-2.1Zm0,0" transform="translate(-11.059 0)" fill="#636363"/>
      <path id="Path_30" data-name="Path 30" d="M20.2,342.871,8.219,346.2A11.223,11.223,0,0,0,0,357.013v7.637a1.369,1.369,0,0,0,1.369,1.369h54.5a1.369,1.369,0,0,0,1.369-1.369v-7.637A11.223,11.223,0,0,0,49.02,346.2l-11.983-3.329Zm0,0" transform="translate(0 -295.943)" fill="#2b7eec"/>
      <path id="Path_31" data-name="Path 31" d="M184.343,416.672l1.684,8.418-4.349,4.629-4.349-4.629,1.684-8.418Zm0,0" transform="translate(-153.058 -359.643)" fill="#ff6969"/>
      <path id="Path_32" data-name="Path 32" d="M213.455,425.09l-1.684-8.418h-2.666l2.134,10.775,2.215-2.357Zm0,0" transform="translate(-180.486 -359.643)" fill="#ea4747"/>
      <path id="Path_33" data-name="Path 33" d="M237.726,364.135v7.637a1.369,1.369,0,0,1-1.369,1.369H209.106l8.277-8.7,4.2-13.321,7.918,2.2a11.222,11.222,0,0,1,8.22,10.814Zm0,0" transform="translate(-180.487 -303.064)" fill="#636363"/>
      <path id="Path_34" data-name="Path 34" d="M352.431,365.6l-.908-.252a11.219,11.219,0,0,1,3.936,8.534v11.538h3.823a1.369,1.369,0,0,0,1.369-1.369v-7.637A11.223,11.223,0,0,0,352.431,365.6Zm0,0" transform="translate(-303.411 -315.343)" fill="#494949"/>
      <path id="Path_35" data-name="Path 35" d="M8.22,353.32l7.918-2.2,4.2,13.321,8.277,8.7H1.369A1.369,1.369,0,0,1,0,371.771v-7.637A11.223,11.223,0,0,1,8.22,353.32Zm0,0" transform="translate(-0.001 -303.064)" fill="#636363"/>
      <path id="Path_36" data-name="Path 36" d="M182.3,266.817l-5.051,5.05-5.051-5.05v-8h10.1Zm0,0" transform="translate(-148.635 -223.396)" fill="#f9b3a7"/>
      <path id="Path_37" data-name="Path 37" d="M305.457,113.266H309.1v5.612h-3.648Zm0,0" transform="translate(-263.65 -97.764)" fill="#ffd664"/>
      <path id="Path_38" data-name="Path 38" d="M117.107,7.688v8.839a2.806,2.806,0,0,1-2.806,2.806H86.1v2.806h33.671V7.688Zm0,0" transform="translate(-74.318 -6.636)" fill="#494949"/>
      <path id="Path_39" data-name="Path 39" d="M86.1,113.266h3.648v5.612H86.1Zm0,0" transform="translate(-74.318 -97.764)" fill="#ffd664"/>
      <path id="Path_40" data-name="Path 40" d="M94.976,113.266H81.789V117.9h-2.1a2.806,2.806,0,0,0-2.806,2.806v1.964a2.806,2.806,0,0,0,2.806,2.806h2.272a13.188,13.188,0,0,0,26.207-2.1v-10.1Zm0,0" transform="translate(-66.357 -97.764)" fill="#feccc1"/>
      <path id="Path_41" data-name="Path 41" d="M212.01,117.9h-2.1v-4.629h-3.928v10.1a13.191,13.191,0,0,1-11.224,13.042,13.2,13.2,0,0,0,14.984-10.938h2.272a2.805,2.805,0,0,0,2.806-2.806V120.7a2.806,2.806,0,0,0-2.806-2.806Zm0,0" transform="translate(-168.099 -97.764)" fill="#f9b3a7"/>
      <path id="Path_42" data-name="Path 42" d="M175.042,362.7h2.665l2.736-3.157-5.4-5.4-5.4,5.4,2.736,3.157Zm0,0" transform="translate(-146.422 -305.674)" fill="#ff6969"/>
      <path id="Path_43" data-name="Path 43" d="M198.71,354.145l-1.648,1.649,2.829,2.829a1.4,1.4,0,0,1,.068,1.911l-1.88,2.17h3.3l2.736-3.156Zm0,0" transform="translate(-170.091 -305.674)" fill="#ea4747"/>
      <path id="Path_44" data-name="Path 44" d="M150.177,327.7l5.4-5.4-5.051-5.05-3.437,3.531Zm0,0" transform="translate(-126.959 -273.825)" fill="#2b7eec"/>
      <path id="Path_45" data-name="Path 45" d="M214.506,327.7l-5.4-5.4,5.051-5.05,3.437,3.531Zm0,0" transform="translate(-180.486 -273.825)" fill="#2b7eec"/>
      <g id="Group_2" data-name="Group 2" transform="translate(9.61 64.674)">
        <path id="Path_46" data-name="Path 46" d="M334.725,473.588v4.349h-2.1v-4.349a1.052,1.052,0,1,1,2.1,0Zm0,0" transform="translate(-296.706 -472.535)" fill="#494949"/>
        <path id="Path_47" data-name="Path 47" d="M70.215,477.937v-4.349a1.052,1.052,0,0,1,2.1,0v4.349Zm0,0" transform="translate(-70.215 -472.535)" fill="#494949"/>
      </g>
    </g>
    <text id="Success" transform="translate(148.5 2354)" fill="#fff" font-size="18" font-family="SegoeUI, Segoe UI"><tspan x="0" y="0">Success</tspan></text>
  </g>
</svg>
