<svg xmlns="http://www.w3.org/2000/svg" width="211" height="211" viewBox="0 0 211 211">
  <g id="TaskMobileView" transform="translate(-82 -1756)">
    <circle id="Ellipse_13" data-name="Ellipse 13" cx="105.5" cy="105.5" r="105.5" transform="translate(82 1756)" fill="#223e73"/>
    <g id="questionnaire" transform="translate(159.39 1859.001)">
      <path id="Path_48" data-name="Path 48" d="M131.121,9.152V4.969a4.968,4.968,0,1,1,9.937,0V9.152Zm0,0" transform="translate(-114.647 -0.001)" fill="#ffd664"/>
      <path id="Path_49" data-name="Path 49" d="M136.265,0a4.993,4.993,0,0,0-1.222.108,4.969,4.969,0,0,1,3.922,4.857V6.406a.784.784,0,0,1-.785.784h-7.06V9.152h9.937V5.06A5.03,5.03,0,0,0,136.265,0Zm0,0" transform="translate(-114.647)" fill="#f9c646"/>
      <path id="Path_50" data-name="Path 50" d="M40.269,128.021H2.615A2.615,2.615,0,0,1,0,125.407V75.463a2.615,2.615,0,0,1,2.615-2.615H40.269a2.615,2.615,0,0,1,2.615,2.615v49.944A2.614,2.614,0,0,1,40.269,128.021Zm0,0" transform="translate(0 -63.696)" fill="#2b7eec"/>
      <path id="Path_51" data-name="Path 51" d="M41.158,73.262v51.722a1.307,1.307,0,0,1-1.307,1.307H.419a2.616,2.616,0,0,0,2.562,2.092H40.635a2.615,2.615,0,0,0,2.615-2.615V75.825a2.615,2.615,0,0,0-2.092-2.563Zm0,0" transform="translate(-0.366 -64.058)" fill="#2b7eec"/>
      <path id="Path_52" data-name="Path 52" d="M33.3,151.644V107.453a1.308,1.308,0,0,1,1.307-1.308h31.9a1.308,1.308,0,0,1,1.307,1.308v44.191a1.308,1.308,0,0,1-1.307,1.307h-31.9a1.308,1.308,0,0,1-1.307-1.307Zm0,0" transform="translate(-29.117 -92.81)" fill="#ddf5ff"/>
      <path id="Path_53" data-name="Path 53" d="M65.79,106.145v43.472a1.307,1.307,0,0,1-1.307,1.307H33.3v.719a1.308,1.308,0,0,0,1.307,1.307h31.9a1.308,1.308,0,0,0,1.307-1.307V107.452a1.308,1.308,0,0,0-1.307-1.307Zm0,0" transform="translate(-29.116 -92.81)" fill="#c1e9f4"/>
      <path id="Path_54" data-name="Path 54" d="M392.592,170.7l-2.615,3.225a1.308,1.308,0,0,1-2.031,0l-2.615-3.225a1.308,1.308,0,0,1-.292-.823V132.163h7.845v37.714A1.307,1.307,0,0,1,392.592,170.7Zm0,0" transform="translate(-336.664 -115.559)" fill="#ffd664"/>
      <path id="Path_55" data-name="Path 55" d="M392.592,170.7l-2.615,3.225a1.308,1.308,0,0,1-2.031,0l-2.615-3.225a1.308,1.308,0,0,1-.292-.823V132.163h7.845v37.714A1.307,1.307,0,0,1,392.592,170.7Zm0,0" transform="translate(-336.664 -115.559)" fill="#ffd664"/>
      <path id="Path_56" data-name="Path 56" d="M409.185,132.164v37.393l-3.26,4.02.283.349a1.308,1.308,0,0,0,2.031,0l2.615-3.225a1.306,1.306,0,0,0,.292-.824V132.164Zm0,0" transform="translate(-354.926 -115.56)" fill="#f9c646"/>
      <path id="Path_57" data-name="Path 57" d="M409.434,164.494a.981.981,0,0,1-.981-.981V125.336a.981.981,0,0,1,1.962,0v38.177A.981.981,0,0,1,409.434,164.494Zm0,0" transform="translate(-357.136 -108.733)" fill="#636363"/>
      <path id="Path_58" data-name="Path 58" d="M392.883,80.3h-7.845V74.8A1.962,1.962,0,0,1,387,72.844h3.922a1.961,1.961,0,0,1,1.961,1.961Zm0,0" transform="translate(-336.663 -63.693)" fill="#ff6969"/>
      <path id="Path_59" data-name="Path 59" d="M431.871,72.848V80.3h1.961V74.808A1.961,1.961,0,0,0,431.871,72.848Zm0,0" transform="translate(-377.612 -63.696)" fill="#ea4747"/>
      <path id="Path_60" data-name="Path 60" d="M159.758,23.686a1.83,1.83,0,1,1-1.83-1.83A1.83,1.83,0,0,1,159.758,23.686Zm0,0" transform="translate(-136.485 -19.11)" fill="#f9c646"/>
      <g id="Group_3" data-name="Group 3" transform="translate(11.571 17.846)">
        <path id="Path_61" data-name="Path 61" d="M110.86,144.012H93.079a.981.981,0,0,1,0-1.961H110.86a.981.981,0,0,1,0,1.961Zm0,0" transform="translate(-92.098 -142.051)" fill="#636363"/>
        <path id="Path_62" data-name="Path 62" d="M151.7,199.165h-15.95a.981.981,0,0,1,0-1.961H151.7a.981.981,0,0,1,0,1.961Zm0,0" transform="translate(-129.405 -190.274)" fill="#636363"/>
        <path id="Path_63" data-name="Path 63" d="M145.159,239.75h-9.413a.981.981,0,0,1,0-1.961h9.413a.981.981,0,0,1,0,1.961Zm0,0" transform="translate(-129.405 -225.76)" fill="#636363"/>
        <path id="Path_64" data-name="Path 64" d="M151.7,291.782h-15.95a.981.981,0,1,1,0-1.961H151.7a.981.981,0,1,1,0,1.961Zm0,0" transform="translate(-129.405 -271.255)" fill="#636363"/>
        <path id="Path_65" data-name="Path 65" d="M145.159,332.368h-9.413a.981.981,0,0,1,0-1.961h9.413a.981.981,0,0,1,0,1.961Zm0,0" transform="translate(-129.405 -306.742)" fill="#636363"/>
        <path id="Path_66" data-name="Path 66" d="M151.7,384.4h-15.95a.981.981,0,0,1,0-1.962H151.7a.981.981,0,0,1,0,1.962Zm0,0" transform="translate(-129.405 -352.236)" fill="#636363"/>
        <path id="Path_67" data-name="Path 67" d="M145.159,424.985h-9.413a.981.981,0,1,1,0-1.961h9.413a.981.981,0,1,1,0,1.961Zm0,0" transform="translate(-129.405 -387.723)" fill="#636363"/>
      </g>
      <path id="Path_68" data-name="Path 68" d="M70.342,196.164H64.981a.981.981,0,0,0-.981.981v5.23a.98.98,0,0,0,.981.981h5.361a.981.981,0,0,0,.981-.981v-5.23A.981.981,0,0,0,70.342,196.164Zm0,0" transform="translate(-55.959 -171.519)" fill="#7ae57d"/>
      <path id="Path_69" data-name="Path 69" d="M70.342,288.781H64.981a.981.981,0,0,0-.981.981v5.23a.98.98,0,0,0,.981.981h5.361a.981.981,0,0,0,.981-.981v-5.23A.981.981,0,0,0,70.342,288.781Zm0,0" transform="translate(-55.959 -252.5)" fill="#7ae57d"/>
      <path id="Path_70" data-name="Path 70" d="M70.342,388.589H64.981a.98.98,0,0,1-.981-.98v-5.23a.98.98,0,0,1,.981-.981h5.361a.981.981,0,0,1,.981.981v5.23A.981.981,0,0,1,70.342,388.589Zm-4.38-1.961h3.4V383.36h-3.4Zm0,0" transform="translate(-55.959 -333.482)" fill="#636363"/>
    </g>
    <text id="Tasks" transform="translate(164.39 1819)" fill="#fff" font-size="18" font-family="SegoeUI, Segoe UI"><tspan x="0" y="0">Tasks</tspan></text>
  </g>
</svg>
